<?xml version="1.0" encoding="utf-8"?>
<!-- Generator: Adobe Illustrator 17.0.0, SVG Export Plug-In . SVG Version: 6.00 Build 0)  -->
<!DOCTYPE svg PUBLIC "-//W3C//DTD SVG 1.1//EN" "http://www.w3.org/Graphics/SVG/1.1/DTD/svg11.dtd">
<svg version="1.1" id="Layer_1" xmlns="http://www.w3.org/2000/svg" xmlns:xlink="http://www.w3.org/1999/xlink" x="0px" y="0px"
	 width="1000px" height="1000px" viewBox="0 0 1000 1000" enable-background="new 0 0 1000 1000" xml:space="preserve">
<g>
	<path fill="#491014" d="M670.678,239.341c0,0,27.781-12.69,26.41-34.641c-1.372-21.951-30.868-50.761-23.323-61.051
		c7.546-10.29,23.666,7.546,40.815,23.666c17.149,16.12,30.868-9.604,8.917-33.955s-26.067-46.989-10.633-45.617
		c15.434,1.372,34.298,33.612,57.621,25.724c23.323-7.889,12.347-42.873,18.864-64.824s31.554-28.811,37.728,17.492
		c6.173,46.303-23.666,87.118-68.254,127.247c-44.588,40.129-71.684,54.191-71.684,54.191L670.678,239.341z"/>
	<path fill="#491014" d="M614.542,237.166c0,0-29.266-8.456-30.295-39.668c-0.725-21.982,31.897-47.604,24.352-57.893
		c-7.546-10.29-24.009,5.416-41.158,21.536c-17.149,16.12-28.738-6.741-6.173-30.525c25.38-26.753,22.17-44.245,6.736-42.873
		c-15.434,1.372-38.634,33.955-61.957,26.067c-23.323-7.889-10.632-46.303-17.149-68.254s-28.124-20.579-34.298,25.724
		c-6.174,46.303,22.856,81.973,67.444,122.102c44.588,40.129,71.683,54.191,71.683,54.191L614.542,237.166z"/>
	<path fill="#F3B08A" d="M400.065,722.261c0,0-28.811,90.547-48.361,128.961L390.118,985.1h-45.273
		c0,0-42.187-121.073-44.245-131.42c-2.058-10.347-2.058-144.796-2.058-144.796l104.61,4.116L400.065,722.261z"/>
	<path fill="#D87D61" d="M403.151,713.001l-104.609-4.116c0,0,0,134.449,2.058,144.795c0.46,2.315,2.938,10.193,6.493,20.997
		c15.016-62.349,69.876-119.19,87.492-135.639c3.401-10.246,5.48-16.777,5.48-16.777L403.151,713.001z"/>
	<path fill="#F3B08A" d="M778.032,206.758c-9.375-7.088-20.122-1.601-39.786,12.576c-14.328,10.33-34.191,18.331-43.943,21.925
		c-14.798-10.253-33.114-16.323-52.95-16.323c-19.851,0-38.18,6.079-52.983,16.345c-5.461-0.729-18.27-3.766-38.764-16.345
		c-28.124-17.263-34.984-24.58-45.96-17.492c-10.675,6.894-4.029,50.343,50.836,82.591c-1.381,5.822-2.132,11.864-2.132,18.074
		c0,27.554,14.348,51.967,36.432,67.101c-4.024,29.733-14.481,97.702-14.481,97.702s-75.456,13.262-140.394,14.176
		c-64.938,0.914-112.041-10.518-131.706-10.976c-13.25-0.308-56.167,24.532-85.01,65.375c-14.68-9.868-26.597-23.822-33.883-39.944
		c-7.917-17.519-10.375-37.46-6.947-56.377c-20.275,4.341-36.204,20.158-40.426,40.458c-4.222,20.3,3.468,42.373,18.614,56.533
		c13.581,12.697,32.586,18.933,51.168,17.99c-8.106,15.384-13.883,32.446-15.558,50.871
		c-7.317,80.487,37.957,150.455,37.957,150.455s6.402,81.401,5.031,96.95c-1.372,15.549,34.755,126.675,34.755,126.675h41.158
		l-22.866-125.76c14.177-27.896,43.902-146.339,43.902-146.339c132.163,42.987,235.972-11.89,235.972-11.89
		c26.067,123.931-35.67,283.989-35.67,283.989h41.615c37.499-86.432,61.28-233.685,61.28-233.685
		c9.146,120.729-15.091,226.826-15.091,226.826h51.219c0,0,14.176-61.28,21.036-141.767c6.859-80.487-0.458-176.979-5.031-267.069
		c-3.819-75.236-1.261-162.223-0.313-188.879c27.004-14.281,45.243-41.351,45.243-72.417c0-5.332-0.559-10.54-1.585-15.593
		C781.03,265.228,787.201,213.691,778.032,206.758z"/>
	<g>
		<path fill="#D87D60" d="M720.182,270.782c0,0,42.301-30.183,50.076-47.103c0,0-7.317,34.756-44.13,62.423
			C726.127,286.102,723.841,276.269,720.182,270.782z"/>
		<path fill="#D87D60" d="M555.093,283.129c0,0,2.515-10.747,6.174-14.634c0,0-34.756-20.579-48.704-46.874
			C512.563,221.621,520.337,263.008,555.093,283.129z"/>
	</g>
	<g>
		<ellipse fill="#491014" cx="590.077" cy="276.155" rx="8.003" ry="9.947"/>
		<ellipse fill="#491014" cx="688.399" cy="276.155" rx="8.003" ry="9.947"/>
		<path fill="#491014" d="M637.066,299.706c20.247,0.148,29.497,2.572,28.468,9.089c-1.029,6.517-10.29,27.096-28.468,26.581
			c-18.178-0.514-28.124-19.721-28.467-25.552C608.255,303.994,613.572,299.535,637.066,299.706z"/>
		<path fill="#491014" d="M642.039,348.581c0,0-30.305,2.938-44.228-16.585c-1.22-1.711-3.625-2.038-5.252-0.708l0,0
			c-1.478,1.21-1.792,3.343-0.694,4.905C596.745,343.127,611.974,359.427,642.039,348.581z"/>
	</g>
	<g>
		<ellipse fill="#F8EEEA" cx="339.7" cy="512.241" rx="15.549" ry="8.689"/>
		<ellipse fill="#F8EEEA" cx="347.249" cy="574.683" rx="11.208" ry="6.263"/>
		<ellipse fill="#F8EEEA" cx="389.318" cy="518.872" rx="13.033" ry="6.631"/>
		<ellipse fill="#F8EEEA" cx="367.138" cy="540.253" rx="11.89" ry="6.05"/>
		<ellipse fill="#F8EEEA" cx="409.211" cy="539.672" rx="11.89" ry="6.049"/>
		<ellipse fill="#F8EEEA" cx="390.118" cy="565.224" rx="7.203" ry="4.944"/>
		<circle fill="#F8EEEA" cx="372.083" cy="589.44" r="4.944"/>
		<circle fill="#F8EEEA" cx="324.151" cy="594.384" r="4.944"/>
		<ellipse fill="#F8EEEA" cx="437.336" cy="515.443" rx="9.832" ry="7.317"/>
		
			<ellipse transform="matrix(0.9561 -0.2932 0.2932 0.9561 -140.459 109.2341)" fill="#F8EEEA" cx="294.198" cy="523.217" rx="12.119" ry="7.774"/>
		
			<ellipse transform="matrix(0.9561 -0.2932 0.2932 0.9561 -149.0479 96.6438)" fill="#F8EEEA" cx="247.883" cy="545.55" rx="12.119" ry="7.774"/>
		
			<ellipse transform="matrix(0.9561 -0.2932 0.2932 0.9561 -149.7212 105.1188)" fill="#F8EEEA" cx="275.832" cy="552.052" rx="10.344" ry="6.636"/>
		
			<ellipse transform="matrix(0.9935 -0.1141 0.1141 0.9935 -59.5044 39.5984)" fill="#F8EEEA" cx="316.207" cy="539.672" rx="10.344" ry="6.636"/>
		
			<ellipse transform="matrix(0.9812 -0.1931 0.1931 0.9812 -104.623 69.0425)" fill="#F8EEEA" cx="301.901" cy="571.273" rx="10.344" ry="6.636"/>
	</g>
	<path fill="#D87D61" d="M633.293,751.415c9.146,120.729-15.091,226.826-15.091,226.826h6.622
		c5.067-17.931,18.075-70.272,21.732-146.339c4.573-95.121-5.945-138.565-5.945-138.565L633.293,751.415z"/>
	<g>
		<g>
			<path fill="#B01119" d="M675.833,780.701c-0.092,12.814-1.347,25.553-3.721,38.011c-0.34,2.002-3.483,1.593-3.288-0.432
				c0.9-12.451,0.664-24.918-0.679-37.195C667.692,775.748,675.748,775.327,675.833,780.701L675.833,780.701z"/>
			<path fill="#B01119" d="M697.569,779.936c2.518,14.676,1.829,29.311-0.908,43.755c-0.106,0.517-0.611,0.851-1.128,0.745
				c-0.474-0.097-0.793-0.544-0.761-1.015c0.476-7.071,0.202-14.188-0.529-21.192c-0.761-6.99-1.998-13.95-4.129-20.378
				c-0.67-2.022,0.426-4.206,2.448-4.876C694.757,776.227,697.163,777.655,697.569,779.936L697.569,779.936z"/>
			<path fill="#B01119" d="M735.761,783.228c3.826,12.507,9.711,26.371,5.932,39.726c-0.148,0.507-0.679,0.798-1.186,0.65
				c-0.461-0.134-0.743-0.586-0.68-1.048c1.614-13.269-5.752-24.792-11.216-36.475C726.349,781.129,733.979,778.06,735.761,783.228
				L735.761,783.228z"/>
			<path fill="#B01119" d="M720.857,783.081c0.764,6.916,0.754,13.633,1.569,20.086c0.781,6.481,2.541,12.887,4.693,19.214
				c0.403,1.079-1.249,1.794-1.755,0.749c-6.643-11.67-9.305-25.904-12.086-38.704c-0.54-2.063,0.694-4.173,2.757-4.713
				C718.307,779.096,720.651,780.74,720.857,783.081L720.857,783.081z"/>
			<path fill="#B01119" d="M684.306,779.128c1.188,9.388,2.137,19.935,0.02,29.438c-0.354,1.968-3.434,1.578-3.289-0.409
				c0.571-9.679-1.705-18.346-4.322-27.749C675.481,775.031,683.701,773.63,684.306,779.128L684.306,779.128z"/>
			<path fill="#B01119" d="M708.763,782.414c1.188,9.387,2.137,19.935,0.021,29.437c-0.354,1.968-3.435,1.579-3.289-0.409
				c0.571-9.679-1.705-18.346-4.322-27.749C699.938,778.317,708.159,776.916,708.763,782.414L708.763,782.414z"/>
			<path fill="#B01119" d="M730.037,784.015c0.274,8.867,1.57,16.219,6.952,23.258c0.541,0.742,0.378,1.782-0.364,2.324
				c-0.665,0.485-1.57,0.405-2.14-0.151c-6.718-5.904-10.552-15.758-12.039-24.151C721.156,779.868,729.475,778.453,730.037,784.015
				L730.037,784.015z"/>
		</g>
		<g>
			<path fill="#B01119" d="M699.146,561.631c-0.146-1.235-0.266-2.517-0.395-3.782c4.635-0.578,9.432-1.255,14.572-2.163v-50.742
				c0-4.663-4.319-8.134-8.87-7.116c-2.288,0.512-4.82,1.064-7.344,1.589c0.35-14.981,1.085-27.823,1.57-35.125
				c0.247-3.72-2.31-7.011-5.955-7.792c-53.604-11.472-97.174-31.889-111.046-38.826c-2.821-1.411-6.241-0.909-8.496,1.296
				c-31.812,31.117-40.406,60.131-40.406,60.131s15.457,27.196,55.7,53.491c17.202,11.24,31.491,17.692,42.249,21.425
				c0,0-0.006,0.007-0.006,0.007s2.66,1.2,8.096,2.502c9.278,2.514,14.371,2.59,14.371,2.59s-1.372,27.21,0.915,81.401
				c2.287,54.192,14.405,145.882,14.405,145.882l68.368,2.744C736.874,789.143,704.176,604.16,699.146,561.631z"/>
			<g>
				<path fill="#377C2B" d="M660.274,448.219v110.897h15.091V452.384C670.199,451.053,665.172,449.658,660.274,448.219z"/>
				<path fill="#377C2B" d="M626.366,436.908l-17.484,107.605c7.749,3.993,14.603,6.901,20.468,9.003
					c1.939-14.554,11.481-87.092,12.313-111.172C636.304,440.533,631.198,438.713,626.366,436.908z"/>
				<path fill="#377C2B" d="M652.802,589.984h50.38c-0.924-5.999-1.741-11.462-2.422-16.234h-47.928
					C652.782,578.165,652.761,583.567,652.802,589.984z"/>
				<path fill="#377C2B" d="M710.1,633.093c-1.085-6.583-2.131-12.981-3.122-19.117l-53.653,4.596
					c0.171,5.993,0.392,12.429,0.673,19.326L710.1,633.093z"/>
				<path fill="#377C2B" d="M724.185,716.336c-1.068-6.2-2.167-12.594-3.281-19.102l-62.039,5.314
					c0.643,6.506,1.309,12.953,1.98,19.214L724.185,716.336z"/>
				<path fill="#377C2B" d="M560.572,511.119c4.833,4.376,10.37,8.954,16.657,13.607c7.848-42.854,24.384-83.631,29.492-95.615
					c-6.729-2.837-12.467-5.423-17.06-7.581C575.632,449.362,564.349,494.848,560.572,511.119z"/>
				<path fill="#377C2B" d="M731.554,758.819c-1.013-5.805-2.137-12.26-3.342-19.198l-65.105,2.517
					c0.803,7.013,1.57,13.501,2.264,19.239L731.554,758.819z"/>
				<path fill="#377C2B" d="M717.444,676.927c-1.081-6.372-2.16-12.765-3.226-19.108l-58.804,5.038
					c0.45,6.246,0.973,12.708,1.545,19.251L717.444,676.927z"/>
			</g>
			<g>
				<path fill="#FEB453" d="M704.5,598.444h-51.611c0.035,2.573,0.083,5.292,0.141,8.117h52.757
					C705.343,603.784,704.913,601.075,704.5,598.444z"/>
				<path fill="#FEB453" d="M642.105,557.362c7.184,1.696,11.081,1.754,11.081,1.754s4.842-81.661,4.235-111.743
					c-2.014-0.606-3.996-1.216-5.958-1.833C650.614,462.6,646.797,534.918,642.105,557.362z"/>
				<path fill="#FEB453" d="M552.056,502.962c3.214-14.529,14.816-62.61,31.846-84.19c-0.785-0.385-1.569-0.771-2.224-1.098
					c-1.851-0.926-3.938-0.95-5.807-0.287c-6.621,10.955-25.188,44.092-30.235,78.709
					C547.531,498.242,549.696,500.555,552.056,502.962z"/>
				<path fill="#FEB453" d="M590.165,533.66c2.329,1.496,4.597,2.898,6.814,4.223l22.125-103.748
					c-2.461-0.962-4.831-1.908-7.11-2.838L590.165,533.66z"/>
				<path fill="#FEB453" d="M690.685,557.849h8.065v-58.78c-0.549,0.117-1.09,0.234-1.641,0.349
					c0.35-14.981,1.085-27.823,1.57-35.125c0.247-3.72-2.31-7.011-5.955-7.792c-0.688-0.147-1.354-0.312-2.038-0.462V557.849z"/>
				<path fill="#FEB453" d="M726.523,729.87c-0.384-2.218-0.773-4.468-1.168-6.757l-63.769,5.463
					c0.253,2.304,0.504,4.562,0.754,6.792L726.523,729.87z"/>
				<path fill="#FEB453" d="M712.736,648.969c-0.378-2.265-0.754-4.52-1.126-6.76l-57.189,4.898
					c0.118,2.227,0.251,4.505,0.396,6.823L712.736,648.969z"/>
				<path fill="#FEB453" d="M733.52,770.063h-67.087c0.396,3.196,0.746,5.992,1.043,8.333h67.506
					C734.556,775.971,734.066,773.178,733.52,770.063z"/>
				<path fill="#FEB453" d="M720.146,692.797c-0.383-2.244-0.768-4.496-1.153-6.757l-61.208,5.242
					c0.211,2.267,0.425,4.535,0.644,6.801L720.146,692.797z"/>
			</g>
		</g>
	</g>
</g>
</svg>
