<?xml version="1.0" encoding="utf-8"?>
<!-- Generator: Adobe Illustrator 17.0.0, SVG Export Plug-In . SVG Version: 6.00 Build 0)  -->
<!DOCTYPE svg PUBLIC "-//W3C//DTD SVG 1.1//EN" "http://www.w3.org/Graphics/SVG/1.1/DTD/svg11.dtd">
<svg version="1.1" id="Layer_1" xmlns="http://www.w3.org/2000/svg" xmlns:xlink="http://www.w3.org/1999/xlink" x="0px" y="0px"
	 width="1000px" height="1000px" viewBox="0 0 1000 1000" enable-background="new 0 0 1000 1000" xml:space="preserve">
<g>
	<path fill="#491014" d="M165.057,424.288c0,0-19.983-51.073-46.621-46.621c-19.992,3.342-16.095,30.525-16.095,30.525
		s-54.946-42.736-86.026,4.995c-31.08,47.73,45.511,101.011,98.791,107.671L165.057,424.288z"/>
	<path fill="#491014" d="M838.279,376.003c0,0-4.44-35.52,14.43-49.951c18.87-14.43,39.961,12.21,39.961,12.21
		s65.491-26.64,99.346,22.755c33.856,49.396-47.175,97.126-107.671,95.461L838.279,376.003z"/>
	<path fill="#F8EEEA" d="M760.961,417.456c0,0-7.043-29.243,1.282-35.348c8.325-6.105,51.431-47.36,80.661-13.69
		c29.23,33.67,68.821,102.121,50.32,120.621c-18.5,18.5-52.54,19.24-56.61,17.39C832.544,504.579,760.961,417.456,760.961,417.456z"
		/>
	<path fill="#F8EEEA" d="M128.138,463.797c0,0,29.277-52.957,37.723-52.523c8.446,0.434,65.849,26.652,71.003,35.558
		c5.154,8.906,1.824,35.917-34.807,77.727c-36.63,41.81-48.101,51.06-62.901,48.1c-14.8-2.96-48.101-35.209-45.51-45.51
		C96.237,516.848,128.138,463.797,128.138,463.797z"/>
	<path fill="#B01119" d="M219.077,459.438l156.324,125.619l198.14-56.798c0,0,147.287-106.536,197.41-120.794
		c14.787-11.624,88.22,81.789,73.433,93.414c0,0-64.75,45.51-97.681,107.301c0,0,101.381,94.721,76.591,172.052
		c0,0-85.471,90.651-252.713,106.191c-167.242,15.54-255.662-3.319-299.328-16.645c0,0-65.866-56.986,1.475-189.447L152.847,550.09
		C140.976,541.417,207.206,450.766,219.077,459.438z"/>
	<path fill="#F8EEEA" d="M249.788,853.493c0,0,121.362,49.581,308.213,21.83c186.852-27.75,258.654-92.11,277.514-107.29
		c18.859-15.181,38.47,14.789,27.74,36.62c-10.73,21.831-124.692,95.091-290.823,114.702c-166.132,19.61-281.203,3.7-312.653-9.99
		c-31.45-13.69-31.82-42.181-27.75-50.691C236.098,850.163,238.412,849.446,249.788,853.493z"/>
	<path fill="#491014" d="M244.009,766.51c-3.271,24.478-1.096,44.282,3.175,59.773c54.514,14.289,167.042,34.601,303.733,8.022
		c153.333-29.813,242.337-84.7,272.859-106.347c-5.358-21.694-16.384-42.831-28.46-61.177
		c-37.673,28.236-111.95,73.447-222.885,94.95C427.677,789.79,281.653,771.975,244.009,766.51z"/>
	<g>
		<path fill="#FEB453" d="M513.812,776.623l62.253-12.81c4.419-0.91,8.739,1.936,9.648,6.355l8.396,40.803
			c0.91,4.419-1.936,8.739-6.355,9.648l-59.704,12.285c-4.419,0.909-8.739-1.936-9.648-6.355l-8.921-43.353
			C508.862,780.186,510.8,777.243,513.812,776.623z M498.642,768.336c-2.851,2.852-4.26,7.037-3.386,11.282l12.014,58.387
			c1.381,6.711,7.941,11.032,14.652,9.651l77.287-15.903c2.466-0.507,4.609-1.714,6.265-3.37c2.851-2.851,4.26-7.037,3.386-11.282
			l-12.015-58.386c-1.381-6.711-7.941-11.032-14.652-9.651l-77.287,15.903C502.441,765.474,500.298,766.68,498.642,768.336
			L498.642,768.336z"/>
		<path fill="#FEB453" d="M593.799,801.045c0,0-38.599,6.357-47.188,2.762c-8.59-3.595-9.608-12.197,10.28-16.175
			c19.888-3.977,33.485-5.92,33.485-5.92L593.799,801.045z"/>
	</g>
	<path fill="#F3B08A" d="M310.468,309.957c0,0-4.44,145.411,98.791,228.662C512.491,621.87,709.3,518.301,598.408,268.44
		L310.468,309.957z"/>
	<path fill="#F8EEEA" d="M654.793,508.368c24.219-11.652,42.203-35.455,46.796-61.936c4.593-26.481-3.684-54.378-22.565-73.505
		c6.084-32.743-6.582-68.315-31.991-89.845c-9.299-7.88-20.393-14.034-32.457-15.773c-12.064-1.739-28.537-0.545-36.297,8.854
		c-7.647,9.264-10.96,21.962-8.814,33.782s10.44,20.823,20.856,26.806c-3.855,5.545-2.817,13.371,0.717,19.125
		c3.534,5.755,8.644,7.646,14.085,11.646c-5.956,9.115-8.041,19.88-5.372,30.436c-43.892,6.08-85.699,29.511-112.481,64.812
		c-14.913-16.067-36.067-26.185-57.935-27.713c-21.869-1.528-44.263,6.118-61.266,19.955c0.317-5.447-1.522-10.991-5.031-15.169
		c-3.509-4.178-9.15-6.508-14.571-7.138c6.306-7.566,9.16-17.901,7.632-27.631c-1.528-9.73-6.757-19.388-15.079-24.657
		c6.342-11.002,8.418-24.393,5.706-36.798c-2.712-12.406-10.187-23.708-20.541-31.06c-6.081-4.318-13.78-7.349-20.96-5.335
		c-25.858,7.256-32.111,42.481-37.71,68.747c-5.599,26.266-3.28,54.168,6.579,79.149c-18.106,16.694-22.887,44.776-12.216,66.971
		c10.671,22.195,34.473,36.791,59.032,38.618c1.275,14.111,9.133,26.445,21.261,33.77c12.128,7.326,27.769,8.496,40.853,3.057
		c0.313,13.969,11.566,26.812,22.603,35.38c11.037,8.568,24.137,13.956,36.649,20.176c12.512,6.221,24.946,13.693,33.049,25.076
		c8.103,11.383,10.888,27.538,3.446,39.364c26.376-0.636,53.629-8.286,73.5-25.642c19.871-17.356,33.416-41.803,37.595-67.854
		c8.632,0.866,17.04-2.911,22.537-9.622c5.497-6.711,7.999-15.541,8.09-24.216c0.09-8.675-2.085-17.238-5.113-25.367
		c4.685-0.562,9.051-2.353,11.586-6.333c2.535-3.98,3.179-9.108,1.708-13.591c7.93-1.134,15.355-5.403,20.015-11.92
		C653.348,526.472,656.285,516.239,654.793,508.368z"/>
	<path fill="#491014" d="M497.059,492.244c12.324,10.731,28.319,17.166,44.641,17.959c-5.981,13.634-18.526,23.727-33.082,26.855
		c-14.555,3.129-30.505-1.132-41.561-11.104C480.047,518.268,490.686,505.928,497.059,492.244z"/>
	<circle fill="#491014" cx="533.951" cy="360.647" r="13.343"/>
	<circle fill="#491014" cx="410.369" cy="384.328" r="13.343"/>
	<path fill="#491014" d="M550.087,334.037c1.568,0.968,3.473,2.082,5.123,1.26c1.42-0.707,1.867-2.638,1.367-4.144
		c-0.5-1.506-1.703-2.662-2.92-3.68c-9.81-8.202-23.592-11.41-36.015-8.382c-3.589,0.875-10.235,4.613-6.897,9.334
		c2.454,3.47,9.116,0.69,12.387,0.206C532.374,327.261,542.117,329.12,550.087,334.037z"/>
	<path fill="#491014" d="M398.384,351.244c2.345-0.732,5.235-1.478,5.888-3.845c0.499-1.807-0.752-3.751-2.435-4.578
		c-1.683-0.827-3.662-0.768-5.515-0.482c-6.155,0.951-11.909,4.291-15.788,9.163c-3.88,4.872-5.846,11.227-5.395,17.439
		c0.092,1.267,0.294,2.566,0.961,3.647c1.486,2.409,4.639,2.132,5.93-0.261c1.315-2.436,1.046-5.977,2.31-8.645
		C387.089,357.882,392.229,353.165,398.384,351.244z"/>
	<circle fill="#F3B08A" cx="485.122" cy="430.399" r="45.929"/>
	<g>
		<path fill="#D87D61" d="M520.183,451.967c-17.936,17.936-46.085,18.868-62.873,2.081c-15.708-15.708-15.896-41.363-1.16-59.292
			c-1.209,0.985-2.379,2.039-3.505,3.166c-17.937,17.937-17.937,47.017,0,64.954c17.936,17.936,47.017,17.936,64.954,0
			c7.406-7.406,11.703-16.717,12.994-26.354C528.242,442.098,524.78,447.37,520.183,451.967z"/>
		<path fill="#D87D61" d="M458.803,425.731c0.222-6.255,2.845-12.394,7.212-16.877c1.473-1.512,3.224-2.883,5.296-3.288
			c2.071-0.405,4.496,0.415,5.402,2.321c0.694,1.46,0.376,3.23-0.377,4.66c-0.753,1.431-1.894,2.611-2.935,3.847
			c-4.923,5.845-7.761,13.377-8.054,21.004c-0.047,1.231,0.747,4.2-1.077,4.208c-1.441,0.006-2.671-3.309-3.158-4.379
			C459.479,433.638,458.664,429.673,458.803,425.731z"/>
	</g>
	<path fill="#EBDED0" d="M265.816,320.987c2.024,4.347,6.204,7.245,10.988,7.584c24.625,1.749,101.187,6.73,123.668,2.773
		c26.917-4.737,222.965-53.296,227.802-60.097c4.837-6.801,18.157-54.161,10.942-59.896s-47.373-21.818-47.373-21.818
		s-298.403,41.62-307.465,49.202c-9.062,7.582-32.002,49.022-30.892,53.832C254.257,295.901,261.465,311.642,265.816,320.987z"/>
	<path fill="#B01119" d="M301.973,242.602c0,0,8.126-87.307,31.066-127.267c0,0,51.06-43.66,122.841-53.281
		s93.611-9.25,104.711,7.77c11.1,17.02,43.179,113.988,39.221,117.662c-3.958,3.673-68.398,68.398-68.398,68.398l-34.833-15.488
		l17.502-25.418C514.083,214.978,401.148,273.669,301.973,242.602z"/>
	<path fill="#491014" d="M408.52,148.635c0,0,47.36,0.74,70.856,7.955c23.495,7.215,47.65,27.67,47.65,27.67
		s4.56,5.299-12.943,30.718c-17.502,25.418-17.502,25.418-17.502,25.418l4.312,1.917c0,0,37.869-43.358,36.388-58.158
		s-71.923-58.603-87.947-58.347C433.31,126.065,408.52,148.635,408.52,148.635z"/>
	<circle fill="#F8EEEA" cx="506.203" cy="272.219" r="32.963"/>
</g>
</svg>
