<?xml version="1.0" encoding="utf-8"?>
<!-- Generator: Adobe Illustrator 17.0.0, SVG Export Plug-In . SVG Version: 6.00 Build 0)  -->
<!DOCTYPE svg PUBLIC "-//W3C//DTD SVG 1.1//EN" "http://www.w3.org/Graphics/SVG/1.1/DTD/svg11.dtd">
<svg version="1.1" id="Layer_1" xmlns="http://www.w3.org/2000/svg" xmlns:xlink="http://www.w3.org/1999/xlink" x="0px" y="0px"
	 width="1000px" height="1000px" viewBox="0 0 1000 1000" enable-background="new 0 0 1000 1000" xml:space="preserve">
<g>
	<circle fill="#F8EEEA" cx="438.488" cy="718.004" r="256.11"/>
	<path fill="#CAB29D" d="M216.558,728.031c0-135.908,110.175-246.082,246.082-246.082c63.79,0,121.908,24.276,165.629,64.088
		c-46.857-51.68-114.526-84.143-189.781-84.143c-141.445,0-256.109,114.664-256.109,256.109s114.664,256.109,256.109,256.109
		c4.049,0,8.07-0.119,12.074-0.305C320.266,967.508,216.558,859.887,216.558,728.031z"/>
	<circle fill="#F8EEEA" cx="531.798" cy="352.343" r="187.981"/>
	<path fill="#D2C3BE" d="M373.887,358.38c0-100.484,81.459-181.943,181.944-181.943c26.851,0,52.318,5.864,75.261,16.305
		c-28.818-17.967-62.833-28.38-99.294-28.38c-103.819,0-187.981,84.161-187.981,187.981s84.162,187.981,187.981,187.981
		c4.076,0,8.109-0.175,12.12-0.43C448.992,533.751,373.887,454.858,373.887,358.38z"/>
	<g>
		<circle fill="#E51937" cx="440.902" cy="338.382" r="35.579"/>
		<circle fill="#E51937" cx="661.535" cy="385.655" r="33.602"/>
	</g>
	<g>
		<path fill="#DE841E" d="M661.783,455.217l-86.042-95.04c-1.476-2.243-3.276-4.239-5.359-5.92l-0.068-0.074l-0.007,0.015
			c-2.417-1.934-5.191-3.459-8.299-4.39c-13.951-4.181-28.924,4.656-33.443,19.736c-4.519,15.081,3.127,30.695,17.078,34.875
			l112.682,55.384C661.218,461.227,663.947,457.607,661.783,455.217z"/>
		<g>
			<path fill="#FEB453" d="M568.134,363.31c-7.411,3.718-13.658,9.715-17.675,16.968c-4.017,7.253-5.787,15.73-5.007,23.985
				c-4.505-8.244-4.924-18.879-0.232-27.018C549.912,369.107,558.743,363.541,568.134,363.31z"/>
			<g>
				<path fill="#FEB453" d="M582.721,391.799c3.472-4.298,8.371-7.349,13.707-8.771l-2.875-3.176
					c-0.039,0.005-0.076-0.011-0.115-0.005c-6.39,0.999-12.239,5.026-15.452,10.639c-3.213,5.614-3.723,12.697-1.348,18.713
					C576.519,403.097,578.886,396.547,582.721,391.799z"/>
				<path fill="#FEB453" d="M600.51,417.605c2.292-5.158,6.372-9.501,11.377-12.111c-5.559,1.346-10.612,4.148-13.98,8.77
					c-2.864,3.93-4.405,8.739-4.572,13.597l5.172,2.542C598.072,426.057,598.735,421.599,600.51,417.605z"/>
				<path fill="#FEB453" d="M632.248,422.593l-2.37-2.618c-3.586,2.264-6.544,5.524-8.291,9.391
					c-1.62,3.586-2.206,7.615-1.749,11.521l0.815,0.401C621.348,433.741,625.812,426.647,632.248,422.593z"/>
			</g>
		</g>
	</g>
	
		<ellipse transform="matrix(0.9916 0.1296 -0.1296 0.9916 43.4949 -62.9149)" fill="#491014" cx="505.19" cy="302.761" rx="11.674" ry="17.378"/>
	
		<ellipse transform="matrix(0.9916 0.1296 -0.1296 0.9916 48.4417 -76.8388)" fill="#491014" cx="614.703" cy="333.84" rx="11.17" ry="16.627"/>
	<path fill="#491014" d="M649.105,295.516c0.24,1.114,0.636,2.493,1.761,2.675c0.674,0.109,1.346-0.322,1.714-0.898
		c0.367-0.576,0.488-1.271,0.572-1.949c0.997-8.083-2.527-16.577-8.955-21.58c-1.675-1.303-3.609-2.408-5.726-2.566
		c-2.117-0.159-4.424,0.835-5.297,2.769c-1.921,4.256,3.225,4.997,5.595,6.548c3.326,2.176,6.087,5.227,7.987,8.714
		C647.83,291.2,648.632,293.321,649.105,295.516z"/>
	<path fill="#491014" d="M505.657,256.357c2.591-0.299,5.295-0.309,7.652-1.425c2.357-1.117,4.25-3.814,3.402-6.281
		c-0.501-1.456-1.854-2.499-3.321-2.966c-1.467-0.467-3.045-0.431-4.578-0.284c-9.94,0.955-19.313,6.686-24.694,15.098
		c-0.674,1.054-1.304,2.194-1.395,3.442c-0.07,0.965,0.346,2.659,1.469,2.938c1.062,0.264,1.805-0.924,2.473-1.565
		c1.734-1.662,3.655-3.127,5.708-4.372C496.409,258.495,500.966,256.898,505.657,256.357z"/>
	
		<ellipse transform="matrix(0.9916 0.1296 -0.1296 0.9916 32.4864 -71.6698)" fill="#377C2B" cx="567.014" cy="213.818" rx="211.919" ry="34.842"/>
	<path fill="#377C2B" d="M462.908,191.661l13.574-48.427c0,0-5.698-109.702,0-115.632c5.698-5.93,71.421-13.342,131.213-2.965
		c59.793,10.377,85.938,32.12,87.443,34.591s-32.575,94.877-32.575,94.877l6.37,69.711
		C668.932,223.816,564.703,243.547,462.908,191.661z"/>
	<path fill="#5BA238" d="M615.477,69.976c36.691,2.965,79.66-10.748,79.66-10.748c-1.505-2.471-27.65-24.214-87.443-34.591
		c-59.792-10.377-125.515-2.965-131.213,2.965c0,0,15.211,9.76,34.853,19.025C530.977,55.892,578.787,67.011,615.477,69.976z"/>
	<path fill="#491014" d="M471.512,143.216c0.702-2.159,3.002-3.342,5.155-2.622c15.983,5.344,77.737,25.312,116.203,28.089
		c34.979,2.526,61.551,1.079,71.303,0.346c2.253-0.169,4.194,1.506,4.357,3.759c0.792,10.978,2.856,41.022,2.659,53.444
		c0,0-39.776,14.804-111.181,0c-71.405-14.804-103.278-37.536-103.278-37.536L471.512,143.216z"/>
	<g>
		<circle fill="#491014" cx="461.673" cy="625.668" r="25.802"/>
		<circle fill="#491014" cx="438.488" cy="707.473" r="25.802"/>
		<circle fill="#491014" cx="412.685" cy="800.126" r="25.802"/>
	</g>
	<path fill="#491014" d="M225.22,389.322v-46.944l12.848-15.813l8.401,99.325l85.989,139.046c3.764,6.086,1.68,14.084-4.576,17.559
		l0,0c-5.97,3.317-13.498,1.246-16.931-4.657l-98.084-168.637l-59.298-35.239l-8.895-21.618l54.851,31.443L166.91,333.84
		l6.424-27.535L225.22,389.322z"/>
	<path fill="#491014" d="M787.072,525.708l23.719-65.583l-24.708,18.144l-29.976,72.091l-138.358,87.09
		c-6.057,3.812-7.7,11.911-3.609,17.783l0,0c3.905,5.604,11.576,7.053,17.255,3.259l174.553-116.583l115.04,1.587l-26.754-22
		l-52.311-5.115l45.956-30.701l-30.144-4.942L787.072,525.708z"/>
	<path fill="#491014" d="M472.297,375.98c0,0,9.636,53.863,44.473,75.358c0,0-41.876,14.576-57.568-20.707
		C443.142,394.523,472.297,375.98,472.297,375.98z"/>
	<path fill="#491014" d="M452.407,384.998c0,0,14.083-8.339,31.131,0c0,0-0.178-11.037-15.565-11.037
		C454.374,373.961,452.407,384.998,452.407,384.998z"/>
</g>
</svg>
