<?xml version="1.0" encoding="utf-8"?>
<!-- Generator: Adobe Illustrator 17.0.0, SVG Export Plug-In . SVG Version: 6.00 Build 0)  -->
<!DOCTYPE svg PUBLIC "-//W3C//DTD SVG 1.1//EN" "http://www.w3.org/Graphics/SVG/1.1/DTD/svg11.dtd">
<svg version="1.1" id="Layer_1" xmlns="http://www.w3.org/2000/svg" xmlns:xlink="http://www.w3.org/1999/xlink" x="0px" y="0px"
	 width="1000px" height="1000px" viewBox="0 0 1000 1000" enable-background="new 0 0 1000 1000" xml:space="preserve">
<g>
	<path fill="#F8EEEA" d="M193.194,554.9c0,0-71.199,28.783-74.987,77.26c-3.787,48.476-6.817,148.458,10.604,172.696
		c17.421,24.238,99.982,97.709,265.862,115.131c165.879,17.421,385.537-65.139,387.809-78.774
		c2.273-13.633,31.055-136.339,15.906-182.543c-15.149-46.204-51.293-67.978-51.293-67.978L193.194,554.9z"/>
	<path fill="#F8EEEA" d="M752.958,852.514c0.235,8.905-0.305,18.015-3.597,26.293c-3.292,8.277-9.703,15.679-18.195,18.372
		c-8.491,2.694-18.957-0.336-23.327-8.098c-3.89,10.036-15.476,16.071-26.163,14.793c-10.687-1.278-19.931-10.405-21.345-21.074
		C690.89,876.892,724.413,864.923,752.958,852.514z"/>
	<path fill="#F8EEEA" d="M195.522,853.129c-4.428,6.509-4.423,15.73,0.013,22.233c4.435,6.503,13.019,9.875,20.695,8.127
		c1.129,7.507,2.667,14.46,7.013,20.685c4.345,6.225,11.29,10.979,18.877,11.22c7.733,0.246,15.051-4.202,19.945-10.193
		c4.894-5.992,7.711-13.389,10.032-20.769C245.288,878.894,219.486,866.363,195.522,853.129z"/>
	<path fill="#B01119" d="M488.849,96.143c0,0,86.853-24.237,124.22-32.317c37.368-8.079,69.685,3.029,89.883,71.704
		c20.198,68.675,62.615,245.411,128.26,297.927l-39.387,52.516c0,0-41.407-19.188-58.576-36.357c0,0,10.1,69.684,11.11,110.081
		c1.01,40.397,14.138,84.833,14.138,84.833s-90.892,81.804-323.175,36.357c-232.282-45.446-253.49-63.625-253.49-63.625
		s5.049-149.469,34.337-198.955c29.287-49.485,127.25-162.597,133.309-171.686c6.06-9.089,45.447-112.101,66.655-125.23
		C437.343,108.263,488.849,96.143,488.849,96.143z"/>
	<path fill="#F8EEEA" d="M834.72,405.227c-0.747-8.693,0.867-17.578,4.623-25.452c2.141-4.49,5.114-8.792,9.428-11.267
		c5.215-2.993,12.096-2.806,17.141,0.465c5.045,3.272,8.022,9.479,7.417,15.46c3.839-3.512,10.181-3.845,14.769-1.391
		s7.63,7.268,8.71,12.358c1.08,5.089,0.37,10.425-1.168,15.395c12.53,6.077,24.231,17.67,29.34,30.626
		c5.108,12.956,5.163,27.83,0.151,40.823c7.732,0.564,14.764,6.377,16.619,13.905c1.855,7.528-1.618,16.061-8.203,20.154
		c1.972,6.515,4.73,12.947,4.047,19.72c-0.684,6.772-3.751,13.55-9.315,17.471c-4.721,3.329-10.84,4.312-16.554,3.464
		c-5.714-0.847-11.061-3.398-15.872-6.596c-7.361,8.283-17.361,14.379-28.204,16.667c-10.843,2.287-22.408,1.007-32.488-3.596
		c0.343,5.197-3.743,10.182-8.247,12.796c-8.761,5.084-20.919,3.32-27.875-4.044c-0.639,6.726-5.313,11.383-11.934,12.73
		c-6.621,1.347-13.928-2.066-17.146-8.006c-3.217-5.941-2.082-13.926,2.665-18.734c-3.911,1.204-8.912-1.114-11.71-4.1
		c-2.797-2.986-4.103-7.139-4.299-11.226c-0.475-9.887,5.649-19.765,14.716-23.736c-8.621-22.798-7.689-47.165,3.91-68.601
		C786.841,429.07,810.919,410.482,834.72,405.227z"/>
	<path fill="#700000" d="M733.249,449.616c0,0-41.658-203.752-81.803-256.772c0,0,37.114,118.161,54.535,205.266
		c17.421,87.105,36.063,125.693,36.063,125.693S736.279,463.842,733.249,449.616z"/>
</g>
</svg>
