<svg xmlns="http://www.w3.org/2000/svg" width="678.725" height="465.173" viewBox="0 0 678.725 465.173">
  <title>Dia De Los Muertos</title>
  <g>
    <g>
      <g>
        <g>
          <path d="M108.413,286.533s12.15-15.572,27.848-9.526c18.429,7.1,21.352,22.444,15.394,31.7,0,0,13.805-2.21,23.091,8.958s5.386,23.33-.25,27.9-15.113,8.129-15.113,8.129,6.656,18.568-5.363,25.733-23.731,7.5-31.9-3.729c0,0-22.295,12.006-35.454,1.129s-8.378-26.405-8.378-26.405-17.135-2.81-20.418-17.451,14.543-22.122,14.543-22.122-7.1-16.954,6.189-25.932C93.5,274.85,108.413,286.533,108.413,286.533Z" fill="#429ea8"/>
          <path d="M93.1,356.287a15.943,15.943,0,0,1-2.47-10.874c-3.229-1.024-9.113-3.8-10.63-10.518-1.471-6.559,3.444-11.26,7.324-13.484-1.086-4.16-1.067-10.746,4.752-14.675,6.318-4.268,13.105-2.359,16.935-.147,2.579-2.551,8.627-7.233,16.132-4.342,5.366,2.068,9.112,5.614,10.551,10.013a12.274,12.274,0,0,1,.235,6.932,15.777,15.777,0,0,1,10.851,5.621,13.744,13.744,0,0,1,3.44,10.369,11.421,11.421,0,0,1-3.87,7.7,32.807,32.807,0,0,1-6.934,3.975c.815,3.535,1.639,10.893-4.366,14.471-7.423,4.425-14.212,3.964-18.892-1.2-3.787,1.663-13.374,5-19.9-.4A16.208,16.208,0,0,1,93.1,356.287Zm1.766-13.634.047.069a2.144,2.144,0,0,1,.224,1.753,11.726,11.726,0,0,0,3.841,11.974c5.9,4.877,16.66-.785,16.767-.842a2.135,2.135,0,0,1,2.732.622c3.369,4.639,8.212,5.121,14.391,1.436,4.886-2.913,2.007-11.255,1.975-11.339a2.138,2.138,0,0,1,1.256-2.708,33.6,33.6,0,0,0,7.567-4.049,7.161,7.161,0,0,0,2.313-4.8,9.772,9.772,0,0,0-2.475-7.227,12.1,12.1,0,0,0-10.487-4.093,1.879,1.879,0,0,1-2.121-.939,2.136,2.136,0,0,1-.01-2.32,7.708,7.708,0,0,0,.752-6.6c-1.02-3.155-3.878-5.757-8.028-7.356-6.916-2.666-12.524,4.387-12.58,4.46a2.142,2.142,0,0,1-2.99.372c-.279-.219-6.959-5.26-13.578-.79-5.656,3.82-2.6,11.323-2.568,11.4a2.136,2.136,0,0,1-1.137,2.788c-.324.138-7.951,3.465-6.594,9.508,1.431,6.44,9.206,7.767,9.284,7.779A2.133,2.133,0,0,1,94.862,342.653Z" fill="#f4e6d0"/>
        </g>
        <g>
          <path d="M222.113,368.156s-5.83-17.938,7.345-27.13c15.468-10.791,29.175-4.9,33.315,4.759,0,0,5.629-12.106,19.431-13.486s21.342,8.207,21.942,15.107-1.644,16.305-1.644,16.305,18.252,4.657,17.5,18-6.749,22.788-20,23.249c0,0-2.414,24.061-18.056,28.661s-25.374-7.482-25.374-7.482S245.19,438.2,231.848,432.97s-9.735-23.334-9.735-23.334S204.9,406.2,204.9,390.878C204.9,373.711,222.113,368.156,222.113,368.156Z" fill="#429ea8"/>
          <path d="M269.13,417.56A15.226,15.226,0,0,1,259.2,413.7c-2.537,2.008-7.877,5.182-14.006,2.792-5.977-2.343-7.07-8.745-6.756-13-3.873-1.364-9.075-4.9-9.075-11.6,0-7.282,5.138-11.632,8.936-13.481-.64-3.4-1.114-10.694,5.185-15.088,4.506-3.142,9.314-4.211,13.565-3a11.719,11.719,0,0,1,5.611,3.519,15.066,15.066,0,0,1,10.248-5.583,13.127,13.127,0,0,1,10.045,2.819,10.908,10.908,0,0,1,4.025,7.178,31.343,31.343,0,0,1-.561,7.612c3.233,1.244,9.5,4.525,9.119,11.19-.466,8.24-4.458,13.366-11.044,14.312-.708,3.885-3.193,13.255-10.948,15.533A15.5,15.5,0,0,1,269.13,417.56Zm-9.846-8.685h.079a2.047,2.047,0,0,1,1.508.76A11.2,11.2,0,0,0,272.4,413c7.015-2.064,8.284-13.6,8.3-13.72a2.04,2.04,0,0,1,1.953-1.829c5.472-.187,8.443-3.762,8.828-10.622.307-5.424-7.834-7.6-7.917-7.623a2.042,2.042,0,0,1-1.472-2.442,32.082,32.082,0,0,0,.839-8.152,6.829,6.829,0,0,0-2.565-4.4,9.335,9.335,0,0,0-7.042-1.905,11.559,11.559,0,0,0-8.844,6.112,1.794,1.794,0,0,1-1.877,1.177,2.042,2.042,0,0,1-1.842-1.232,7.357,7.357,0,0,0-4.823-4.124c-3.043-.879-6.63-.008-10.113,2.421-5.806,4.049-3.221,12.257-3.194,12.34a2.045,2.045,0,0,1-1.3,2.565c-.322.1-7.882,2.7-7.882,10.324,0,6.518,7.572,8.108,7.648,8.124a2.039,2.039,0,0,1,1.6,2.39c-.063.33-1.507,8.144,4,10.3,5.861,2.31,11.067-3.134,11.119-3.19A2.039,2.039,0,0,1,259.284,408.875Z" fill="#f4e6d0"/>
        </g>
        <g>
          <g>
            <path d="M19.049,82.01c11.225-25.569,28.9-1.118,28.9-1.118S29.166,20.345,56.563,17.444C71.524,15.86,68.617,38.42,68.074,41.635,73.293,25.524,108.266-9.56,125.245,2.46c17.21,12.087-28.069,62.517-28.069,62.517s40.682-24.469,49.316.836c8.675,25.379-43.5,47.693-43.5,47.693s29.4-5.28,26.56,13.88-25.267,22.5-52.133,42.3C72.6,173.238,59.019,188,54.5,182.43,42.22,167.283,8.169,106.805,19.049,82.01Z" fill="#429ea8"/>
            <path d="M53.6,215.923a2.449,2.449,0,0,0,4.588-1.111c.015-.436,1.52-44.589,7.693-98.275C71.963,63.618,96.723,35.182,96.972,34.9a2.448,2.448,0,0,0-3.66-3.253c-1.06,1.186-26.029,29.766-32.3,84.332-6.2,53.892-7.713,98.23-7.724,98.674A2.4,2.4,0,0,0,53.6,215.923Z" fill="#276a6d"/>
          </g>
          <g>
            <path d="M110.517,8.48a5.973,5.973,0,0,1,5.432-4.01,1.528,1.528,0,0,1,.245.018,1.867,1.867,0,0,1,1.675,2.825,7.781,7.781,0,0,1-5.071,3.54C111.492,11.11,110,9.9,110.517,8.48Z" fill="#276a6d"/>
            <path d="M105.126,8.759a1.423,1.423,0,0,1,.729-.147,1.9,1.9,0,0,1,1.863,1.945,1.842,1.842,0,0,1-.569,1.318l-.185.143a1.457,1.457,0,0,1-.647.4,1.413,1.413,0,0,1-.729.146,1.9,1.9,0,0,1-1.863-1.944,1.839,1.839,0,0,1,.569-1.318l.185-.143A1.439,1.439,0,0,1,105.126,8.759Z" fill="#276a6d"/>
            <path d="M108.446,13.724a2.33,2.33,0,0,0-1.42,1.037,2.163,2.163,0,0,0-.284.82,2.7,2.7,0,0,0,.018.873,1.871,1.871,0,0,0,.881,1.189,1.9,1.9,0,0,0,2.608-.669,1.623,1.623,0,0,0,.068-.148,2.318,2.318,0,0,0,.217-.282,1.921,1.921,0,0,0,.212-1.419,1.943,1.943,0,0,0-.881-1.189A1.964,1.964,0,0,0,108.446,13.724Zm2.058,2.244-.011.069c0-.081,0-.163-.008-.246Z" fill="#276a6d"/>
            <path d="M37.054,77.205c1.87.879,2.076,2.951,1.727,4.869a2.041,2.041,0,0,1-.03.729c-.5,2.246-1.642,6.149-4.72,4.645-2.424-1.185-3.016-4.176-2.209-6.557C32.529,78.8,34.465,75.989,37.054,77.205Z" fill="#276a6d"/>
            <path d="M35.623,97.264a2.77,2.77,0,0,1-3.832,3.706,3.027,3.027,0,0,1-1.408-2.9,4.911,4.911,0,0,1,1.43-2.741,1.852,1.852,0,0,1,1.857-.472A2.854,2.854,0,0,1,35.623,97.264Z" fill="#276a6d"/>
            <path d="M27.045,90.647a2.339,2.339,0,0,1,.317.865c.009.035.02.07.027.105a2.1,2.1,0,0,1-.572,1.963,1.992,1.992,0,0,1-1.376.546,1.953,1.953,0,0,1-1.3-.55,2.018,2.018,0,0,1-.585-.65A2.041,2.041,0,0,1,23.3,91.9a2.165,2.165,0,0,1,.332-1.062,1.9,1.9,0,0,1,.829-.932A1.944,1.944,0,0,1,27.045,90.647Z" fill="#276a6d"/>
          </g>
        </g>
        <g>
          <path d="M244.159,356.66s6.242,19.2-7.864,29.046c-16.559,11.553-31.234,5.248-35.667-5.1,0,0-6.026,12.961-20.8,14.439s-22.849-8.787-23.492-16.175,1.761-17.456,1.761-17.456-19.541-4.986-18.735-19.27,7.226-24.4,21.411-24.89c0,0,2.585-25.76,19.331-30.686s27.166,8.011,27.166,8.011,12.186-12.91,26.47-7.314,10.422,24.981,10.422,24.981,18.43,3.683,18.43,20.083C262.589,350.713,244.159,356.66,244.159,356.66Z" fill="#dd58ad"/>
          <path d="M193.822,303.767a16.3,16.3,0,0,1,10.627,4.13c2.716-2.15,8.434-5.548,14.995-2.989,6.4,2.508,7.57,9.362,7.233,13.922,4.147,1.461,9.716,5.245,9.716,12.424,0,7.795-5.5,12.453-9.567,14.433.686,3.644,1.192,11.448-5.551,16.153-4.824,3.363-9.972,4.508-14.523,3.21a12.544,12.544,0,0,1-6.007-3.768,16.134,16.134,0,0,1-10.972,5.978,14.057,14.057,0,0,1-10.754-3.019,11.68,11.68,0,0,1-4.309-7.685,33.574,33.574,0,0,1,.6-8.149c-3.461-1.332-10.167-4.845-9.762-11.98.5-8.822,4.772-14.31,11.823-15.323.758-4.16,3.419-14.191,11.721-16.63A16.591,16.591,0,0,1,193.822,303.767Zm10.542,9.3h-.086a2.191,2.191,0,0,1-1.613-.814,11.989,11.989,0,0,0-12.343-3.6c-7.51,2.209-8.868,14.565-8.881,14.688a2.184,2.184,0,0,1-2.09,1.959c-5.859.2-9.039,4.027-9.452,11.371-.328,5.808,8.387,8.141,8.477,8.162a2.186,2.186,0,0,1,1.575,2.614,34.381,34.381,0,0,0-.9,8.728,7.309,7.309,0,0,0,2.746,4.709,10,10,0,0,0,7.54,2.039,12.38,12.38,0,0,0,9.469-6.543,1.919,1.919,0,0,1,2.009-1.261,2.186,2.186,0,0,1,1.971,1.32,7.879,7.879,0,0,0,5.165,4.415c3.257.941,7.1.009,10.827-2.593,6.216-4.334,3.448-13.121,3.418-13.211a2.19,2.19,0,0,1,1.4-2.746c.345-.11,8.438-2.886,8.438-11.052,0-6.978-8.106-8.681-8.187-8.7A2.183,2.183,0,0,1,222.135,320c.068-.354,1.613-8.72-4.284-11.027-6.275-2.474-11.848,3.355-11.9,3.414A2.18,2.18,0,0,1,204.364,313.066Z" fill="#f4e6d0"/>
        </g>
        <g>
          <path d="M115.634,207.1s6.242,19.2-7.864,29.046C91.21,247.7,76.536,241.4,72.1,231.054c0,0-6.027,12.961-20.8,14.439s-22.849-8.786-23.492-16.175,1.76-17.456,1.76-17.456-19.54-4.986-18.734-19.27,7.226-24.4,21.411-24.89c0,0,2.584-25.76,19.331-30.685s27.166,8.01,27.166,8.01,12.186-12.91,26.47-7.314S115.634,162.7,115.634,162.7s18.43,3.682,18.43,20.082C134.064,201.157,115.634,207.1,115.634,207.1Z" fill="#dd58ad"/>
          <path d="M65.3,154.211a16.3,16.3,0,0,1,10.627,4.129c2.716-2.15,8.434-5.547,14.995-2.988,6.4,2.507,7.57,9.362,7.233,13.922,4.147,1.46,9.716,5.245,9.716,12.423,0,7.8-5.5,12.453-9.567,14.433.686,3.645,1.192,11.449-5.552,16.153-4.823,3.364-9.971,4.509-14.522,3.21a12.544,12.544,0,0,1-6.007-3.768A16.13,16.13,0,0,1,61.248,217.7a14.055,14.055,0,0,1-10.755-3.019A11.678,11.678,0,0,1,46.185,207a33.52,33.52,0,0,1,.6-8.149c-3.461-1.333-10.167-4.845-9.762-11.981.5-8.822,4.772-14.309,11.823-15.323.758-4.159,3.419-14.19,11.721-16.63A16.583,16.583,0,0,1,65.3,154.211Zm10.542,9.3h-.086a2.194,2.194,0,0,1-1.613-.813A11.99,11.99,0,0,0,61.8,159.1c-7.51,2.21-8.868,14.565-8.881,14.689a2.183,2.183,0,0,1-2.09,1.958c-5.859.2-9.039,4.028-9.452,11.372-.328,5.807,8.387,8.14,8.477,8.162a2.186,2.186,0,0,1,1.575,2.614,34.374,34.374,0,0,0-.9,8.728,7.311,7.311,0,0,0,2.746,4.709,10,10,0,0,0,7.54,2.039,12.375,12.375,0,0,0,9.468-6.544,1.921,1.921,0,0,1,2.01-1.26,2.185,2.185,0,0,1,1.971,1.32,7.881,7.881,0,0,0,5.165,4.415c3.257.941,7.1.008,10.826-2.593,6.216-4.334,3.449-13.122,3.419-13.211a2.19,2.19,0,0,1,1.4-2.746c.345-.111,8.438-2.887,8.438-11.053,0-6.978-8.106-8.681-8.187-8.7a2.183,2.183,0,0,1-1.712-2.559c.069-.353,1.614-8.719-4.283-11.027-6.275-2.473-11.848,3.355-11.9,3.415A2.183,2.183,0,0,1,75.839,163.509Z" fill="#f4e6d0"/>
        </g>
        <g>
          <g>
            <path d="M226.963,308.929c-6.262,14.091-42.273,17.223-42.273,17.223s4.212,7.014,4.181,14a11.861,11.861,0,0,1-4.181,9.488c-9.394,7.828-26.8,7.828-36.01,7.828s-26.617,0-36.011-7.828a11.863,11.863,0,0,1-4.18-9.488c-.031-6.983,4.18-14,4.18-14s-2.176-.188-5.573-.689c-10.349-1.519-31.971-5.918-36.7-16.534-3.225-7.249-5.605-23.547-6.106-39.815-.062-1.784-.094-3.554-.094-5.323-.015-2.818.032-5.605.126-8.314.093-1.988.2-3.929.36-5.808.657-7.907,1.988-14.718,4.149-19.023,3.522-7.046,14.294-13.778,27.665-19.039q2.49-.986,5.073-1.878,4.462-1.575,9.143-2.9a161.1,161.1,0,0,1,26.131-5.229,109.254,109.254,0,0,1,11.837-.705,107.658,107.658,0,0,1,12.134.736c27.305,3.069,60.936,15.453,67.715,29.012C236.357,246.3,233.226,294.838,226.963,308.929Z" fill="#f4e6d0"/>
            <g>
              <g>
                <circle cx="118.931" cy="277.42" r="16.831" fill="#2d1b18"/>
                <path d="M127.542,276.226q-2.833,0-5.667-.016,2.013-2,4.024-4a1.219,1.219,0,0,0-1.723-1.722q-2,2-4.019,4,.011-2.837.016-5.674a1.219,1.219,0,0,0-2.436,0q0,2.833-.015,5.667-2-2.013-4-4.023A1.219,1.219,0,0,0,112,272.176q2,2,4,4.018-2.837-.011-5.674-.016a1.219,1.219,0,0,0,0,2.436q2.834,0,5.668.016-2.014,2-4.024,4a1.219,1.219,0,0,0,1.723,1.723q2-2,4.018-4c-.006,1.892-.015,3.783-.016,5.674a1.219,1.219,0,0,0,2.436,0q0-2.834.016-5.667,2,2.013,4,4.023a1.219,1.219,0,0,0,1.723-1.722q-2-2-4-4.019,2.838.011,5.674.016A1.219,1.219,0,0,0,127.542,276.226Z" fill="#dd58ad"/>
              </g>
              <g>
                <circle cx="178.427" cy="277.42" r="16.831" fill="#2d1b18"/>
                <path d="M187.038,276.226q-2.834,0-5.667-.016,2.013-2,4.023-4a1.218,1.218,0,0,0-1.722-1.722q-2.005,2-4.019,4,.011-2.837.016-5.674a1.219,1.219,0,0,0-2.436,0q0,2.833-.016,5.667-2-2.013-4-4.023a1.219,1.219,0,0,0-1.723,1.723q2,2,4,4.018-2.838-.011-5.674-.016a1.219,1.219,0,0,0,0,2.436q2.834,0,5.667.016-2.013,2-4.023,4a1.219,1.219,0,0,0,1.722,1.723q2-2,4.019-4-.011,2.838-.016,5.674a1.219,1.219,0,0,0,2.436,0q0-2.834.016-5.667,2,2.013,4,4.023a1.218,1.218,0,0,0,1.722-1.722q-2-2-4-4.019,2.836.011,5.674.016A1.219,1.219,0,0,0,187.038,276.226Z" fill="#dd58ad"/>
              </g>
            </g>
            <path d="M148.868,286.227c-13.067,3.267-9.394,20.354-6.263,23.485s15.657,1.566,17.222-1.565S155.13,284.661,148.868,286.227Z" fill="#2d1b18"/>
            <path d="M188.871,340.149a11.861,11.861,0,0,1-4.181,9.488c-9.394,7.828-26.8,7.828-36.01,7.828s-26.617,0-36.011-7.828a11.863,11.863,0,0,1-4.18-9.488c1.487-3.163,3.789-6.7,6.717-7.375,5.48-1.252,13.057,3.32,15.343,7.782a32.037,32.037,0,0,1,2.9,9.676s8.47-7.015,15.234-5.48c6.779-1.535,15.234,5.48,15.234,5.48a32.053,32.053,0,0,1,2.9-9.676c2.3-4.462,9.864-9.034,15.359-7.782C185.1,333.448,187.383,336.986,188.871,340.149Z" fill="#eab847"/>
          </g>
          <path d="M164.915,320.7a52.77,52.77,0,0,1-9.2,2.479c-.15-1.094-.265-2.2-.334-3.31-.129-2.114-3.438-2.129-3.307,0,.077,1.266.206,2.521.377,3.768a51.645,51.645,0,0,1-6.685.3c0-1.556.011-3.112.036-4.668.034-2.13-3.274-2.13-3.308,0-.024,1.5-.033,3-.035,4.5a51.721,51.721,0,0,1-7.924-1.292c-2.067-.506-2.949,2.683-.879,3.189a55.785,55.785,0,0,0,8.816,1.412c.014,1.559.036,3.119.074,4.679.052,2.125,3.36,2.132,3.308,0-.037-1.5-.058-3-.073-4.506a55.088,55.088,0,0,0,7.23-.343,47.473,47.473,0,0,0,1.257,4.815c.644,2.021,3.839,1.157,3.189-.879q-.7-2.184-1.169-4.4a54.44,54.44,0,0,0,9.509-2.551C167.775,323.164,166.919,319.966,164.915,320.7Z" fill="#2d1b18"/>
        </g>
        <g>
          <path d="M15.945,263.667s-5.4-16.615,6.8-25.129c14.326-10,27.022-4.54,30.857,4.408,0,0,5.213-11.213,18-12.491s19.768,7.6,20.323,13.993-1.523,15.1-1.523,15.1,16.906,4.313,16.208,16.671-6.251,21.107-18.523,21.533c0,0-2.236,22.286-16.724,26.547s-23.5-6.93-23.5-6.93-10.543,11.168-22.9,6.327-9.016-21.612-9.016-21.612S0,298.9,0,284.712C0,268.811,15.945,263.667,15.945,263.667Z" fill="#eab847"/>
          <path d="M59.493,309.426a14.106,14.106,0,0,1-9.194-3.573c-2.35,1.86-7.3,4.8-12.972,2.586-5.536-2.17-6.549-8.1-6.258-12.045-3.588-1.263-8.406-4.538-8.406-10.748,0-6.744,4.759-10.773,8.277-12.486-.593-3.153-1.032-9.905,4.8-13.975,4.173-2.909,8.626-3.9,12.564-2.777a10.864,10.864,0,0,1,5.2,3.26A13.951,13.951,0,0,1,63,254.5a12.158,12.158,0,0,1,9.3,2.611,10.1,10.1,0,0,1,3.727,6.648,29.014,29.014,0,0,1-.519,7.05c2.994,1.153,8.8,4.192,8.446,10.365-.431,7.632-4.129,12.38-10.229,13.256-.656,3.6-2.958,12.277-10.14,14.387A14.347,14.347,0,0,1,59.493,309.426Zm-9.12-8.045h.074a1.9,1.9,0,0,1,1.4.7A10.368,10.368,0,0,0,62.52,305.2c6.5-1.911,7.673-12.6,7.684-12.707a1.888,1.888,0,0,1,1.808-1.694c5.069-.174,7.82-3.485,8.177-9.839.284-5.024-7.256-7.042-7.333-7.06a1.891,1.891,0,0,1-1.363-2.262,29.752,29.752,0,0,0,.777-7.551,6.333,6.333,0,0,0-2.376-4.074,8.649,8.649,0,0,0-6.523-1.764,10.707,10.707,0,0,0-8.191,5.661A1.662,1.662,0,0,1,53.441,265a1.891,1.891,0,0,1-1.705-1.142,6.821,6.821,0,0,0-4.468-3.82c-2.818-.814-6.14-.007-9.367,2.243-5.377,3.75-2.983,11.352-2.958,11.43a1.893,1.893,0,0,1-1.208,2.375c-.3.1-7.3,2.5-7.3,9.562,0,6.037,7.013,7.511,7.083,7.525A1.889,1.889,0,0,1,35,295.385c-.059.306-1.4,7.543,3.7,9.54,5.429,2.14,10.251-2.9,10.3-2.954A1.888,1.888,0,0,1,50.373,301.381Z" fill="#f4e6d0"/>
        </g>
      </g>
      <g>
        <g>
          <path d="M570.312,286.533s-12.149-15.572-27.847-9.526c-18.43,7.1-21.352,22.444-15.395,31.7,0,0-13.8-2.21-23.091,8.958s-5.386,23.33.251,27.9,15.112,8.129,15.112,8.129-6.655,18.568,5.364,25.733,23.731,7.5,31.895-3.729c0,0,22.294,12.006,35.454,1.129s8.378-26.405,8.378-26.405,17.135-2.81,20.418-17.451-14.543-22.122-14.543-22.122,7.1-16.954-6.19-25.932C585.221,274.85,570.312,286.533,570.312,286.533Z" fill="#429ea8"/>
          <path d="M582.467,359.734c-6.522,5.394-16.109,2.06-19.895.4-4.681,5.16-11.469,5.621-18.892,1.2-6-3.578-5.181-10.936-4.367-14.471a32.8,32.8,0,0,1-6.933-3.975,11.422,11.422,0,0,1-3.871-7.7,13.75,13.75,0,0,1,3.441-10.369,15.775,15.775,0,0,1,10.851-5.621,12.274,12.274,0,0,1,.234-6.932c1.439-4.4,5.185-7.945,10.552-10.013,7.5-2.891,13.553,1.791,16.132,4.342,3.83-2.212,10.616-4.121,16.935.147,5.818,3.929,5.838,10.515,4.751,14.675,3.88,2.224,8.8,6.925,7.325,13.484-1.518,6.719-7.4,9.494-10.631,10.518a15.943,15.943,0,0,1-2.47,10.874A16.208,16.208,0,0,1,582.467,359.734Zm2.815-17.992c.079-.012,7.854-1.339,9.284-7.779,1.358-6.043-6.269-9.37-6.593-9.508a2.135,2.135,0,0,1-1.137-2.788c.03-.075,3.087-7.578-2.569-11.4-6.618-4.47-13.3.571-13.577.79a2.143,2.143,0,0,1-2.991-.372c-.056-.073-5.664-7.126-12.579-4.46-4.15,1.6-7.008,4.2-8.029,7.356a7.708,7.708,0,0,0,.752,6.6,2.138,2.138,0,0,1-.009,2.32,1.88,1.88,0,0,1-2.122.939,12.1,12.1,0,0,0-10.487,4.093,9.78,9.78,0,0,0-2.475,7.227,7.157,7.157,0,0,0,2.314,4.8,33.6,33.6,0,0,0,7.566,4.049,2.139,2.139,0,0,1,1.257,2.708c-.032.084-2.912,8.426,1.975,11.339,6.179,3.685,11.022,3.2,14.391-1.436a2.135,2.135,0,0,1,2.732-.622c.107.057,10.865,5.719,16.767.842a11.727,11.727,0,0,0,3.84-11.974,2.144,2.144,0,0,1,.224-1.753l.047-.069A2.135,2.135,0,0,1,585.282,341.742Z" fill="#f4e6d0"/>
        </g>
        <g>
          <path d="M456.612,368.156s5.83-17.938-7.345-27.13c-15.467-10.791-29.174-4.9-33.315,4.759,0,0-5.629-12.106-19.431-13.486s-21.342,8.207-21.942,15.107,1.644,16.305,1.644,16.305-18.252,4.657-17.5,18,6.749,22.788,20,23.249c0,0,2.414,24.061,18.056,28.661s25.375-7.482,25.375-7.482,11.382,12.058,24.724,6.832,9.734-23.334,9.734-23.334,17.215-3.44,17.215-18.758C473.827,373.711,456.612,368.156,456.612,368.156Z" fill="#429ea8"/>
          <path d="M405.177,416.9c-7.754-2.278-10.24-11.648-10.948-15.533-6.585-.946-10.578-6.072-11.043-14.312-.378-6.665,5.885-9.946,9.119-11.19a31.293,31.293,0,0,1-.561-7.612,10.911,10.911,0,0,1,4.024-7.178,13.127,13.127,0,0,1,10.045-2.819,15.066,15.066,0,0,1,10.248,5.583,11.727,11.727,0,0,1,5.612-3.519c4.251-1.213,9.058-.144,13.564,3,6.3,4.394,5.826,11.684,5.186,15.088,3.8,1.849,8.935,6.2,8.935,13.481,0,6.7-5.2,10.24-9.075,11.6.315,4.259-.779,10.661-6.756,13-6.128,2.39-11.469-.784-14.006-2.792a15.221,15.221,0,0,1-9.926,3.857A15.5,15.5,0,0,1,405.177,416.9Zm15.744-7.389c.052.056,5.257,5.5,11.119,3.19,5.508-2.156,4.064-9.97,4-10.3a2.04,2.04,0,0,1,1.6-2.39c.076-.016,7.647-1.606,7.647-8.124,0-7.628-7.56-10.22-7.882-10.324A2.046,2.046,0,0,1,436.1,379c.028-.083,2.613-8.291-3.193-12.34-3.484-2.429-7.071-3.3-10.113-2.421a7.358,7.358,0,0,0-4.824,4.124,2.042,2.042,0,0,1-1.841,1.232,1.793,1.793,0,0,1-1.877-1.177,11.564,11.564,0,0,0-8.844-6.112,9.338,9.338,0,0,0-7.043,1.905,6.829,6.829,0,0,0-2.565,4.4,32.131,32.131,0,0,0,.839,8.152,2.041,2.041,0,0,1-1.471,2.442c-.084.02-8.224,2.2-7.918,7.623.386,6.86,3.356,10.435,8.828,10.622a2.04,2.04,0,0,1,1.953,1.829c.012.116,1.28,11.656,8.3,13.72a11.2,11.2,0,0,0,11.529-3.36,2.044,2.044,0,0,1,1.507-.76h.08A2.043,2.043,0,0,1,420.921,409.511Z" fill="#f4e6d0"/>
        </g>
        <g>
          <g>
            <path d="M659.677,82.01c-11.226-25.569-28.9-1.118-28.9-1.118s18.785-60.547-8.613-63.448C607.2,15.86,610.109,38.42,610.651,41.635,605.432,25.524,570.46-9.56,553.481,2.46c-17.21,12.087,28.068,62.517,28.068,62.517s-40.681-24.469-49.315.836c-8.676,25.379,43.5,47.693,43.5,47.693s-29.4-5.28-26.56,13.88,25.266,22.5,52.132,42.3c4.822,3.555,18.4,18.321,22.921,12.747C636.506,167.283,670.556,106.805,659.677,82.01Z" fill="#429ea8"/>
            <path d="M625.129,215.923a2.449,2.449,0,0,1-4.588-1.111c-.015-.436-1.521-44.589-7.694-98.275C606.762,63.618,582,35.182,581.754,34.9a2.448,2.448,0,0,1,3.659-3.253c1.06,1.186,26.029,29.766,32.3,84.332,6.2,53.892,7.713,98.23,7.723,98.674A2.4,2.4,0,0,1,625.129,215.923Z" fill="#276a6d"/>
          </g>
          <g>
            <path d="M568.209,8.48a5.973,5.973,0,0,0-5.433-4.01,1.524,1.524,0,0,0-.244.018,1.867,1.867,0,0,0-1.675,2.825,7.776,7.776,0,0,0,5.071,3.54C567.234,11.11,568.731,9.9,568.209,8.48Z" fill="#276a6d"/>
            <path d="M573.6,8.759a1.422,1.422,0,0,0-.728-.147,1.9,1.9,0,0,0-1.863,1.945,1.838,1.838,0,0,0,.569,1.318l.185.143a1.446,1.446,0,0,0,.647.4,1.411,1.411,0,0,0,.728.146A1.9,1.9,0,0,0,575,10.619a1.839,1.839,0,0,0-.569-1.318l-.185-.143A1.434,1.434,0,0,0,573.6,8.759Z" fill="#276a6d"/>
            <path d="M568.86,13.936a1.9,1.9,0,0,0-.669,2.608,2.326,2.326,0,0,0,.218.282,1.61,1.61,0,0,0,.067.148,1.9,1.9,0,0,0,2.609.669,1.873,1.873,0,0,0,.88-1.189,2.643,2.643,0,0,0,.018-.873,2.146,2.146,0,0,0-.284-.82,2.331,2.331,0,0,0-1.419-1.037A1.967,1.967,0,0,0,568.86,13.936Zm-.619,1.855q-.01.125-.009.246l-.01-.069Z" fill="#276a6d"/>
            <path d="M641.672,77.205c-1.87.879-2.077,2.951-1.727,4.869a2,2,0,0,0,.03.729c.5,2.246,1.642,6.149,4.719,4.645,2.424-1.185,3.016-4.176,2.21-6.557C646.2,78.8,644.26,75.989,641.672,77.205Z" fill="#276a6d"/>
            <path d="M643.1,97.264a2.77,2.77,0,0,0,3.832,3.706,3.026,3.026,0,0,0,1.409-2.9,4.917,4.917,0,0,0-1.43-2.741,1.853,1.853,0,0,0-1.857-.472A2.856,2.856,0,0,0,643.1,97.264Z" fill="#276a6d"/>
            <path d="M651.68,90.647a2.375,2.375,0,0,0-.317.865c-.009.035-.019.07-.026.105a2.1,2.1,0,0,0,.572,1.963,1.988,1.988,0,0,0,1.375.546,1.953,1.953,0,0,0,1.3-.55,2.033,2.033,0,0,0,.848-1.674,2.145,2.145,0,0,0-.332-1.062,1.9,1.9,0,0,0-.828-.932A1.945,1.945,0,0,0,651.68,90.647Z" fill="#276a6d"/>
          </g>
        </g>
        <g>
          <path d="M434.566,356.66s-6.242,19.2,7.864,29.046c16.56,11.553,31.235,5.248,35.668-5.1,0,0,6.026,12.961,20.8,14.439s22.85-8.787,23.492-16.175-1.76-17.456-1.76-17.456,19.541-4.986,18.734-19.27-7.225-24.4-21.41-24.89c0,0-2.585-25.76-19.332-30.686s-27.166,8.011-27.166,8.011-12.186-12.91-26.47-7.314-10.422,24.981-10.422,24.981-18.43,3.683-18.43,20.083C416.136,350.713,434.566,356.66,434.566,356.66Z" fill="#dd58ad"/>
          <path d="M489.634,304.474c8.3,2.439,10.963,12.47,11.721,16.63,7.05,1.013,11.325,6.5,11.823,15.323.4,7.135-6.3,10.648-9.763,11.98a33.474,33.474,0,0,1,.6,8.149,11.678,11.678,0,0,1-4.308,7.685,14.059,14.059,0,0,1-10.755,3.019,16.131,16.131,0,0,1-10.971-5.978,12.547,12.547,0,0,1-6.008,3.768c-4.551,1.3-9.7.153-14.522-3.21-6.744-4.7-6.237-12.509-5.552-16.153-4.066-1.98-9.566-6.638-9.566-14.433,0-7.179,5.568-10.963,9.715-12.424-.336-4.56.835-11.414,7.234-13.922,6.561-2.559,12.278.839,15,2.989a16.3,16.3,0,0,1,10.626-4.13A16.6,16.6,0,0,1,489.634,304.474Zm-16.856,7.91c-.055-.059-5.628-5.888-11.9-3.414-5.9,2.307-4.351,10.673-4.283,11.027a2.183,2.183,0,0,1-1.712,2.559c-.08.017-8.187,1.72-8.187,8.7,0,8.166,8.094,10.942,8.439,11.052a2.19,2.19,0,0,1,1.4,2.746c-.03.09-2.8,8.877,3.419,13.211,3.729,2.6,7.57,3.534,10.827,2.593a7.879,7.879,0,0,0,5.164-4.415,2.188,2.188,0,0,1,1.971-1.32,1.921,1.921,0,0,1,2.01,1.261,12.38,12.38,0,0,0,9.469,6.543,10,10,0,0,0,7.54-2.039,7.318,7.318,0,0,0,2.746-4.709,34.362,34.362,0,0,0-.9-8.728,2.186,2.186,0,0,1,1.576-2.614c.089-.021,8.8-2.354,8.476-8.162-.412-7.344-3.593-11.171-9.451-11.371a2.184,2.184,0,0,1-2.091-1.959c-.012-.123-1.371-12.479-8.881-14.688a11.988,11.988,0,0,0-12.342,3.6,2.193,2.193,0,0,1-1.614.814h-.085A2.183,2.183,0,0,1,472.778,312.384Z" fill="#f4e6d0"/>
        </g>
        <g>
          <path d="M563.091,207.1s-6.241,19.2,7.864,29.046c16.56,11.554,31.235,5.249,35.668-5.095,0,0,6.026,12.961,20.8,14.439s22.849-8.786,23.491-16.175-1.76-17.456-1.76-17.456,19.541-4.986,18.734-19.27-7.225-24.4-21.41-24.89c0,0-2.585-25.76-19.332-30.685s-27.166,8.01-27.166,8.01-12.186-12.91-26.47-7.314S563.091,162.7,563.091,162.7s-18.43,3.682-18.43,20.082C544.661,201.157,563.091,207.1,563.091,207.1Z" fill="#dd58ad"/>
          <path d="M618.159,154.917c8.3,2.44,10.963,12.471,11.721,16.63,7.05,1.014,11.325,6.5,11.823,15.323.4,7.136-6.3,10.648-9.763,11.981a33.517,33.517,0,0,1,.6,8.149,11.675,11.675,0,0,1-4.309,7.684,14.055,14.055,0,0,1-10.755,3.019,16.13,16.13,0,0,1-10.971-5.978,12.549,12.549,0,0,1-6.007,3.768c-4.552,1.3-9.7.154-14.523-3.21-6.744-4.7-6.237-12.508-5.552-16.153-4.066-1.98-9.566-6.637-9.566-14.433,0-7.178,5.568-10.963,9.715-12.423-.336-4.56.835-11.415,7.234-13.922,6.561-2.559,12.279.838,15,2.988a16.3,16.3,0,0,1,10.627-4.129A16.593,16.593,0,0,1,618.159,154.917ZM601.3,162.828c-.055-.06-5.628-5.888-11.9-3.415-5.9,2.308-4.351,10.674-4.283,11.027A2.182,2.182,0,0,1,583.405,173c-.081.017-8.188,1.72-8.188,8.7,0,8.166,8.094,10.942,8.439,11.053a2.189,2.189,0,0,1,1.4,2.746c-.03.089-2.8,8.877,3.419,13.211,3.73,2.6,7.57,3.534,10.827,2.593a7.882,7.882,0,0,0,5.164-4.415,2.186,2.186,0,0,1,1.971-1.32,1.921,1.921,0,0,1,2.01,1.26,12.38,12.38,0,0,0,9.469,6.544,10,10,0,0,0,7.54-2.039,7.32,7.32,0,0,0,2.746-4.709,34.423,34.423,0,0,0-.9-8.728,2.185,2.185,0,0,1,1.575-2.614c.089-.022,8.8-2.355,8.477-8.162-.413-7.344-3.594-11.172-9.452-11.372a2.184,2.184,0,0,1-2.091-1.958c-.012-.124-1.37-12.479-8.881-14.689a11.988,11.988,0,0,0-12.342,3.6,2.2,2.2,0,0,1-1.614.813h-.085A2.186,2.186,0,0,1,601.3,162.828Z" fill="#f4e6d0"/>
        </g>
        <g>
          <g>
            <path d="M451.762,308.929c6.263,14.091,42.273,17.223,42.273,17.223s-4.211,7.014-4.18,14a11.863,11.863,0,0,0,4.18,9.488c9.394,7.828,26.805,7.828,36.011,7.828s26.616,0,36.01-7.828a11.857,11.857,0,0,0,4.18-9.488c.032-6.983-4.18-14-4.18-14s2.176-.188,5.574-.689c10.349-1.519,31.971-5.918,36.7-16.534,3.225-7.249,5.605-23.547,6.106-39.815.063-1.784.094-3.554.094-5.323.016-2.818-.031-5.605-.125-8.314-.094-1.988-.2-3.929-.36-5.808-.658-7.907-1.989-14.718-4.149-19.023-3.523-7.046-14.295-13.778-27.666-19.039q-2.488-.986-5.072-1.878-4.462-1.575-9.144-2.9a161.1,161.1,0,0,0-26.131-5.229,109.236,109.236,0,0,0-11.836-.705,107.644,107.644,0,0,0-12.134.736c-27.306,3.069-60.936,15.453-67.715,29.012C442.368,246.3,445.5,294.838,451.762,308.929Z" fill="#f4e6d0"/>
            <g>
              <g>
                <circle cx="559.794" cy="277.42" r="16.831" fill="#2d1b18"/>
                <path d="M551.183,276.226q2.833,0,5.667-.016-2.013-2-4.023-4a1.218,1.218,0,0,1,1.722-1.722q2.005,2,4.019,4-.01-2.837-.016-5.674a1.219,1.219,0,0,1,2.436,0q0,2.833.016,5.667,2-2.013,4-4.023a1.219,1.219,0,0,1,1.722,1.723q-2,2-4,4.018,2.838-.011,5.674-.016a1.219,1.219,0,0,1,0,2.436q-2.833,0-5.667.016,2.013,2,4.023,4a1.219,1.219,0,0,1-1.722,1.723q-2-2-4.019-4,.011,2.838.016,5.674a1.219,1.219,0,0,1-2.436,0q0-2.834-.016-5.667-2,2.013-4,4.023a1.218,1.218,0,0,1-1.722-1.722q2-2,4-4.019-2.836.011-5.674.016A1.219,1.219,0,0,1,551.183,276.226Z" fill="#dd58ad"/>
              </g>
              <g>
                <circle cx="500.299" cy="277.42" r="16.831" fill="#2d1b18"/>
                <path d="M491.688,276.226q2.834,0,5.667-.016-2.013-2-4.023-4a1.218,1.218,0,0,1,1.722-1.722q2,2,4.019,4-.01-2.837-.016-5.674a1.219,1.219,0,0,1,2.436,0q0,2.833.015,5.667,2-2.013,4-4.023a1.219,1.219,0,0,1,1.722,1.723q-2,2-4,4.018,2.837-.011,5.674-.016a1.219,1.219,0,0,1,0,2.436q-2.834,0-5.667.016,2.013,2,4.023,4a1.219,1.219,0,0,1-1.723,1.723q-2-2-4.018-4,.01,2.838.016,5.674a1.219,1.219,0,0,1-2.436,0q0-2.834-.016-5.667-2,2.013-4,4.023a1.219,1.219,0,0,1-1.723-1.722q2-2,4-4.019-2.838.011-5.674.016A1.219,1.219,0,0,1,491.688,276.226Z" fill="#dd58ad"/>
              </g>
            </g>
            <path d="M529.858,286.227c13.066,3.267,9.394,20.354,6.262,23.485s-15.656,1.566-17.222-1.565S523.6,284.661,529.858,286.227Z" fill="#2d1b18"/>
            <path d="M489.855,340.149a11.863,11.863,0,0,0,4.18,9.488c9.394,7.828,26.805,7.828,36.011,7.828s26.616,0,36.01-7.828a11.857,11.857,0,0,0,4.18-9.488c-1.487-3.163-3.788-6.7-6.716-7.375-5.48-1.252-13.058,3.32-15.344,7.782a32.053,32.053,0,0,0-2.9,9.676s-8.471-7.015-15.234-5.48c-6.78-1.535-15.234,5.48-15.234,5.48a32.037,32.037,0,0,0-2.9-9.676c-2.3-4.462-9.863-9.034-15.359-7.782C493.628,333.448,491.342,336.986,489.855,340.149Z" fill="#eab847"/>
          </g>
          <path d="M513.81,320.7a52.794,52.794,0,0,0,9.2,2.479c.151-1.094.266-2.2.334-3.31.13-2.114,3.439-2.129,3.308,0-.078,1.266-.207,2.521-.377,3.768a51.629,51.629,0,0,0,6.684.3q0-2.334-.035-4.668c-.035-2.13,3.273-2.13,3.307,0q.036,2.247.036,4.5a51.729,51.729,0,0,0,7.923-1.292c2.068-.506,2.95,2.683.88,3.189a55.8,55.8,0,0,1-8.816,1.412q-.021,2.339-.075,4.679c-.051,2.125-3.359,2.132-3.307,0q.054-2.255.073-4.506a55.071,55.071,0,0,1-7.23-.343,47.739,47.739,0,0,1-1.257,4.815c-.645,2.021-3.839,1.157-3.19-.879q.7-2.184,1.169-4.4a54.453,54.453,0,0,1-9.508-2.551C510.95,323.164,511.807,319.966,513.81,320.7Z" fill="#2d1b18"/>
        </g>
        <g>
          <path d="M662.781,263.667s5.4-16.615-6.8-25.129c-14.327-10-27.022-4.54-30.857,4.408,0,0-5.214-11.213-18-12.491s-19.768,7.6-20.324,13.993,1.523,15.1,1.523,15.1-16.9,4.313-16.208,16.671,6.251,21.107,18.523,21.533c0,0,2.236,22.286,16.724,26.547s23.5-6.93,23.5-6.93,10.542,11.168,22.9,6.327,9.016-21.612,9.016-21.612,15.944-3.186,15.944-17.374C678.725,268.811,662.781,263.667,662.781,263.667Z" fill="#eab847"/>
          <path d="M615.141,308.814c-7.183-2.11-9.485-10.788-10.141-14.387-6.1-.876-9.8-5.624-10.228-13.256-.35-6.173,5.451-9.212,8.446-10.365a29.011,29.011,0,0,1-.52-7.05,10.105,10.105,0,0,1,3.728-6.648,12.155,12.155,0,0,1,9.3-2.611,13.955,13.955,0,0,1,9.492,5.171,10.859,10.859,0,0,1,5.2-3.26c3.937-1.123,8.391-.132,12.564,2.777,5.834,4.07,5.4,10.822,4.8,13.975,3.517,1.713,8.276,5.742,8.276,12.486,0,6.21-4.818,9.485-8.4,10.748.291,3.945-.722,9.875-6.258,12.045-5.676,2.213-10.623-.726-12.973-2.586a14.1,14.1,0,0,1-9.193,3.573A14.342,14.342,0,0,1,615.141,308.814Zm14.582-6.843c.048.051,4.869,5.094,10.3,2.954,5.1-2,3.765-9.234,3.706-9.54a1.889,1.889,0,0,1,1.48-2.214c.07-.014,7.083-1.488,7.083-7.525,0-7.064-7-9.466-7.3-9.562a1.894,1.894,0,0,1-1.208-2.375c.026-.078,2.42-7.68-2.958-11.43-3.226-2.25-6.549-3.057-9.366-2.243a6.816,6.816,0,0,0-4.468,3.82A1.893,1.893,0,0,1,625.284,265a1.662,1.662,0,0,1-1.738-1.091,10.709,10.709,0,0,0-8.192-5.661,8.651,8.651,0,0,0-6.523,1.764,6.333,6.333,0,0,0-2.376,4.074,29.752,29.752,0,0,0,.777,7.551,1.891,1.891,0,0,1-1.362,2.262c-.078.018-7.617,2.036-7.334,7.06.357,6.354,3.109,9.665,8.177,9.839a1.889,1.889,0,0,1,1.809,1.694c.011.107,1.186,10.8,7.683,12.707a10.371,10.371,0,0,0,10.678-3.112,1.9,1.9,0,0,1,1.4-.7h.074A1.888,1.888,0,0,1,629.723,301.971Z" fill="#f4e6d0"/>
        </g>
      </g>
    </g>
    <g>
      <path d="M305.238,465.141c25.889.065,73.158.294,78.728-2.665,7.26-3.858,5.1-10.678-1.271-13.954s-53.787-1.383-71.219-2.04-21.486,5.564-21.265,11.771C290.391,463.32,298.016,465.123,305.238,465.141Z" fill="#f46a53"/>
      <g>
        <path d="M378.862,379.979c0,4.675-.014,9.32-.058,13.864-.014,3.039-.043,6.049-.072,8.987-.044,3.806-.087,7.511-.159,11.071-.087,5.543-.2,10.723-.362,15.412-.13,4.081-.275,7.8-.434,11.028-.434,8.162-1,13.27-1.679,13.7-3.907,2.475-49.406,3.387-56.251,1.911s-21.042,1.476-21.042-1.911c0-.81-.029-6.063-.073-13.907,0-3.357-.029-7.192-.043-11.346-.015-4.7-.029-9.812-.043-15.152-.015-3.69-.029-7.481-.029-11.316,0-2.866-.015-5.76-.015-8.64-.014-4.385-.014-8.741-.014-12.967,0-6.888.014-13.444.043-19.218.043-6.3.1-11.679.174-15.572.115-5.484.014-11.78-.044-18.219-.173-21.679.116-45.08,10.319-45.413,7.785-.246,63.545-3.444,67.018,6.31,1.042,2.894,1.794,18.48,2.258,39,.231,10.449.39,22.2.463,34.2C378.862,367.837,378.876,373.945,378.862,379.979Z" fill="#f4e6d0"/>
        <g>
          <path d="M307.054,344.249c0,3.212-4.443,19.015-7.28,18.133a2.809,2.809,0,0,1-1.143-.883c.043-6.3.1-11.679.174-15.572.115-5.484.014-11.78-.044-18.219a2.276,2.276,0,0,1,1.129-.3C303.1,327.4,307.054,339.965,307.054,344.249Z" fill="#dd58ad"/>
          <path d="M325.81,327.4c-4.374,0-7.4,13.476-7.218,17.5.17,3.877,4.248,16.581,7.091,17.469s7.282-14.921,7.285-18.124C332.973,339.96,329.013,327.407,325.81,327.4Z" fill="#dd58ad"/>
          <path d="M351.724,327.4c-4.373,0-7.395,13.476-7.218,17.5.171,3.877,4.249,16.581,7.092,17.469s7.281-14.921,7.285-18.124C358.888,339.96,354.928,327.407,351.724,327.4Z" fill="#dd58ad"/>
          <path d="M378.819,361.8c-.449.492-.9.709-1.3.579-2.851-.9-6.917-13.589-7.091-17.468-.188-4.037,2.837-17.51,7.207-17.51a1.57,1.57,0,0,1,.724.2C378.587,338.055,378.746,349.806,378.819,361.8Z" fill="#dd58ad"/>
        </g>
      </g>
      <g>
        <path d="M335.838,264.168l.157,10.06c.019,1.245-.689,5.089.761,5.916,3.165,1.8,1.931-7.486,1.911-8.311-.027-1.113.848-10.579-1.949-9.182-1.2.6-.573,3.45-.585,4.474L336,278.57a.616.616,0,0,0,1.038.429c1.362-1.094,1.146-3.119,1.255-4.719.232-3.428.279-6.857.2-10.291a.608.608,0,0,0-1.216,0c.053,2.36.055,4.718-.034,7.078-.066,1.751.338,5.944-1.066,7.073l1.038.43.121-10.269c.009-.784.032-1.569.027-2.353,0-.614-.048-1.743-.068-.482-.031,1.9.094,3.828.141,5.731a33.646,33.646,0,0,1,.126,5.093c-.333,2.458-.338-1.29-.35-2.062l-.157-10.06a.608.608,0,0,0-1.216,0Z" fill="#2d1b18"/>
        <path d="M297.7,286.669c-1.963,5.555-2.968,20.813,3.072,21.1s9.938-.679,13.39-5.856,6.328-8.629,9.779-8.629,2.589,7.478,6.616,8.341,7.766.875,10.355-2.295,6.261-8.635,9.171-8.347,10.963,4.314,14.99,4.89,12.637.287,13.941-4.315a10.64,10.64,0,0,0-6.748-12.7c-5.753-2.013-50.454-2.114-63.569.669C301.76,281,298.766,283.645,297.7,286.669Z" fill="#429ea8"/>
        <path d="M331.878,272.291c-7.864-2.415-12.924-1.206-15.149-7.277s-1.236-15.219,0-18.185-1.9-9.641-1.323-15.821,7.587-13.844,10.141-19.777,5.9-16.562,10.655-17.057,9.247,10.63,10.956,15.327,5.911,16.3,8.383,23.724,4.944,11.873,3.213,20.031-1.924,12.36-6.153,15.821S335.9,273.527,331.878,272.291Z" fill="#eab847"/>
        <path d="M334.185,272.507c-4.538-1.394-7.457-.7-8.741-4.2a18.454,18.454,0,0,1,0-10.493c.713-1.712-1.1-5.564-.764-9.13s4.378-7.989,5.852-11.412,3.405-9.558,6.148-9.843,5.336,6.134,6.322,8.844,3.411,9.406,4.838,13.69,2.853,6.852,1.854,11.559-1.11,7.133-3.551,9.13S336.507,273.22,334.185,272.507Z" fill="#f46a53"/>
      </g>
      <path d="M378.862,379.979c0,4.675-.014,9.32-.058,13.864-17.814.188-60.434-.029-80.2-.159-.014-4.385-.014-8.741-.014-12.967a27.1,27.1,0,0,1,16.743-3.343c8.625,1.3,14.414,6.107,21.115,6.947s13.2-7.786,25.875-7.207A56.359,56.359,0,0,1,378.862,379.979Z" fill="#429ea8"/>
      <path d="M378.732,402.83c-.044,3.806-.087,7.511-.159,11.071-17.96.492-67.12.231-79.927-.261-.015-3.69-.029-7.481-.029-11.316C311.959,402.584,363.377,402.135,378.732,402.83Z" fill="#eab847"/>
      <path d="M378.211,429.313c-.13,4.081-.275,7.8-.434,11.028-16.947.492-64.284.275-79.045-.2,0-3.357-.029-7.192-.043-11.346C314.145,429.009,364.347,428.6,378.211,429.313Z" fill="#eab847"/>
    </g>
  </g>
</svg>
