<svg xmlns="http://www.w3.org/2000/svg" width="454.588" height="253.662" viewBox="0 0 454.588 253.662">
  <title>Dia De Los Muertos</title>
  <g>
    <path d="M315.165,119c-2.645-25.79-15.871-39.677-45.628-46.629s-42.243,34.064-42.243,34.064-12.485-41.016-42.243-34.064S142.067,93.205,139.422,119s29.017,53.564,43.936,67.451a64.735,64.735,0,0,0,87.872,0C286.148,172.559,317.811,144.785,315.165,119Z" fill="#dd58ad"/>
    <g>
      <g>
        <path d="M238.392,248.734c7.628,9.749,45.139,4.427,88.028-10.624s73.876-58.433,75.646-77.91-15.629-32.267-35.911-21.655c-25.32,13.249-48.181,41.754-75,62.455C261.49,223.891,230.61,238.788,238.392,248.734Z" fill="#429ea8"/>
        <path d="M336.082,134.634c9.862,4.218,33.192-24.214,41.171-44.84s20.6-70.464-11.127-85.589C345.761-5.5,326.062,1.469,321.28,26.5c-6.139,32.123,25.1,29.535,30.053,42.9C357.156,85.1,326.288,130.445,336.082,134.634Z" fill="#eab847"/>
        <path d="M386.584,103.327c10.754-19.235,29.077-54.025,48.306-54.94S458.24,70.82,448.625,87.3s-43.036,27.47-53.566,29.3S381.234,112.9,386.584,103.327Z" fill="#dd58ad"/>
        <path d="M425.364,122.6c-13.849,4.541-14.738,18.864-10.93,27.326,7.027,15.614,28.106,17.176,37.085,6.246S449.177,114.789,425.364,122.6Z" fill="#eab847"/>
      </g>
      <g>
        <path d="M216.2,248.734c-7.628,9.749-45.139,4.427-88.028-10.624S54.292,179.677,52.521,160.2s15.629-32.267,35.912-21.655c25.32,13.249,48.181,41.754,75,62.455C193.1,223.891,223.977,238.788,216.2,248.734Z" fill="#429ea8"/>
        <path d="M118.506,134.634c-9.863,4.218-33.192-24.214-41.171-44.84S56.735,19.33,88.461,4.205C108.827-5.5,128.526,1.469,133.308,26.5c6.138,32.123-25.1,29.535-30.053,42.9C97.432,85.1,128.3,130.445,118.506,134.634Z" fill="#eab847"/>
        <path d="M68,103.327C57.25,84.092,38.926,49.3,19.7,48.387S-3.652,70.82,5.962,87.3,49,114.772,59.529,116.6,73.353,112.9,68,103.327Z" fill="#dd58ad"/>
        <path d="M29.223,122.6c13.85,4.541,14.738,18.864,10.931,27.326-7.027,15.614-28.107,17.176-37.085,6.246S5.411,114.789,29.223,122.6Z" fill="#eab847"/>
      </g>
    </g>
  </g>
</svg>
