<svg xmlns="http://www.w3.org/2000/svg" width="266.193" height="583.042" viewBox="0 0 266.193 583.042">
  <title>Dia De Los Muertos</title>
  <g>
    <g>
      <rect x="113.809" y="70.268" width="38.548" height="241.925" fill="#dd58ad"/>
      <g>
        <path d="M250.047,532.066c-.08.08-.12.2-.2.28-16.16,25.32-43.48,38.16-67.68,44.48-24.44,6.48-45.72,6.4-49.08,6.12-5.36.44-55.64.4-92.28-25.4-.56-.4-1.12-.8-1.64-1.2a88.636,88.636,0,0,1-22.72-23.84,1.776,1.776,0,0,1-.32-.44c-1.16-1.84-2.24-3.68-3.24-5.56a103.272,103.272,0,0,1-8.92-21.96,112.032,112.032,0,0,1-3.96-28.72c-.48-42.68,22.28-86.44,62.44-106.96,0,0-.32-1-.76-2.8q-.3-1.08-.6-2.52c-.08-.28-.12-.56-.2-.88-2.36-10.92-6.08-34.84-.32-59.76,5.8-25.32,27.68-41.68,50.44-48.2a79.977,79.977,0,0,1,22.08-3.24c29.16,0,64.8,17.84,72.52,51.44,7.84,33.92-1.88,65.96-1.88,65.96,27.56,14.08,46.92,39.08,56.2,67.16C270.447,467.866,268.087,503.626,250.047,532.066Z" fill="#429ea8"/>
        <rect x="99.49" width="67.188" height="97.727" rx="5.897" ry="5.897" fill="#eab847"/>
        <path d="M195.45,416.927c0,6.3-8.8,11.125-10.647,16.807-1.912,5.888,2.3,14.955-1.263,19.856-3.6,4.95-13.552,3.724-18.5,7.326-4.9,3.567-6.789,13.428-12.677,15.34-5.682,1.845-12.981-4.963-19.277-4.963s-13.6,6.808-19.278,4.963c-5.888-1.912-7.777-11.774-12.678-15.341-4.95-3.6-14.9-2.376-18.5-7.326-3.567-4.9.649-13.968-1.263-19.856-1.844-5.681-10.646-10.51-10.646-16.806s8.8-11.125,10.647-16.807c1.912-5.888-2.3-14.955,1.263-19.856,3.6-4.95,13.552-3.724,18.5-7.326,4.9-3.567,6.789-13.428,12.677-15.34,5.682-1.845,12.981,4.962,19.278,4.962s13.6-6.807,19.277-4.962c5.889,1.912,7.777,11.773,12.678,15.34,4.95,3.6,14.9,2.377,18.5,7.327,3.567,4.9-.649,13.967,1.263,19.856C186.648,405.8,195.45,410.63,195.45,416.927Z" fill="#f4e6d0"/>
        <circle cx="133.084" cy="416.927" r="44.553" fill="#2e1b18"/>
        <rect x="87.673" y="494.345" width="90.822" height="33.026" rx="4.128" ry="4.128" fill="#eab847"/>
      </g>
      <g>
        <g>
          <circle cx="92.717" cy="34.652" r="8.722" fill="#429ea8"/>
          <circle cx="92.717" cy="62.055" r="8.722" fill="#429ea8"/>
        </g>
        <g>
          <circle cx="173.45" cy="34.652" r="8.722" fill="#429ea8"/>
          <circle cx="173.45" cy="62.055" r="8.722" fill="#429ea8"/>
        </g>
      </g>
    </g>
    <g>
      <path d="M122,263.962c0,11.423-10.258,16.086-23.916,15.664-9.81-.3-23.68,8.72-27.52,23s.36,34.52,0,46c-.24,7.44-5.36,12.36-9,14.92-2.36-10.48-6.44-35.04-.52-60.64,5.8-25.32,27.68-41.68,50.44-48.2C118.273,254.706,122,260.682,122,263.962Z" fill="#276a6d"/>
      <path d="M90.16,292.345c-9.621,3.168-12.467,9.289-12.222,17.111s7.578,8.067,12.222,4.889,8.556-7.822,9.778-12.955S95.376,290.627,90.16,292.345Z" fill="#eab847"/>
      <path d="M77.927,336.826c-.56,13.36-8.8,24.24-15.76,29.24q-.3-1.08-.6-2.52c-.08-.28-.12-.56-.2-.88a20.858,20.858,0,0,0,4.84-7.08c2.76-6.72,2.16-17.76,1.36-25.28-.76-7.52,1.2-11.64,4.96-12.24S78.287,328.346,77.927,336.826Z" fill="#eab847"/>
      <path d="M88.042,321.594c-4.529,1.3-7.013,7.561-4.822,10.519s8.986,1.1,11.835-2.082S95.274,319.512,88.042,321.594Z" fill="#eab847"/>
      <path d="M21.894,480.875a12.884,12.884,0,0,1-5.379-1.25C9.388,476.352,4.06,467.652,5.956,462.387a9.274,9.274,0,0,1,8.352-6.34,11.529,11.529,0,0,1,10.777,6.121,2,2,0,1,1-3.578,1.789,7.583,7.583,0,0,0-6.963-3.914,5.252,5.252,0,0,0-4.826,3.695c-1.08,3,2.984,9.735,8.465,12.25,3.115,1.43,7.574,1.832,11.1-4.394,6.377-11.266,3.91-16.746.789-23.684a60.739,60.739,0,0,1-2.74-6.844c-4.486-14.269-3.166-25.9,3.926-34.57,5.865-7.172,18.552-8.367,25.978-4.652,5.2,2.6,7.412,7.211,6.071,12.644-1.692,6.84-4.243,10.914-7.8,12.446-4.072,1.754-8.51-.286-11.494-1.969a6.787,6.787,0,0,1-3.629-4.957c-.766-4.977,4.084-10.34,4.638-10.934a2,2,0,0,1,2.928,2.727c-1.066,1.148-4.015,5.008-3.613,7.6a2.8,2.8,0,0,0,1.644,2.078c3.565,2.016,6.094,2.571,7.944,1.782,2.3-.992,4.148-4.266,5.5-9.735.892-3.609-.446-6.339-3.979-8.1-5.82-2.914-16.533-1.953-21.092,3.6-6.183,7.563-7.261,17.938-3.205,30.84a57.394,57.394,0,0,0,2.573,6.4c3.156,7.011,6.42,14.265-.957,27.293C30.058,478.352,26.194,480.875,21.894,480.875Z" fill="#f4e6d0"/>
      <path d="M56.044,395.641a24.256,24.256,0,0,1-9.461-2,2,2,0,0,1,1.7-3.621c.074.035,7.846,3.582,14.3.054a6.627,6.627,0,0,0,3.793-6.707c-.23-2.125-1.463-3.918-2.994-4.363a4.1,4.1,0,0,0-3.471.469,3.82,3.82,0,0,0-1.668,2.73c-.054.535.006.93.162,1.063a4.167,4.167,0,0,0,2.774.082,2.017,2.017,0,0,1,2.445,1.418,2,2,0,0,1-1.4,2.445c-.678.18-4.164,1-6.4-.891a4.916,4.916,0,0,1-1.558-4.519,7.758,7.758,0,0,1,3.412-5.645,8.029,8.029,0,0,1,6.822-1c3.094.9,5.447,4.024,5.856,7.774a10.633,10.633,0,0,1-5.856,10.656A17.485,17.485,0,0,1,56.044,395.641Z" fill="#f4e6d0"/>
      <path d="M37.645,435.381c-2.208,4.048,1.885,22.613,6.91,23.241a5.964,5.964,0,0,0,7.119-6.072C51.674,449.619,40.158,430.775,37.645,435.381Z" fill="#eab847"/>
      <path d="M44.353,430.565c-.939,2.558,6.319,10.176,10.671,9.767,3.72-.35,3.361-4.124,1.058-6.543S45.2,428.262,44.353,430.565Z" fill="#eab847"/>
      <path d="M14.32,435.052c-6.607,2.986-6.085,12.473-1.217,14.734s9.714-.421,10.41-4.092S22.817,431.212,14.32,435.052Z" fill="#276a6d"/>
      <path d="M11.767,496.506a12.884,12.884,0,0,1-7.32,8.04,112.032,112.032,0,0,1-3.96-28.72,19.134,19.134,0,0,1,7.72,3.4C13.687,483.466,13.887,490.066,11.767,496.506Z" fill="#276a6d"/>
    </g>
    <g>
      <path d="M144.674,263.962c0,11.423,10.258,16.086,23.916,15.664,9.81-.3,23.68,8.72,27.52,23s-.36,34.52,0,46c.24,7.44,5.36,12.36,9,14.92,2.36-10.48,6.44-35.04.52-60.64-5.8-25.32-27.68-41.68-50.44-48.2C148.4,254.706,144.674,260.682,144.674,263.962Z" fill="#276a6d"/>
      <path d="M176.517,292.345c9.621,3.168,12.467,9.289,12.222,17.111s-7.577,8.067-12.222,4.889-8.556-7.822-9.778-12.955S171.3,290.627,176.517,292.345Z" fill="#eab847"/>
      <path d="M188.75,336.826c.56,13.36,8.8,24.24,15.76,29.24q.3-1.08.6-2.52c.08-.28.12-.56.2-.88a20.858,20.858,0,0,1-4.84-7.08c-2.76-6.72-2.16-17.76-1.36-25.28.76-7.52-1.2-11.64-4.96-12.24S188.39,328.346,188.75,336.826Z" fill="#eab847"/>
      <path d="M178.635,321.594c4.529,1.3,7.013,7.561,4.822,10.519s-8.986,1.1-11.835-2.082S171.4,319.512,178.635,321.594Z" fill="#eab847"/>
      <path d="M244.784,480.875c-4.3,0-8.164-2.523-10.873-7.312-7.377-13.028-4.113-20.282-.957-27.293a57.634,57.634,0,0,0,2.572-6.4c4.055-12.906,2.975-23.285-3.209-30.844-4.554-5.566-15.259-6.531-21.089-3.6-3.532,1.766-4.87,4.5-3.977,8.1,1.352,5.469,3.2,8.743,5.5,9.735,1.852.789,4.377.234,7.941-1.782a2.8,2.8,0,0,0,1.645-2.082c.4-2.613-2.545-6.457-3.609-7.6a2,2,0,0,1,2.925-2.727c.555.594,5.405,5.957,4.637,10.934a6.789,6.789,0,0,1-3.629,4.957c-2.982,1.687-7.424,3.726-11.492,1.969-3.559-1.532-6.109-5.606-7.8-12.446-1.342-5.433.869-10.043,6.07-12.644,7.426-3.715,20.11-2.52,25.975,4.652,7.092,8.668,8.414,20.3,3.93,34.57a60.928,60.928,0,0,1-2.74,6.844c-3.122,6.938-5.588,12.418.789,23.684,3.527,6.23,7.984,5.828,11.1,4.394,5.481-2.515,9.545-9.246,8.465-12.25a5.252,5.252,0,0,0-4.826-3.695,7.615,7.615,0,0,0-6.965,3.914,2,2,0,1,1-3.578-1.789,11.554,11.554,0,0,1,10.779-6.121,9.274,9.274,0,0,1,8.352,6.34c1.9,5.265-3.432,13.965-10.559,17.238A12.9,12.9,0,0,1,244.784,480.875Z" fill="#f4e6d0"/>
      <path d="M210.634,395.641a17.485,17.485,0,0,1-8.449-2.055,10.633,10.633,0,0,1-5.856-10.656c.408-3.75,2.762-6.875,5.858-7.774a8.014,8.014,0,0,1,6.82,1,7.764,7.764,0,0,1,3.412,5.649,4.91,4.91,0,0,1-1.559,4.515c-2.24,1.9-5.724,1.075-6.4.891a2,2,0,1,1,1.051-3.859,4.193,4.193,0,0,0,2.765-.086c.157-.133.217-.528.162-1.059a3.812,3.812,0,0,0-1.669-2.734A4.014,4.014,0,0,0,203.3,379c-1.533.445-2.766,2.238-3,4.363a6.627,6.627,0,0,0,3.793,6.707c6.5,3.551,14.216-.015,14.291-.05a2,2,0,1,1,1.7,3.617A24.252,24.252,0,0,1,210.634,395.641Z" fill="#f4e6d0"/>
      <path d="M229.032,435.381c2.208,4.048-1.884,22.613-6.91,23.241A5.964,5.964,0,0,1,215,452.55C215,449.619,226.519,430.775,229.032,435.381Z" fill="#eab847"/>
      <path d="M222.324,430.565c.939,2.558-6.319,10.176-10.671,9.767-3.72-.35-3.361-4.124-1.058-6.543S221.479,428.262,222.324,430.565Z" fill="#eab847"/>
      <path d="M252.357,435.052c6.607,2.986,6.085,12.473,1.217,14.734s-9.714-.421-10.41-4.092S243.86,431.212,252.357,435.052Z" fill="#276a6d"/>
      <path d="M254.91,496.506a12.884,12.884,0,0,0,7.32,8.04,112.032,112.032,0,0,0,3.96-28.72,19.134,19.134,0,0,0-7.72,3.4C252.99,483.466,252.79,490.066,254.91,496.506Z" fill="#276a6d"/>
    </g>
    <g>
      <path d="M230.087,519.226c-27.16-3.2-48.12,32-48.12,32s-20.183-7.76-48.4-7.76-48.4,7.76-48.4,7.76-20.96-35.2-48.12-32c-11.96,1.4-19.28,4.4-23.68,7.28,1,1.88,2.08,3.72,3.24,5.56a1.776,1.776,0,0,0,.32.44c32.56,50.76,109.92,51,116.64,50.44,6.72.56,84.08.32,116.64-50.44a1.776,1.776,0,0,0,.32-.44c1.16-1.84,2.24-3.68,3.24-5.56C249.367,523.626,242.047,520.626,230.087,519.226Z" fill="#f4e6d0"/>
      <path d="M249.847,532.346c-16.16,25.32-43.48,38.16-67.68,44.48-24.44,6.48-45.72,6.4-49.08,6.12-5.36.44-55.64.4-92.28-25.4-.56-.4-1.12-.8-1.64-1.2a93.246,93.246,0,0,1-22.24-23.84c4.48-2.2,10.92-4.2,20.12-5.28,27.16-3.2,48.12,32,48.12,32s20.2-7.76,48.4-7.76,48.4,7.76,48.4,7.76,20.96-35.2,48.12-32C239.047,528.266,245.407,530.186,249.847,532.346Z" fill="#dd58ad"/>
      <path d="M206.853,560.037c4.894,2.6,22.171-13.68,20.048-19.105s-7.785-3.3-11.44,0S202.171,557.552,206.853,560.037Z" fill="#276a6d"/>
      <path d="M137.175,577.637a2,2,0,0,1-1.774-2.922c.246-.477,6.209-11.684,19.7-12.5,7.477-.406,11.965,1.848,13.389,6.832a5.948,5.948,0,0,1-.971,5.328,7.229,7.229,0,0,1-5.683,2.793c-2.82,0-4.194-1.145-4.85-2.1a5.67,5.67,0,0,1-.377-4.933,2,2,0,0,1,3.727,1.453,1.817,1.817,0,0,0-.045,1.227c.094.132.523.355,1.545.355a3.251,3.251,0,0,0,2.49-1.2,1.947,1.947,0,0,0,.316-1.817c-.375-1.324-1.269-4.445-9.3-3.941-11.258.68-16.346,10.254-16.4,10.352A2,2,0,0,1,137.175,577.637Z" fill="#f4e6d0"/>
      <path d="M178.054,573.52a66.941,66.941,0,0,1-11.727-1.118,2,2,0,0,1,.758-3.929c4.644.894,17.764,2.351,22.574-1.6a12.422,12.422,0,0,0,4.293-11.437,2,2,0,0,1,3.922-.789,16.448,16.448,0,0,1-5.676,15.312C188.806,572.75,183.2,573.52,178.054,573.52Z" fill="#f4e6d0"/>
      <path d="M203.687,543.027c2.4,2,.584,5.844-1.169,6.721s-4.383.292-4.383-2.338S201.057,540.835,203.687,543.027Z" fill="#f4e6d0"/>
    </g>
    <g>
      <rect x="112.948" y="25.93" width="2.688" height="484.93" fill="#2e1b18"/>
      <rect x="125.507" y="25.93" width="2.688" height="484.93" fill="#2e1b18"/>
      <rect x="138.067" y="25.93" width="2.688" height="484.93" fill="#2e1b18"/>
      <rect x="150.626" y="25.93" width="2.688" height="484.93" fill="#2e1b18"/>
    </g>
    <g>
      <path d="M60.282,560.037c-4.895,2.6-22.171-13.68-20.049-19.105s7.786-3.3,11.441,0S64.964,557.552,60.282,560.037Z" fill="#276a6d"/>
      <path d="M129.958,577.633a2.007,2.007,0,0,1-1.775-1.07c-.207-.395-5.213-9.68-16.4-10.356-8.053-.516-8.924,2.617-9.3,3.941a1.95,1.95,0,0,0,.317,1.817,3.251,3.251,0,0,0,2.49,1.2c1.021,0,1.451-.223,1.545-.355a1.84,1.84,0,0,0-.053-1.247,2,2,0,0,1,3.735-1.433,5.674,5.674,0,0,1-.377,4.933c-.657.957-2.03,2.1-4.85,2.1a7.232,7.232,0,0,1-5.684-2.793,5.948,5.948,0,0,1-.97-5.328c1.425-4.981,5.927-7.234,13.388-6.832,13.494.816,19.457,12.023,19.7,12.5a2,2,0,0,1-.851,2.691A1.946,1.946,0,0,1,129.958,577.633Z" fill="#f4e6d0"/>
      <path d="M89.081,573.52c-5.144,0-10.752-.77-14.144-3.563a16.448,16.448,0,0,1-5.676-15.312,2,2,0,0,1,3.922.789,12.424,12.424,0,0,0,4.293,11.437c4.818,3.953,17.925,2.492,22.572,1.6a2,2,0,0,1,.758,3.929A66.921,66.921,0,0,1,89.081,573.52Z" fill="#f4e6d0"/>
      <path d="M63.448,543.027c-2.4,2-.585,5.844,1.168,6.721S69,550.04,69,547.41,66.078,540.835,63.448,543.027Z" fill="#f4e6d0"/>
    </g>
    <path d="M133.567,555.877c-3.392,0-7.129,3.407-5.944,6.584s5.944,7.607,5.944,7.607,4.76-4.43,5.945-7.607S136.959,555.877,133.567,555.877Z" fill="#276a6d"/>
  </g>
</svg>
