<svg xmlns="http://www.w3.org/2000/svg" width="183.559" height="505.97" viewBox="0 0 183.559 505.97">
  <title>Dia De Los Muertos</title>
  <g>
    <path d="M28.07,505.911c48.334.122,136.583.548,146.981-4.976,13.554-7.2,9.529-19.935-2.373-26.051S72.26,472.3,39.716,471.076-.4,481.463.016,493.051C.352,502.51,14.587,505.877,28.07,505.911Z" fill="#f46a53"/>
    <g>
      <path d="M165.523,346.918c0,8.727-.027,17.4-.108,25.883-.027,5.674-.081,11.294-.135,16.778-.081,7.106-.163,14.022-.3,20.669-.162,10.348-.378,20.02-.675,28.774-.243,7.619-.513,14.563-.811,20.588-.81,15.238-1.864,24.775-3.134,25.586-7.294,4.62-92.239,6.322-105.018,3.566S16.06,491.518,16.06,485.2c0-1.513-.054-11.321-.135-25.965,0-6.268-.054-13.428-.081-21.182-.027-8.781-.054-18.318-.081-28.287-.028-6.89-.055-13.969-.055-21.128,0-5.35-.027-10.753-.027-16.13-.027-8.186-.027-16.319-.027-24.208,0-12.861.027-25.1.081-35.88.082-11.753.19-21.8.325-29.071.216-10.24.027-21.993-.081-34.016-.325-40.472.216-84.16,19.263-84.782,14.536-.459,118.636-6.43,125.12,11.78,1.945,5.4,3.35,34.5,4.215,72.813.432,19.507.73,41.446.865,63.844C165.523,324.25,165.55,335.652,165.523,346.918Z" fill="#f4e6d0"/>
      <g>
        <path d="M31.46,280.211c0,6-8.3,35.5-13.59,33.853a5.233,5.233,0,0,1-2.135-1.648c.082-11.753.19-21.8.325-29.071.216-10.24.027-21.993-.081-34.016a4.257,4.257,0,0,1,2.107-.567C24.084,248.762,31.46,272.214,31.46,280.211Z" fill="#dd58ad"/>
        <path d="M66.477,248.762C58.312,248.754,52.67,273.923,53,281.444c.318,7.238,7.931,30.956,13.239,32.614s13.6-27.857,13.6-33.837C79.851,272.2,72.457,248.769,66.477,248.762Z" fill="#dd58ad"/>
        <path d="M114.858,248.762c-8.165-.008-13.807,25.161-13.476,32.682.319,7.238,7.932,30.956,13.24,32.614s13.594-27.857,13.6-33.837C128.232,272.2,120.839,248.769,114.858,248.762Z" fill="#dd58ad"/>
        <path d="M165.442,312.984c-.838.918-1.675,1.323-2.432,1.08-5.322-1.675-12.915-25.369-13.239-32.61-.351-7.538,5.3-32.692,13.455-32.692a2.929,2.929,0,0,1,1.351.378C165.009,268.647,165.307,290.586,165.442,312.984Z" fill="#dd58ad"/>
      </g>
    </g>
    <g>
      <path d="M85.2,130.705l.293,18.78c.036,2.325-1.286,9.5,1.421,11.045,5.908,3.367,3.606-13.976,3.568-15.515-.052-2.079,1.582-19.75-3.638-17.142-2.235,1.116-1.072,6.441-1.094,8.352L85.5,157.591a1.15,1.15,0,0,0,1.938.8c2.542-2.044,2.139-5.824,2.342-8.81.434-6.4.521-12.8.376-19.215a1.136,1.136,0,0,0-2.27,0c.1,4.407.1,8.81-.064,13.215-.123,3.27.63,11.1-1.989,13.2l1.938.8.224-19.17c.018-1.463.061-2.929.052-4.393-.007-1.147-.09-3.254-.128-.9-.058,3.554.176,7.145.264,10.7.075,3.037.642,6.5.235,9.51-.622,4.588-.632-2.409-.654-3.851l-.292-18.78a1.136,1.136,0,0,0-2.271,0Z" fill="#2d1b18"/>
      <path d="M13.992,172.713c-3.664,10.37-5.542,38.857,5.735,39.394s18.554-1.267,25-10.933,11.814-16.11,18.258-16.11,4.833,13.962,12.351,15.573,14.5,1.633,19.332-4.285,11.69-16.121,17.122-15.584,20.468,8.055,27.986,9.129,23.592.537,26.026-8.055a19.863,19.863,0,0,0-12.6-23.718c-10.74-3.759-94.195-3.947-118.681,1.25C21.578,162.121,15.988,167.066,13.992,172.713Z" fill="#429ea8"/>
      <path d="M77.806,145.87c-14.682-4.51-24.128-2.251-28.282-13.587s-2.307-28.412,0-33.95-3.556-18-2.47-29.537S61.218,42.951,65.986,31.875,77,.953,85.878.03s17.264,19.845,20.454,28.614,11.036,30.43,15.651,44.291,9.23,22.168,6,37.4-3.593,23.076-11.488,29.537S85.319,148.177,77.806,145.87Z" fill="#eab847"/>
      <path d="M82.113,146.272c-8.472-2.6-13.923-1.3-16.32-7.84s-1.331-16.395,0-19.591-2.052-10.387-1.425-17.045,8.173-14.914,10.925-21.305S81.65,62.647,86.772,62.115s9.962,11.451,11.8,16.511,6.369,17.56,9.032,25.559,5.326,12.792,3.462,21.58-2.073,13.316-6.63,17.045S86.449,147.6,82.113,146.272Z" fill="#f46a53"/>
    </g>
    <path d="M165.523,346.918c0,8.727-.027,17.4-.108,25.883-33.259.351-112.827-.054-149.734-.3-.027-8.186-.027-16.319-.027-24.208,9.025-4.836,19.913-7.943,31.26-6.241,16.1,2.431,26.91,11.4,39.42,12.968,12.509,1.595,24.64-14.535,48.307-13.454C147.691,342.163,157.769,344.108,165.523,346.918Z" fill="#429ea8"/>
    <path d="M165.28,389.579c-.081,7.106-.163,14.022-.3,20.669-33.529.918-125.308.432-149.219-.486-.028-6.89-.055-13.969-.055-21.128C40.619,389.12,136.613,388.282,165.28,389.579Z" fill="#eab847"/>
    <path d="M164.307,439.022c-.243,7.619-.513,14.563-.811,20.588-31.638.918-120.013.513-147.571-.379,0-6.268-.054-13.428-.081-21.182C44.7,438.455,138.424,437.7,164.307,439.022Z" fill="#eab847"/>
  </g>
</svg>
