<?xml version="1.0" encoding="UTF-8"?>
<svg id="Capa_1" xmlns="http://www.w3.org/2000/svg" version="1.1" viewBox="0 0 427.4 108">
  <!-- Generator: Adobe Illustrator 29.1.0, SVG Export Plug-In . SVG Version: 2.1.0 Build 142)  -->
  <defs>
    <style>
      .st0 {
        fill: #fff;
      }

      .st1 {
        fill: #ff8300;
      }
    </style>
  </defs>
  <polygon class="st1" points="117.2 87.5 117.2 87.5 117 88.3 120.3 88.3 136.6 22.6 136.6 22.6 137.5 19 134.2 19 117.2 87.5"/>
  <g>
    <path class="st0" d="M185.3,73.4h-30.9v-38.6h30.1v9.2h-19.4v5.5h18.3v8.9h-18.3v5.8h20.1v9.2Z"/>
    <path class="st0" d="M209.6,34.7h10.2v38.6h-9l-.4-2.9c-2.3,2.6-6,3.6-9,3.4-8-.5-12.5-5.5-12.5-14.1s5.3-14.2,13.2-14.2,6.1,1.1,7.6,2.9v-13.7ZM198.9,59.7c0,3.8,2.4,6,5.5,6s5.5-2.8,5.5-5.7-1.9-6.3-5.5-6.3-5.5,2.2-5.5,6Z"/>
    <path class="st0" d="M235.3,46.1v15.1c0,3.4,1.9,4.5,3.8,4.5s4.7-1.5,4.7-5.1v-14.5h10v27.3h-9l-.4-3c-2.3,2.7-5.7,3.7-8.6,3.6-5.7,0-10.6-3.1-10.6-12.8v-15.1h10.2Z"/>
    <path class="st0" d="M284.8,69.3c-3.3,2.9-7.2,4.6-11.3,4.6-7.9,0-15.4-3.9-15.4-14.1s7.6-14.3,15.3-14.3,7.8,1.4,10.7,4.2l-5.4,5.8c-1.3-1.4-2.9-2-4.7-2-3.9,0-6,2.8-6,6.2s2,5.6,5.9,5.6,3.7-.8,5.1-2.3l5.8,6.1Z"/>
    <path class="st0" d="M313.9,56.2v17.2h-9.2l-.4-2.8c-1.9,2.2-4.4,3.3-7.4,3.3-6.6,0-10.3-3.8-10.3-9.8s5.8-8.8,11.8-8.8,3.7.3,5.5.9c-.2-2.5-2.5-3.3-5.2-3.3s-7.3,1.2-8.8,1.8l-1.3-6.7c3.5-1.7,7.3-2.5,10.5-2.5,8.3,0,15,1.9,15,10.8ZM299.5,66.3c1.5,0,4-.9,4.4-3.5-.9-.5-2.7-1.1-4.5-1.1s-3.1.8-3.1,2.3,1.8,2.3,3.1,2.3Z"/>
    <path class="st0" d="M344.5,69.3c-3.3,2.9-7.2,4.6-11.3,4.6-7.9,0-15.4-3.9-15.4-14.1s7.6-14.3,15.3-14.3,7.8,1.4,10.7,4.2l-5.4,5.8c-1.3-1.4-2.9-2-4.7-2-3.9,0-6,2.8-6,6.2s2,5.6,5.9,5.6,3.7-.8,5.1-2.3l5.8,6.1Z"/>
    <path class="st0" d="M352.4,34c2.8,0,5.7,1.7,5.7,5.1s-2.9,5.1-5.7,5.1-5.7-1.7-5.7-5.1,2.9-5.1,5.7-5.1ZM357.5,73.4v-26.8h-10.2v26.8h10.2Z"/>
    <path class="st0" d="M376.9,45.5c8.1,0,15.6,4.4,15.6,14.3s-7.9,14.2-15.6,14.2-15.6-4.3-15.6-14.2,7.7-14.3,15.6-14.3ZM376.9,65.7c3.4,0,5.6-2.6,5.6-5.9s-2-6-5.6-6-5.6,2.8-5.6,6,2,5.9,5.6,5.9ZM386.2,34h-10.4l-4.1,8.6v.3h8.7l5.9-8.4v-.4Z"/>
    <path class="st0" d="M415.1,73.4v-15.1c0-3.4-1.9-4.5-3.8-4.5s-4.7,1.7-4.7,5.2v14.3h-10v-27.3h9l.4,3c2.3-2.7,5.7-3.7,8.6-3.6,5.7,0,10.6,3.1,10.6,12.8v15.1h-10.2Z"/>
  </g>
  <g>
    <path class="st1" d="M89.8,65.4c-3.9,18.1-19.9,31.7-39.1,31.7-19.2,0-35.3-13.6-39.1-31.7H.9c3.7,24.1,24.5,42.6,49.7,42.6h.2c25.2,0,46-18.5,49.7-42.6h-10.6Z"/>
    <path class="st0" d="M72,44.8c-.1,0-.3,0-.4,0-1.7,0-3.4.3-5,.9l-1,2.6c-1.8.2-3.4,1.2-4.3,2.7,0,0-4.8,2-4.8,2,0,0,0,0,0,0-.5.1-.9.6-.9,1.1s.2.7.4.9c0,0,0,.1,0,.2l1.6,3.7c.7.1,1.5,0,2.2-.3,1.4-.6,1.9-.8,2.5-.9,1.1,0,2.2.7,2.3,1.8s-.8,2.3-2,2.4h-.7c-.4,0-.9-.1-1.3-.3-.5-.3-.9-.8-1-1.4-1.1,1-1.6,2.1-1.6,3.2,0,.6,0,1.3,0,2.1h10.7s0,0-.2,0c-8.3,3.4-13.6,11.5-13.6,20.4h0c14.8-2.3,25.9-15.4,25.9-30.8v-.7c0-5.1-3.9-9.4-9-9.6ZM65.9,52.5c-.1,0-.2.2-.2.3-.2.4-.6.7-1,.8-.2,0-.3,0-.5,0-.5,0-.8-.7-.5-1.1.3-.4.8-.7,1.3-.7.2,0,.8,0,1,0s.3,0,.3.2c0,.2-.1.3-.3.4ZM32.6,65.5c0,0-.1,0-.2,0h10.7c0-.8,0-1.6,0-2.1,0-1.1-.5-2.1-1.6-3.2,0,.6-.5,1.1-1,1.4-.3.2-.9.3-1.3.3h-.7c-1.2,0-2.1-1.1-2-2.4.1-1.1,1.2-1.9,2.3-1.8s1,.3,2.5.9c.7.3,1.5.4,2.2.3l1.6-3.7c0,0,0-.2,0-.2.3-.2.4-.5.4-.9,0-.5-.4-1-.9-1.1,0,0,0,0,0,0,0,0-4.8-2-4.8-2-.9-1.5-2.5-2.5-4.3-2.7l-1-2.6c-1.5-.6-3.2-.9-5-.9s0,0-.1,0c-5.2,0-9.3,4.4-9.3,9.5v.7c0,15.4,11.2,28.5,25.9,30.9h0c0-9-5.4-17-13.6-20.4ZM35.1,52.1c0-.2.2-.2.3-.2s.8,0,1,0c.5,0,1,.3,1.3.7.3.4,0,1.1-.5,1.1-.2,0-.3,0-.5,0-.4-.1-.8-.4-1-.8,0-.1-.1-.2-.2-.3-.1-.1-.3-.2-.3-.4ZM53.2,86.2c-.9,0-1.7.1-2.6.1-.9,0-1.7,0-2.6-.1v-19.8h0v-16.6c0-2.1-1.1-3.5-2.7-4.5-1.3-.8-2.5-1.8-3.4-3-.1-.2-.3-.3-.6-.3-.3,0-.6,0-.8,0-5.7,0-10.4-4.4-10.9-9.9,0-.3-.2-.5-.5-.5-3.9-.6-7-4-7-8s3-7.5,7-8c.3,0,.5-.3.5-.5.5-5.5,5.2-9.9,10.9-9.9s.6,0,.8,0c.2,0,.4,0,.6-.3,2-2.7,5.2-4.4,8.8-4.4h0c3.6,0,6.8,1.8,8.8,4.4.1.2.3.3.6.3.3,0,.6,0,.8,0,5.7,0,10.4,4.4,10.9,9.9,0,.3.2.5.5.5,3.9.6,7,4,7,8s-3,7.5-7,8c-.3,0-.5.3-.5.5-.5,5.5-5.2,9.9-10.9,9.9s-.6,0-.8,0c-.2,0-.4,0-.6.3-.9,1.2-2.1,2.3-3.4,3-1.6,1-2.7,2.5-2.7,4.5v16.6h0v19.8Z"/>
  </g>
</svg>