<?xml version="1.0" encoding="utf-8"?>
<!-- Generator: Adobe Illustrator 27.9.0, SVG Export Plug-In . SVG Version: 6.00 Build 0)  -->
<svg version="1.1" id="OBJECTS" xmlns="http://www.w3.org/2000/svg" xmlns:xlink="http://www.w3.org/1999/xlink" x="0px" y="0px"
	 width="500px" height="500px" viewBox="0 0 500 500" enable-background="new 0 0 500 500" xml:space="preserve">
<g id="g451" transform="matrix(1.0330292,0,0,1.0330292,-182.01149,15.391784)">
	<g id="path450">
		<path fill="#FEFDFE" d="M418.2,19.8c-172.2,0-197,39.8-213,83.6c-10.5,29-11.9,144.3,13.9,192.1c25.9,47.8,85.6,47.8,85.6,47.8
			s-1,17.9,2,40.8c2,28.9,10.9,50.8,38.8,11.9c3,28.9,13.9,45.8,34.8,6c5,39.8,37.8,31.8,37.8,31.8s32.8,8,37.8-31.8
			c20.9,39.8,31.8,22.9,34.8-6c27.9,38.8,36.8,16.9,38.8-11.9c3-22.9,2-40.8,2-40.8s59.7,0,85.6-47.8
			c25.9-47.8,24.5-163.1,13.9-192.1C615.3,59.6,590.4,19.8,418.2,19.8L418.2,19.8z"/>
	</g>
	<g opacity="0.1">
		<path fill="#FE5A00" d="M617.2,295.5c-25.9,47.8-85.6,47.8-85.6,47.8s1,17.9-2,40.8c-2,28.9-11,50.8-38.8,12
			c-3,28.8-13.9,45.8-34.8,6c-5,39.8-37.8,31.8-37.8,31.8s-32.8,8-37.8-31.8c-20.9,39.8-31.8,22.9-34.9-6
			c-27.8,38.8-36.8,16.9-38.8-12c-3-22.9-2-40.8-2-40.8s-59.7,0-85.6-47.8C200.5,261,196,191.5,198.9,144.5
			c2,36.1,8.2,73.1,20.2,95.3c25.9,47.8,85.6,47.8,85.6,47.8s-1,17.9,2,40.8c2,28.8,11,50.7,38.8,11.9c3,28.9,13.9,45.8,34.9,6
			c5,39.8,37.8,31.8,37.8,31.8s32.8,8,37.8-31.8c20.9,39.8,31.8,22.9,34.8-6c27.9,38.8,36.8,16.9,38.8-11.9c3-22.9,2-40.8,2-40.8
			s59.7,0,85.6-47.8c12.1-22.3,18.2-59.2,20.2-95.3C640.4,191.5,635.9,261,617.2,295.5z"/>
	</g>
	<g id="path22-6">
		<path fill="#FB017F" d="M293.6,179.5c0,9.5-7.7,17.2-17.2,17.2s-17.2-7.7-17.2-17.2c0-9.5,7.7-17.2,17.2-17.2
			S293.6,170,293.6,179.5z M542.8,179.5c0,9.5,7.7,17.2,17.2,17.2s17.2-7.7,17.2-17.2c0-9.5-7.7-17.2-17.2-17.2
			S542.8,170,542.8,179.5z M283.3,198.1c4.4,8.4,1.2,18.8-7.2,23.2c-8.4,4.4-18.8,1.2-23.2-7.2c-4.4-8.4-1.2-18.8,7.2-23.2
			C268.5,186.5,278.9,189.7,283.3,198.1z M553.1,198.1c-4.4,8.4-1.2,18.8,7.2,23.2c8.4,4.4,18.8,1.2,23.2-7.2s1.2-18.8-7.2-23.2
			C567.9,186.5,557.5,189.7,553.1,198.1z M282.7,219.4c7.8,5.4,9.8,16.1,4.4,23.9c-5.4,7.8-16.1,9.8-23.9,4.4s-9.8-16.1-4.4-23.9
			C264.3,216,275,214,282.7,219.4z M553.7,219.4c-7.8,5.4-9.8,16.1-4.4,23.9c5.4,7.8,16.1,9.8,23.9,4.4c7.8-5.4,9.8-16.1,4.4-23.9
			C572.1,216,561.4,214,553.7,219.4z M292.2,238.5c9.4,1.1,16.1,9.7,15,19.1c-1.1,9.4-9.7,16.1-19.1,15c-9.4-1.1-16.1-9.7-15-19.1
			C274.2,244,282.8,237.3,292.2,238.5L292.2,238.5z M544.2,238.5c-9.4,1.1-16.1,9.7-15,19.1c1.1,9.4,9.7,16.1,19.1,15
			c9.4-1.1,16.1-9.7,15-19.1C562.2,244,553.6,237.3,544.2,238.5L544.2,238.5z M309.4,251c8.9-3.4,18.8,1.1,22.1,10
			c3.4,8.9-1.1,18.8-10,22.1c-8.9,3.4-18.8-1.1-22.1-10C296.1,264.3,300.6,254.4,309.4,251z M527,251c-8.9-3.4-18.8,1.1-22.1,10
			c-3.4,8.9,1.1,18.8,10,22.1c8.9,3.4,18.8-1.1,22.1-10C540.3,264.3,535.8,254.4,527,251z M330.5,254.1c6.3-7.1,17.1-7.7,24.2-1.5
			c7.1,6.3,7.7,17.1,1.5,24.2c-6.3,7.1-17.1,7.7-24.2,1.5C324.9,272,324.2,261.2,330.5,254.1z M505.9,254.1
			c-6.3-7.1-17.1-7.7-24.2-1.5c-7.1,6.3-7.7,17.1-1.5,24.2c6.3,7.1,17.1,7.7,24.2,1.5C511.5,272,512.2,261.2,505.9,254.1z
			 M350.6,247c2.3-9.2,11.6-14.8,20.8-12.6s14.8,11.6,12.6,20.8c-2.3,9.2-11.6,14.8-20.8,12.6C354,265.5,348.3,256.2,350.6,247z
			 M485.8,247c-2.3-9.2-11.6-14.8-20.8-12.6c-9.2,2.3-14.8,11.6-12.6,20.8s11.6,14.8,20.8,12.6C482.4,265.5,488.1,256.2,485.8,247z
			 M365.1,231.4c-2.3-9.2,3.4-18.5,12.6-20.8c9.2-2.3,18.5,3.4,20.8,12.6c2.3,9.2-3.4,18.5-12.6,20.8S367.4,240.6,365.1,231.4z
			 M471.3,231.4c2.3-9.2-3.4-18.5-12.6-20.8c-9.2-2.3-18.5,3.4-20.8,12.6c-2.3,9.2,3.4,18.5,12.6,20.8S469,240.6,471.3,231.4z
			 M370.7,210.9c-6.3-7.1-5.6-17.9,1.5-24.2c7.1-6.3,17.9-5.6,24.2,1.5c6.3,7.1,5.6,17.9-1.5,24.2
			C387.8,218.6,377,217.9,370.7,210.9z M465.7,210.9c6.3-7.1,5.6-17.9-1.5-24.2c-7.1-6.3-17.9-5.6-24.2,1.5
			c-6.3,7.1-5.6,17.9,1.5,24.2C448.6,218.6,459.4,217.9,465.7,210.9z M366.1,190.1c-8.9-3.4-13.3-13.3-10-22.1
			c3.4-8.9,13.3-13.3,22.1-10c8.9,3.4,13.3,13.3,10,22.1C384.9,189,375,193.4,366.1,190.1z M470.3,190.1c8.9-3.4,13.3-13.3,10-22.1
			c-3.4-8.9-13.3-13.3-22.1-10s-13.3,13.3-10,22.1C451.5,189,461.4,193.4,470.3,190.1L470.3,190.1z M352.4,173.8
			c-9.4,1.1-18-5.6-19.1-15c-1.1-9.4,5.6-18,15-19.1c9.4-1.1,18,5.6,19.1,15C368.5,164.1,361.8,172.6,352.4,173.8L352.4,173.8z
			 M484,173.8c9.4,1.1,18-5.6,19.1-15c1.1-9.4-5.6-18-15-19.1c-9.4-1.1-18,5.6-19.1,15C467.9,164.1,474.6,172.6,484,173.8L484,173.8
			z M332.6,165.7c-7.8,5.4-18.5,3.4-23.9-4.4c-5.4-7.8-3.4-18.5,4.4-23.9c7.8-5.4,18.5-3.4,23.9,4.4S340.4,160.4,332.6,165.7z
			 M503.8,165.7c7.8,5.4,18.5,3.4,23.9-4.4c5.4-7.8,3.4-18.5-4.4-23.9c-7.8-5.4-18.5-3.4-23.9,4.4S496,160.4,503.8,165.7z
			 M311.4,167.8c-4.4,8.4-14.8,11.6-23.2,7.2c-8.4-4.4-11.6-14.8-7.2-23.2c4.4-8.4,14.8-11.6,23.2-7.2S315.8,159.4,311.4,167.8z
			 M525,167.8c4.4,8.4,14.8,11.6,23.2,7.2c8.4-4.4,11.6-14.8,7.2-23.2c-4.4-8.4-14.8-11.6-23.2-7.2C523.8,149,520.6,159.4,525,167.8
			z"/>
	</g>
	<g id="path451">
		<path fill="#331B5B" d="M381.4,208.4c0,30-24.3,54.2-54.2,54.2c-30,0-54.2-24.3-54.2-54.2c0-30,24.3-54.2,54.2-54.2
			C357.1,154.1,381.4,178.4,381.4,208.4z M455,208.4c0,30,24.3,54.2,54.2,54.2c30,0,54.2-24.3,54.2-54.2c0-30-24.3-54.2-54.2-54.2
			C479.3,154.1,455,178.4,455,208.4z"/>
	</g>
	<g id="path452">
		<path fill="#DC8ADD" d="M391.6,142.3c0,0-36.3-38.6-67.4-41.5c-31.1-2.9-46.7,33.4-60.5,27.1c-13.8-6.3-4-28.2,13.8-41.5
			S372.6,70.9,391.6,142.3L391.6,142.3z M444.8,142.3c0,0,36.3-38.6,67.4-41.5c31.1-2.9,46.7,33.4,60.5,27.1
			c13.8-6.3,4-28.2-13.8-41.5C541,73.2,463.8,70.9,444.8,142.3L444.8,142.3z"/>
	</g>
	<g id="path453">
		<path fill="#26A269" d="M393.3,103.7c0,0-39.2-38.6-66.2-41.5c-27.1-2.9-23.6-17.3-4-24.2S393.9,41.5,393.3,103.7L393.3,103.7z
			 M443.1,103.7c0,0,39.2-38.6,66.2-41.5c27.1-2.9,23.6-17.3,4-24.2C493.8,31.1,442.5,41.5,443.1,103.7L443.1,103.7z"/>
	</g>
	<g id="path454">
		<path fill="#FF7800" d="M393.3,269c0,0-6.3,21.9-31.7,32.8c-25.3,10.9-49-4.6-50.1,11.5c-1.2,16.1,3.5,27.1,25.3,27.6
			S394.5,293.2,393.3,269L393.3,269z M443.1,269c0,0,6.3,21.9,31.7,32.8c25.3,10.9,49-4.6,50.1,11.5c1.2,16.1-3.5,27.1-25.3,27.6
			C477.6,341.6,441.9,293.2,443.1,269L443.1,269z"/>
	</g>
	<g id="path455">
		<path fill="#FF7800" d="M405.4,317.4c-1.2,2.3-22.5,23-19.6,40.3c2.9,17.3,8.6,22.5,17.9,15C412.9,365.2,405.4,317.4,405.4,317.4
			L405.4,317.4z M431,317.4c1.2,2.3,22.5,23,19.6,40.3c-2.9,17.3-8.6,22.5-17.9,15C423.5,365.2,431,317.4,431,317.4L431,317.4z"/>
	</g>
	<g id="path456">
		<path fill="#331B5B" d="M418.1,244.8c0,0-23.6,44.9-17.3,57c3.2,6.1,10.7,3.3,17.4-1c6.7,4.3,14.2,7,17.4,1
			c6.3-12.1-17.3-57-17.3-57l-0.1,0.4L418.1,244.8z"/>
	</g>
</g>
</svg>
