<?xml version="1.0" encoding="UTF-8"?>
<svg version="1.1" xmlns="http://www.w3.org/2000/svg" width="1080" height="1285">
<path d="M0 0 C10.23499432 1.87756048 20.1640859 13.89506168 26.078125 21.765625 C36.2326271 37.21812819 41.5777273 54.14515963 37.8125 72.5625 C36.33411976 78.50445136 34.02943771 83.69549049 31 89 C44.23294594 80.99058535 52.59877011 69.86441497 59 56 C59.66 56 60.32 56 61 56 C63.99828292 68.09063681 62.75425801 81.62095625 58 93 C57.63777344 93.87914063 57.27554688 94.75828125 56.90234375 95.6640625 C53.9111454 102.21427991 49.66787158 107.5560803 45 113 C48.0007008 111.58481442 51.00042767 110.16757567 54 108.75 C54.83917969 108.35425781 55.67835938 107.95851563 56.54296875 107.55078125 C60.55730888 105.65252739 64.54833379 103.72897919 68.5 101.703125 C72 100 72 100 74 100 C72.03151387 115.19494346 58.46260558 130.42580898 46.7265625 139.58203125 C32.40595947 150.50548687 10.60946275 166 -8 166 C-5.38222171 173.34991597 -2.43586382 180.31805421 1.125 187.25 C5.66571206 196.15520799 8.50824992 203.92657422 9 214 C9.07927734 215.33804688 9.07927734 215.33804688 9.16015625 216.703125 C9.48108644 226.91707698 8.22560672 238.61180419 4 248 C12.62867667 246.29524625 21.24348119 244.52652432 29.84838867 242.70581055 C31.48490917 242.3615786 33.12228269 242.02137624 34.76049805 241.68530273 C58.14389633 237.32332401 58.14389633 237.32332401 76 223 C74.9378125 222.97421875 73.875625 222.9484375 72.78125 222.921875 C56.48641335 222.3477604 56.48641335 222.3477604 50.23046875 216.28515625 C45.44396598 210.9830115 44.63852045 206.81266612 44.72265625 199.7265625 C45.11692977 195.85046511 46.36910623 193.83859591 49 191 C56.0671924 185.6635486 62.31859774 185.01001553 71 186 C79.76927935 188.89551677 86.16246808 193.45391488 90.375 201.6875 C91 204 91 204 91 208 C103.2240548 201.95645227 114.63822274 195.93357167 125 187 C126.29744141 185.89205078 126.29744141 185.89205078 127.62109375 184.76171875 C130.13155404 182.55674349 132.57272312 180.29607273 135 178 C135.88300781 177.18144531 136.76601563 176.36289063 137.67578125 175.51953125 C153.0786522 160.77024747 164.76578779 142.41244166 171 122 C171.23332031 121.2884375 171.46664062 120.576875 171.70703125 119.84375 C173.59728918 113.42503241 173.64549499 106.64230435 174 100 C177.3 99.67 180.6 99.34 184 99 C185.43304001 127.5015735 171.59114185 153.78702894 153.01171875 174.54248047 C150.71140552 177.06391536 148.35957178 179.53414862 146 182 C145.113125 182.93972656 144.22625 183.87945312 143.3125 184.84765625 C128.8566105 199.7868095 110.84643211 212.38452263 91 219 C89.78667776 220.82351461 89.78667776 220.82351461 88.75 223.0625 C81.32761121 236.91908973 69.48455875 243.00294237 55 248 C55.71317383 248.06993164 56.42634766 248.13986328 57.16113281 248.21191406 C82.60629668 250.75234615 110.33395342 253.64357466 133.19921875 266.1640625 C138.75217438 269.36790464 138.75217438 269.36790464 144.97265625 269.63818359 C148.84274865 268.43813422 152.47244579 266.78455125 156.1484375 265.09375 C161.19534108 262.80101972 166.29730266 261.43010461 171.6875 260.1875 C172.49324463 259.99373779 173.29898926 259.79997559 174.12915039 259.6003418 C187.16673537 256.62831918 200.11549055 255.58750309 213.4375 255.625 C214.5407663 255.62581573 214.5407663 255.62581573 215.6663208 255.62664795 C229.07128663 255.6718629 241.92506152 256.89251416 255 260 C255.86189941 260.20367187 256.72379883 260.40734375 257.61181641 260.6171875 C270.87238839 263.89003101 284.29703738 268.87314272 296 276 C296.33 276.66 296.66 277.32 297 278 C291.66996407 278.1105307 286.43561078 277.97849412 281.125 277.5 C269.12040049 276.54874267 257.03257258 276.91868193 245 277 C246.22589844 277.37769531 247.45179688 277.75539063 248.71484375 278.14453125 C277.6883365 287.30036032 304.80157473 300.50105078 329.19921875 318.6796875 C330.4572764 319.60208118 331.73237872 320.50147402 333.01953125 321.3828125 C334.71198474 322.5427706 336.36058679 323.7662148 338 325 C338 325.66 338 326.32 338 327 C323.46145383 326.29213071 309.02266727 324.54624577 294.5625 322.9375 C291.98115222 322.65270075 289.39977224 322.36819311 286.81835938 322.08398438 C280.54519769 321.39268574 274.27244346 320.69778375 268 320 C269.09837725 321.27212531 270.19919887 322.54214033 271.30102539 323.8112793 C271.91377823 324.51874802 272.52653107 325.22621674 273.15785217 325.9551239 C275.73084214 328.81127127 278.50458747 331.33415869 281.4375 333.8125 C282.03385254 334.31821533 282.63020508 334.82393066 283.24462891 335.3449707 C305.73645904 354.07456286 331.98265815 366.91807447 360 375 C360 375.99 360 376.98 360 378 C327.43554959 389.70656338 290.57729394 387.24935918 259.3125 372.8125 C248.07350562 367.42456456 238.23634863 360.35669638 229 352 C232.75793623 360.28454122 237.030497 367.14938954 243 374 C243.67804687 374.82242187 244.35609375 375.64484375 245.0546875 376.4921875 C250.26361107 382.61696576 256.02652763 387.33918121 262.47265625 392.06640625 C263.30667969 392.70449219 264.14070312 393.34257812 265 394 C265 394.33 265 394.66 265 395 C238.80759953 394.06455713 214.17597788 374.2203197 196.5703125 356.703125 C194.59427871 354.55996398 192.81299209 352.28171687 191 350 C191.27263672 350.89307861 191.54527344 351.78615723 191.82617188 352.70629883 C192.83584241 356.02073652 193.84178344 359.33625849 194.84521484 362.65258789 C195.2802473 364.08761105 195.71676096 365.52218604 196.15478516 366.95629883 C196.7841779 369.01788118 197.40822413 371.08101718 198.03125 373.14453125 C198.59682617 375.00621948 198.59682617 375.00621948 199.17382812 376.90551758 C200 380 200 380 200 383 C191.21075875 378.92068848 184.02539798 371.51938104 177 365 C176.40574219 364.47148437 175.81148437 363.94296875 175.19921875 363.3984375 C156.12101745 345.6406845 140.27977006 315.0949812 138.88671875 288.8671875 C138.87253906 288.17882812 138.85835937 287.49046875 138.84375 286.78125 C138.68729254 282.80723048 138.4346949 279.71359934 137 276 C132.51812707 272.26184398 127.46851456 270.73117674 122 269 C120.25939835 268.39484817 118.51985335 267.7866505 116.78125 267.17578125 C108.02173173 264.17754114 99.17937373 261.62705009 90.125 259.6875 C89.43825195 259.54030518 88.75150391 259.39311035 88.04394531 259.24145508 C74.87104838 256.62250663 61.77914383 255.6178438 48.375 255.6875 C47.64009338 255.68932281 46.90518677 255.69114563 46.14801025 255.69302368 C0.70041181 255.88168708 -38.09820638 273.80002329 -71 305 C-71.47147461 305.44424316 -71.94294922 305.88848633 -72.42871094 306.34619141 C-85.35789927 318.18207524 -85.35789927 318.18207524 -94 333 C-93.43070288 335.33713411 -93.43070288 335.33713411 -92.41796875 337.859375 C-92.06283203 338.81070312 -91.70769531 339.76203125 -91.34179688 340.7421875 C-90.96087891 341.73476563 -90.57996094 342.72734375 -90.1875 343.75 C-85.64495248 355.76832816 -85.64495248 355.76832816 -84 362 C-83.35264893 361.74831055 -82.70529785 361.49662109 -82.03833008 361.23730469 C-64.19012481 354.36934174 -46.2676403 348.67451404 -27 348 C-25.97777344 347.96003906 -24.95554687 347.92007812 -23.90234375 347.87890625 C-0.91816347 347.43030572 26.04344641 351.07459467 45.97265625 363.3828125 C57.99185623 370.62094117 68.0727617 370.58697672 81.91796875 370.13671875 C91.19553113 369.85310351 99.95433935 371.02835925 109 373 C109.74185547 373.16097168 110.48371094 373.32194336 111.24804688 373.48779297 C158.54279825 384.23753886 203.36685913 418.43725668 232.80859375 456.203125 C234.4086221 458.24522892 236.02771285 460.21244336 237.72265625 462.171875 C253.70625886 480.86342195 267.34538422 502.37926208 279 524 C279.47308594 524.8760791 279.94617188 525.7521582 280.43359375 526.65478516 C284.04827476 533.39006254 287.55457744 540.17673465 291 547 C291.4640625 547.9173291 291.928125 548.8346582 292.40625 549.77978516 C327.94735888 620.59695914 345.94041736 699.51727802 353.23828125 778.0234375 C353.30153091 778.69508438 353.36478058 779.36673126 353.4299469 780.05873108 C354.56238894 792.67457545 355.15912637 805.25095019 355.203125 817.91796875 C355.21015207 819.29653452 355.21723884 820.67509998 355.22438049 822.05366516 C355.24375619 826.43161497 355.24881469 830.80951162 355.25 835.1875 C355.25044186 835.93452179 355.25088371 836.68154358 355.25133896 837.45120239 C355.25856213 860.75494761 354.85929885 883.84512366 352 907 C351.82663941 908.44840246 351.65330002 909.89680747 351.47998047 911.34521484 C341.68455249 991.87567065 316.35460732 1072.86420037 243.1875 1149.625 C214.9829751 1171.41249872 183.90695665 1185.24201682 147.81103516 1185.13037109 C145.76847789 1185.12504815 143.72614402 1185.13032194 141.68359375 1185.13671875 C135.51544778 1185.1356909 129.52143828 1184.97925167 123.3984375 1184.171875 C119.21894819 1183.7869961 118.34816774 1183.78691813 114.6171875 1186.0703125 C113.67383123 1187.06146326 112.76056009 1188.08188725 111.875 1189.125 C110.79376578 1190.24664482 109.70343663 1191.35957407 108.60546875 1192.46484375 C108.03103027 1193.04733887 107.4565918 1193.62983398 106.86474609 1194.22998047 C96.53834427 1204.03181514 83.61168272 1211.54114333 71 1218 C70.38592285 1218.31662598 69.7718457 1218.63325195 69.13916016 1218.95947266 C36.55582135 1235.53240594 -2.0604278 1240.47213671 -37.4375 1230.25 C-38.61119141 1229.85554688 -38.61119141 1229.85554688 -39.80859375 1229.453125 C-42.55272142 1228.88571179 -44.33467361 1229.15786104 -47 1230 C-48.59184222 1231.2207406 -48.59184222 1231.2207406 -49.9375 1232.875 C-78.05949466 1262.50568536 -123.53868757 1283.59955108 -164.28491211 1285.12280273 C-212.38170624 1286.17485016 -260.68113538 1272.83116188 -296.69140625 1239.265625 C-301.56704807 1236.59268431 -307.48630271 1239.3325813 -312.55615234 1240.76489258 C-352.40275452 1252.01949469 -394.09830083 1244.97531616 -430 1225 C-452.90543519 1211.80824629 -452.90543519 1211.80824629 -460.9375 1202.76953125 C-466.06724544 1197.25032749 -470.16013826 1193.78313514 -477.93359375 1193.34375 C-483.55193114 1193.31933892 -489.15285115 1193.64634665 -494.76269531 1193.92675781 C-538.4619917 1194.91542968 -580.12755394 1169.1390159 -610.82177734 1140.28759766 C-618.46327465 1132.96946442 -625.516512 1125.37500101 -632 1117 C-632.77472656 1116.030625 -633.54945313 1115.06125 -634.34765625 1114.0625 C-682.19485251 1053.40044452 -705.25036238 976.68386282 -715.25 901.0625 C-715.40106201 899.92965576 -715.55212402 898.79681152 -715.70776367 897.62963867 C-716.19083448 893.7577158 -716.61290166 889.88244305 -717 886 C-717.1308046 884.70455261 -717.1308046 884.70455261 -717.26425171 883.38293457 C-719.03618758 865.19238476 -719.34486275 847.08467154 -719.31567383 828.82714844 C-719.31106729 825.71013866 -719.31789434 822.59352152 -719.33618164 819.4765625 C-719.46947215 796.5013073 -718.34067363 773.85651945 -716 751 C-715.89767059 749.99978821 -715.79534119 748.99957642 -715.68991089 747.96905518 C-715.15367218 742.88240396 -714.52564924 737.81469734 -713.8125 732.75 C-713.71151001 732.01703705 -713.61052002 731.2840741 -713.50646973 730.52890015 C-702.03710408 648.03493318 -674.85681392 563.71747639 -627 495 C-626.62697754 494.46246094 -626.25395508 493.92492187 -625.86962891 493.37109375 C-619.57081602 484.32347377 -612.96613037 475.544487 -606 467 C-605.54383301 466.43796875 -605.08766602 465.8759375 -604.61767578 465.296875 C-597.36034121 456.43667795 -589.44488951 448.2396066 -581.375 440.125 C-580.65334656 439.39544601 -580.65334656 439.39544601 -579.91711426 438.65115356 C-573.29452186 431.97252124 -566.39430633 425.81762155 -559 420 C-558.32646484 419.46181641 -557.65292969 418.92363281 -556.95898438 418.36914062 C-527.36935264 394.9058574 -487.99780235 374.1406982 -449.29296875 373.9296875 C-438.97141755 373.86004958 -430.54892596 372.64751179 -420.97998047 368.73339844 C-415.49263278 366.49418238 -410.10875572 364.86589364 -404.3125 363.625 C-403.59425049 363.46990967 -402.87600098 363.31481934 -402.13598633 363.1550293 C-381.91257635 358.9995341 -359.1096386 359.27852505 -339 364 C-338.3076123 364.16097168 -337.61522461 364.32194336 -336.90185547 364.48779297 C-326.00547273 367.13373055 -315.8197881 371.39469236 -305.58203125 375.9140625 C-304.38404907 376.43867065 -304.38404907 376.43867065 -303.16186523 376.97387695 C-301 378 -301 378 -297.8359375 380.01953125 C-294.86613045 381.39964622 -294.86613045 381.39964622 -291.51953125 379.53515625 C-290.26798473 378.73524019 -289.0328013 377.90931706 -287.8125 377.0625 C-286.48244399 376.18579805 -285.15039833 375.31210736 -283.81640625 374.44140625 C-283.16687988 374.01230957 -282.51735352 373.58321289 -281.84814453 373.14111328 C-279.42750965 371.64652313 -276.86527285 370.61007984 -274.25 369.5 C-266.24847011 365.16239074 -262.3877097 356.62863164 -258 349 C-257.02164146 347.3419708 -256.04246308 345.68442511 -255.0625 344.02734375 C-232.53205946 305.56621433 -206.44194368 259.41591577 -206.6875 213.625 C-206.69487183 211.98591675 -206.69487183 211.98591675 -206.70239258 210.3137207 C-206.9371131 194.1107822 -210.49863246 178.07763648 -222 166 C-228.74407747 159.59956979 -237.11506851 155.90298695 -246.4375 155.5 C-261.68314243 156.17228295 -274.03382067 164.92345542 -284.13671875 175.69921875 C-297.67289567 190.86680635 -303.77266666 209.53694212 -302.875 229.8125 C-301.60799873 249.97929475 -294.74422721 270.79335703 -282.69140625 287.12890625 C-281 290 -281 290 -281.09375 292.60546875 C-285.78667604 305.00531213 -296.1364654 311.98036295 -307.5703125 317.5546875 C-318.16392088 322.01896438 -330.53709565 323.19354934 -341.4375 319 C-357.90123727 310.93704796 -367.00062705 296.20042369 -373.1875 279.4375 C-384.18598253 243.81898336 -377.72542795 204.70195614 -361 172 C-356.19308693 162.98624284 -350.70943633 154.72365345 -344 147 C-343.31421875 146.19304687 -342.6284375 145.38609375 -341.921875 144.5546875 C-318.1575401 117.28554061 -285.30599924 100.71768929 -249.08203125 98.16015625 C-216.68715435 96.47677228 -185.53984632 105.4346805 -161 127 C-160.16984375 127.68578125 -159.3396875 128.3715625 -158.484375 129.078125 C-132.0750974 151.50109655 -118.33152178 185.85300763 -115.50238037 219.69865417 C-115.20560919 223.34042782 -114.91503648 226.98268483 -114.625 230.625 C-112.24435391 260.51751264 -107.91025139 290.59541994 -98 319 C-97.49452637 318.34064453 -96.98905273 317.68128906 -96.46826172 317.00195312 C-77.07673883 291.99587805 -51.9868166 273.42158181 -23.6484375 259.75390625 C-23.05732178 259.46700928 -22.46620605 259.1801123 -21.85717773 258.88452148 C-20.53946563 258.25693229 -19.21231098 257.64899917 -17.87915039 257.05493164 C-10.62967186 253.70857169 -7.98863146 248.85505727 -5 241.55859375 C-0.0240363 227.42015844 0.19234493 209.71514063 -6 196 C-7.83457902 192.44367079 -9.75741294 188.93628928 -11.72924805 185.4543457 C-14.39833107 180.60847113 -15.72648901 176.43331898 -16.75 171 C-18.14395023 165.0205212 -19.84376943 162.68233458 -24.9375 159.25 C-26.68413434 158.19506267 -28.44180025 157.16119907 -30.20361328 156.13183594 C-35.57997853 152.74438972 -40.26179312 148.20742414 -45 144 C-45.65484375 143.43023437 -46.3096875 142.86046875 -46.984375 142.2734375 C-61.65492646 128.65078258 -73.99055905 107.18357816 -75.10839844 87.04736328 C-75.16957275 84.88470108 -75.1855871 82.72599142 -75.1875 80.5625 C-75.19974609 79.83740234 -75.21199219 79.11230469 -75.22460938 78.36523438 C-75.23762586 73.53611817 -74.52787035 69.58361106 -73 65 C-69.48470265 69.25827818 -67.22588114 74.19413799 -64.75585938 79.09765625 C-61.33095696 85.7307713 -57.2142795 91.8455248 -53 98 C-53.01571045 97.18023682 -53.0314209 96.36047363 -53.04760742 95.51586914 C-53.44679007 71.50259062 -52.5112139 48.75482388 -41 27 C-40.34 27 -39.68 27 -39 27 C-35.92382812 33.76757813 -32.84765625 40.53515625 -29.77148438 47.30273438 C-29.27320633 48.39870438 -29.27320633 48.39870438 -28.76486206 49.51681519 C-28.10366549 50.971772 -27.44295634 52.42695042 -26.78274536 53.88235474 C-25.33168411 57.07983494 -23.8733685 60.27303833 -22.39599609 63.45849609 C-21.93918457 64.44543457 -21.48237305 65.43237305 -21.01171875 66.44921875 C-20.61815186 67.29186279 -20.22458496 68.13450684 -19.8190918 69.00268555 C-19 71 -19 71 -19 73 C-6.85658348 61.65771166 0.09736727 42.76897378 1.17285156 26.36328125 C1.2307612 23.69747473 1.22452927 21.04110772 1.1875 18.375 C1.18685547 17.48554688 1.18621094 16.59609375 1.18554688 15.6796875 C1.15041111 10.3702836 0.76542082 5.2538485 0 0 Z M56 198 C53.73420616 200.79776555 53.73420616 200.79776555 54 203.875 C55.3925418 208.22669313 57.27732075 209.39412453 61 212 C67.86386596 214.28795532 75.28273733 213.38836006 82 211 C81.68932597 206.65056362 80.67942294 203.67684961 77.73046875 200.390625 C70.65582549 194.70535863 63.95110651 194.09672953 56 198 Z " fill="#FDCE80" transform="translate(719,0)"/>
<path d="M0 0 C10.23499432 1.87756048 20.1640859 13.89506168 26.078125 21.765625 C36.2326271 37.21812819 41.5777273 54.14515963 37.8125 72.5625 C36.33411976 78.50445136 34.02943771 83.69549049 31 89 C44.23294594 80.99058535 52.59877011 69.86441497 59 56 C59.66 56 60.32 56 61 56 C63.99828292 68.09063681 62.75425801 81.62095625 58 93 C57.63777344 93.87914063 57.27554687 94.75828125 56.90234375 95.6640625 C53.9111454 102.21427991 49.66787158 107.5560803 45 113 C48.0007008 111.58481442 51.00042767 110.16757567 54 108.75 C54.83917969 108.35425781 55.67835938 107.95851563 56.54296875 107.55078125 C60.55730888 105.65252739 64.54833379 103.72897919 68.5 101.703125 C72 100 72 100 74 100 C72.03151387 115.19494346 58.46260558 130.42580898 46.7265625 139.58203125 C32.40595947 150.50548687 10.60946275 166 -8 166 C-5.38222171 173.34991597 -2.43586382 180.31805421 1.125 187.25 C5.66571206 196.15520799 8.50824992 203.92657422 9 214 C9.07927734 215.33804688 9.07927734 215.33804688 9.16015625 216.703125 C9.48108644 226.91707698 8.22560672 238.61180419 4 248 C12.62867667 246.29524625 21.24348119 244.52652432 29.84838867 242.70581055 C31.48490917 242.3615786 33.12228269 242.02137624 34.76049805 241.68530273 C58.14389633 237.32332401 58.14389633 237.32332401 76 223 C74.9378125 222.97421875 73.875625 222.9484375 72.78125 222.921875 C56.48641335 222.3477604 56.48641335 222.3477604 50.23046875 216.28515625 C45.44396598 210.9830115 44.63852045 206.81266612 44.72265625 199.7265625 C45.11692977 195.85046511 46.36910623 193.83859591 49 191 C56.0671924 185.6635486 62.31859774 185.01001553 71 186 C79.76927935 188.89551677 86.16246808 193.45391488 90.375 201.6875 C91 204 91 204 91 208 C103.2240548 201.95645227 114.63822274 195.93357167 125 187 C125.86496094 186.26136719 126.72992187 185.52273437 127.62109375 184.76171875 C130.13155404 182.55674349 132.57272312 180.29607273 135 178 C135.88300781 177.18144531 136.76601563 176.36289063 137.67578125 175.51953125 C153.0786522 160.77024747 164.76578779 142.41244166 171 122 C171.23332031 121.2884375 171.46664062 120.576875 171.70703125 119.84375 C173.59728918 113.42503241 173.64549499 106.64230435 174 100 C177.3 99.67 180.6 99.34 184 99 C185.43304001 127.5015735 171.59114185 153.78702894 153.01171875 174.54248047 C150.71140552 177.06391536 148.35957178 179.53414862 146 182 C145.113125 182.93972656 144.22625 183.87945312 143.3125 184.84765625 C128.8566105 199.7868095 110.84643211 212.38452263 91 219 C89.78667776 220.82351461 89.78667776 220.82351461 88.75 223.0625 C81.32761121 236.91908973 69.48455875 243.00294237 55 248 C55.71317383 248.06993164 56.42634766 248.13986328 57.16113281 248.21191406 C82.60629668 250.75234615 110.33395342 253.64357466 133.19921875 266.1640625 C138.75217438 269.36790464 138.75217438 269.36790464 144.97265625 269.63818359 C148.84274865 268.43813422 152.47244579 266.78455125 156.1484375 265.09375 C161.19534108 262.80101972 166.29730266 261.43010461 171.6875 260.1875 C172.49324463 259.99373779 173.29898926 259.79997559 174.12915039 259.6003418 C187.16673537 256.62831918 200.11549055 255.58750309 213.4375 255.625 C214.5407663 255.62581573 214.5407663 255.62581573 215.6663208 255.62664795 C229.07128663 255.6718629 241.92506152 256.89251416 255 260 C255.86189941 260.20367187 256.72379883 260.40734375 257.61181641 260.6171875 C270.87238839 263.89003101 284.29703738 268.87314272 296 276 C296.33 276.66 296.66 277.32 297 278 C291.66996407 278.1105307 286.43561078 277.97849412 281.125 277.5 C269.12040049 276.54874267 257.03257258 276.91868193 245 277 C246.22589844 277.37769531 247.45179688 277.75539063 248.71484375 278.14453125 C277.6883365 287.30036032 304.80157473 300.50105078 329.19921875 318.6796875 C330.4572764 319.60208118 331.73237872 320.50147402 333.01953125 321.3828125 C334.71198474 322.5427706 336.36058679 323.7662148 338 325 C338 325.66 338 326.32 338 327 C323.46145383 326.29213071 309.02266727 324.54624577 294.5625 322.9375 C291.98115222 322.65270075 289.39977224 322.36819311 286.81835938 322.08398438 C280.54519769 321.39268574 274.27244346 320.69778375 268 320 C269.09837725 321.27212531 270.19919887 322.54214033 271.30102539 323.8112793 C271.91377823 324.51874802 272.52653107 325.22621674 273.15785217 325.9551239 C275.73084214 328.81127127 278.50458747 331.33415869 281.4375 333.8125 C282.03385254 334.31821533 282.63020508 334.82393066 283.24462891 335.3449707 C305.73645904 354.07456286 331.98265815 366.91807447 360 375 C360 375.99 360 376.98 360 378 C327.43554959 389.70656338 290.57729394 387.24935918 259.3125 372.8125 C248.07350562 367.42456456 238.23634863 360.35669638 229 352 C232.75793623 360.28454122 237.030497 367.14938954 243 374 C243.67804687 374.82242187 244.35609375 375.64484375 245.0546875 376.4921875 C250.26361107 382.61696576 256.02652763 387.33918121 262.47265625 392.06640625 C263.30667969 392.70449219 264.14070312 393.34257812 265 394 C265 394.33 265 394.66 265 395 C238.80759953 394.06455713 214.17597788 374.2203197 196.5703125 356.703125 C194.59427871 354.55996398 192.81299209 352.28171687 191 350 C191.27263672 350.89307861 191.54527344 351.78615723 191.82617188 352.70629883 C192.83584241 356.02073652 193.84178344 359.33625849 194.84521484 362.65258789 C195.2802473 364.08761105 195.71676096 365.52218604 196.15478516 366.95629883 C196.7841779 369.01788118 197.40822413 371.08101718 198.03125 373.14453125 C198.59682617 375.00621948 198.59682617 375.00621948 199.17382812 376.90551758 C200 380 200 380 200 383 C191.21075875 378.92068848 184.02539798 371.51938104 177 365 C176.40574219 364.47148437 175.81148437 363.94296875 175.19921875 363.3984375 C156.12101745 345.6406845 140.27977006 315.0949812 138.88671875 288.8671875 C138.87253906 288.17882812 138.85835937 287.49046875 138.84375 286.78125 C138.68729254 282.80723048 138.4346949 279.71359934 137 276 C132.51812707 272.26184398 127.46851456 270.73117674 122 269 C120.25939835 268.39484817 118.51985335 267.7866505 116.78125 267.17578125 C108.02173173 264.17754114 99.17937373 261.62705009 90.125 259.6875 C89.43825195 259.54030518 88.75150391 259.39311035 88.04394531 259.24145508 C74.87104838 256.62250663 61.77914383 255.6178438 48.375 255.6875 C47.64009338 255.68932281 46.90518677 255.69114563 46.14801025 255.69302368 C0.70041181 255.88168708 -38.09820638 273.80002329 -71 305 C-71.47147461 305.44424316 -71.94294922 305.88848633 -72.42871094 306.34619141 C-85.35789927 318.18207524 -85.35789927 318.18207524 -94 333 C-93.43070288 335.33713411 -93.43070288 335.33713411 -92.41796875 337.859375 C-92.06283203 338.81070312 -91.70769531 339.76203125 -91.34179688 340.7421875 C-90.96087891 341.73476563 -90.57996094 342.72734375 -90.1875 343.75 C-85.64495248 355.76832816 -85.64495248 355.76832816 -84 362 C-83.35264893 361.74831055 -82.70529785 361.49662109 -82.03833008 361.23730469 C-64.19012481 354.36934174 -46.2676403 348.67451404 -27 348 C-25.97777344 347.96003906 -24.95554687 347.92007812 -23.90234375 347.87890625 C-0.91816347 347.43030572 26.04344641 351.07459467 45.97265625 363.3828125 C57.99185623 370.62094117 68.0727617 370.58697672 81.91796875 370.13671875 C91.19553113 369.85310351 99.95433935 371.02835925 109 373 C109.74185547 373.16097168 110.48371094 373.32194336 111.24804688 373.48779297 C158.54279825 384.23753886 203.36685913 418.43725668 232.80859375 456.203125 C234.4086221 458.24522892 236.02771285 460.21244336 237.72265625 462.171875 C253.70625886 480.86342195 267.34538422 502.37926208 279 524 C279.47308594 524.8760791 279.94617188 525.7521582 280.43359375 526.65478516 C284.04827476 533.39006254 287.55457744 540.17673465 291 547 C291.4640625 547.9173291 291.928125 548.8346582 292.40625 549.77978516 C327.94735888 620.59695914 345.94041736 699.51727802 353.23828125 778.0234375 C353.30153091 778.69508438 353.36478058 779.36673126 353.4299469 780.05873108 C354.56238894 792.67457545 355.15912637 805.25095019 355.203125 817.91796875 C355.21015207 819.29653452 355.21723884 820.67509998 355.22438049 822.05366516 C355.24375619 826.43161497 355.24881469 830.80951162 355.25 835.1875 C355.25044186 835.93452179 355.25088371 836.68154358 355.25133896 837.45120239 C355.25856213 860.75494761 354.85929885 883.84512366 352 907 C351.82663941 908.44840246 351.65330002 909.89680747 351.47998047 911.34521484 C341.68455249 991.87567065 316.35460732 1072.86420037 243.1875 1149.625 C214.9829751 1171.41249872 183.90695665 1185.24201682 147.81103516 1185.13037109 C145.76847789 1185.12504815 143.72614402 1185.13032194 141.68359375 1185.13671875 C135.51544778 1185.1356909 129.52143828 1184.97925167 123.3984375 1184.171875 C119.21894819 1183.7869961 118.34816774 1183.78691813 114.6171875 1186.0703125 C113.67383123 1187.06146326 112.76056009 1188.08188725 111.875 1189.125 C110.79376578 1190.24664482 109.70343663 1191.35957407 108.60546875 1192.46484375 C108.03103027 1193.04733887 107.4565918 1193.62983398 106.86474609 1194.22998047 C96.53834427 1204.03181514 83.61168272 1211.54114333 71 1218 C70.38592285 1218.31662598 69.7718457 1218.63325195 69.13916016 1218.95947266 C34.50930742 1236.5733287 -5.44380689 1240.21140963 -42.640625 1228.76953125 C-43.80851563 1228.38861328 -43.80851563 1228.38861328 -45 1228 C-41.47172033 1223.79852489 -37.84373596 1219.73170629 -34.05444336 1215.7644043 C-26.84501996 1208.20335099 -20.246062 1200.36838448 -14 1192 C-13.49645996 1191.33162109 -12.99291992 1190.66324219 -12.47412109 1189.97460938 C16.37297843 1151.53547215 36.89122715 1107.99161357 52.4375 1062.6875 C52.68893768 1061.95591675 52.94037537 1061.2243335 53.19943237 1060.47058105 C56.42319789 1051.05275565 59.36964587 1041.60296483 62 1032 C62.22453857 1031.18539307 62.44907715 1030.37078613 62.68041992 1029.53149414 C64.17803437 1024.0361308 65.59044686 1018.51848607 67 1013 C67.23477051 1012.08911621 67.46954102 1011.17823242 67.71142578 1010.23974609 C74.47274521 983.81406756 78.90259703 957.23143121 82.25 930.1875 C82.37487793 929.19129639 82.49975586 928.19509277 82.62841797 927.16870117 C86.33870856 897.30160105 87.35861489 867.66023587 87.60089111 837.60174561 C87.64165448 832.78000637 87.6924071 827.95837183 87.7421875 823.13671875 C87.83761149 813.75788723 87.92241978 804.37899498 88 795 C87.38199524 795.00589142 86.76399048 795.01178284 86.1272583 795.01785278 C83.27756074 795.04150214 80.42788395 795.05595661 77.578125 795.0703125 C76.60633301 795.07973877 75.63454102 795.08916504 74.63330078 795.09887695 C43.24840189 795.21706276 15.07061305 781.94290483 -7.1875 760.3125 C-26.64342994 740.75227023 -37.05770694 714.0035321 -37.25 686.5625 C-37.01738526 657.3736583 -25.5239798 629.90493534 -5 609 C8.61372338 595.6343627 25.2519902 586.60688873 43 580 C41.09220803 573.28098407 38.87576884 566.78353432 36.25 560.3125 C35.89784424 559.44093262 35.54568848 558.56936523 35.18286133 557.67138672 C32.34023485 550.70455367 29.31730368 543.84948541 26.01757812 537.08642578 C25.29015382 535.5949267 24.56809383 534.10080656 23.84960938 532.60498047 C16.6393407 517.61954411 8.60331796 503.22790045 0 489 C-0.77561279 487.71367676 -0.77561279 487.71367676 -1.56689453 486.40136719 C-11.99199068 469.2174412 -23.7408875 453.10366988 -37 438 C-37.94939453 436.90171875 -37.94939453 436.90171875 -38.91796875 435.78125 C-40.599115 433.84235364 -42.29604472 431.91886855 -44 430 C-44.69609375 429.21109375 -45.3921875 428.4221875 -46.109375 427.609375 C-53.5862772 419.20430563 -61.35233141 411.20639049 -70 404 C-70.50208984 403.57879883 -71.00417969 403.15759766 -71.52148438 402.72363281 C-107.10048302 373.03314439 -150.34615586 352.3878795 -197.375 352.5 C-198.05111328 352.50127899 -198.72722656 352.50255798 -199.42382812 352.50387573 C-213.68525592 352.59993649 -227.32670306 354.44379561 -241.0625 358.25 C-242.18140625 358.55357422 -243.3003125 358.85714844 -244.453125 359.16992188 C-251.83454665 361.23174755 -258.76481703 363.68788153 -265.65625 367.03125 C-266.81640625 367.51078125 -266.81640625 367.51078125 -268 368 C-268.66 367.67 -269.32 367.34 -270 367 C-269.63390625 366.51015625 -269.2678125 366.0203125 -268.890625 365.515625 C-247.39127221 335.82604258 -230.44221979 301.37436578 -218 267 C-217.63358398 265.9898584 -217.26716797 264.9797168 -216.88964844 263.93896484 C-206.90486629 236.07679277 -200.97903362 205.9546515 -213.55859375 177.75390625 C-219.03643433 167.28811326 -226.92721799 160.3738941 -238.1484375 156.6953125 C-249.40836073 153.94974218 -259.71994433 157.25281211 -269.5 163 C-286.2115782 174.3417195 -297.2334495 190.72244506 -301.77734375 210.359375 C-306.37021097 236.41564131 -297.89137257 261.62590805 -285 284 C-284.23816406 285.03253906 -283.47632813 286.06507813 -282.69140625 287.12890625 C-281 290 -281 290 -281.09375 292.60546875 C-285.78667604 305.00531213 -296.1364654 311.98036295 -307.5703125 317.5546875 C-318.16392088 322.01896438 -330.53709565 323.19354934 -341.4375 319 C-357.90123727 310.93704796 -367.00062705 296.20042369 -373.1875 279.4375 C-384.18598253 243.81898336 -377.72542795 204.70195614 -361 172 C-356.19308693 162.98624284 -350.70943633 154.72365345 -344 147 C-343.31421875 146.19304687 -342.6284375 145.38609375 -341.921875 144.5546875 C-318.1575401 117.28554061 -285.30599924 100.71768929 -249.08203125 98.16015625 C-216.68715435 96.47677228 -185.53984632 105.4346805 -161 127 C-160.16984375 127.68578125 -159.3396875 128.3715625 -158.484375 129.078125 C-132.0750974 151.50109655 -118.33152178 185.85300763 -115.50238037 219.69865417 C-115.20560919 223.34042782 -114.91503648 226.98268483 -114.625 230.625 C-112.24435391 260.51751264 -107.91025139 290.59541994 -98 319 C-97.49452637 318.34064453 -96.98905273 317.68128906 -96.46826172 317.00195312 C-77.07673883 291.99587805 -51.9868166 273.42158181 -23.6484375 259.75390625 C-23.05732178 259.46700928 -22.46620605 259.1801123 -21.85717773 258.88452148 C-20.53946563 258.25693229 -19.21231098 257.64899917 -17.87915039 257.05493164 C-10.62967186 253.70857169 -7.98863146 248.85505727 -5 241.55859375 C-0.0240363 227.42015844 0.19234493 209.71514063 -6 196 C-7.83457902 192.44367079 -9.75741294 188.93628928 -11.72924805 185.4543457 C-14.39833107 180.60847113 -15.72648901 176.43331898 -16.75 171 C-18.14395023 165.0205212 -19.84376943 162.68233458 -24.9375 159.25 C-26.68413434 158.19506267 -28.44180025 157.16119907 -30.20361328 156.13183594 C-35.57997853 152.74438972 -40.26179312 148.20742414 -45 144 C-45.98226562 143.14535156 -45.98226562 143.14535156 -46.984375 142.2734375 C-61.65492646 128.65078258 -73.99055905 107.18357816 -75.10839844 87.04736328 C-75.16957275 84.88470108 -75.1855871 82.72599142 -75.1875 80.5625 C-75.19974609 79.83740234 -75.21199219 79.11230469 -75.22460938 78.36523438 C-75.23762586 73.53611817 -74.52787035 69.58361106 -73 65 C-69.48470265 69.25827818 -67.22588114 74.19413799 -64.75585938 79.09765625 C-61.33095696 85.7307713 -57.2142795 91.8455248 -53 98 C-53.01571045 97.18023682 -53.0314209 96.36047363 -53.04760742 95.51586914 C-53.44679007 71.50259062 -52.5112139 48.75482388 -41 27 C-40.34 27 -39.68 27 -39 27 C-34.38574219 37.15136719 -34.38574219 37.15136719 -29.77148438 47.30273438 C-29.43929901 48.03338104 -29.10711365 48.76402771 -28.76486206 49.51681519 C-28.10366549 50.971772 -27.44295634 52.42695042 -26.78274536 53.88235474 C-25.33168411 57.07983494 -23.8733685 60.27303833 -22.39599609 63.45849609 C-21.93918457 64.44543457 -21.48237305 65.43237305 -21.01171875 66.44921875 C-20.61815186 67.29186279 -20.22458496 68.13450684 -19.8190918 69.00268555 C-19 71 -19 71 -19 73 C-6.85658348 61.65771166 0.09736727 42.76897378 1.17285156 26.36328125 C1.2307612 23.69747473 1.22452927 21.04110772 1.1875 18.375 C1.18685547 17.48554688 1.18621094 16.59609375 1.18554688 15.6796875 C1.15041111 10.3702836 0.76542082 5.2538485 0 0 Z M56 198 C53.73420616 200.79776555 53.73420616 200.79776555 54 203.875 C55.3925418 208.22669313 57.27732075 209.39412453 61 212 C67.86386596 214.28795532 75.28273733 213.38836006 82 211 C81.68932597 206.65056362 80.67942294 203.67684961 77.73046875 200.390625 C70.65582549 194.70535863 63.95110651 194.09672953 56 198 Z " fill="#FBB74F" transform="translate(719,0)"/>
<path d="M0 0 C0.6923877 0.16097168 1.38477539 0.32194336 2.09814453 0.48779297 C16.43722118 3.96971011 31.97788445 9.32282658 44 18 C40.56385248 20.78253251 37.06255044 23.44441692 33.5 26.0625 C22.66764311 34.17549961 12.84967469 42.96330979 3.25 52.5 C1.93721069 53.7988916 1.93721069 53.7988916 0.59790039 55.12402344 C-5.35625292 61.10688639 -10.75911181 67.387416 -16 74 C-16.82628906 75.01449219 -17.65257812 76.02898437 -18.50390625 77.07421875 C-32.01941663 94.23147955 -43.55449945 112.84868707 -54 132 C-54.45149414 132.81404297 -54.90298828 133.62808594 -55.36816406 134.46679688 C-73.40943847 167.07338485 -88.51570452 203.69614619 -97 240 C-96.030625 239.95617187 -95.06125 239.91234375 -94.0625 239.8671875 C-89.50659609 239.8740488 -85.37420473 240.93008658 -81 242.125 C-80.16694336 242.3509082 -79.33388672 242.57681641 -78.47558594 242.80957031 C-60.11644608 247.94170463 -44.20444184 256.21382041 -30 269 C-29.17113281 269.73476563 -28.34226562 270.46953125 -27.48828125 271.2265625 C-7.7862581 289.72233933 4.04193763 316.46471752 5.09790039 343.36938477 C5.53268238 374.67064739 -6.30263508 402.66655598 -28 425 C-49.38651142 446.45272353 -78.45896992 459.01577273 -108.74633789 459.19995117 C-113.4988601 459.18210691 -118.24890171 459.11699257 -123 459 C-121.51000624 495.79970539 -118.05896964 532.65698247 -112 569 C-111.80889648 570.14629883 -111.61779297 571.29259766 -111.42089844 572.47363281 C-108.54748126 589.24509949 -104.71303171 605.7080954 -100.5 622.1875 C-100.27279266 623.07817169 -100.04558533 623.96884338 -99.81149292 624.88650513 C-95.03349227 643.5270186 -89.55978328 661.92409652 -83.3125 680.125 C-83.05677216 680.87113556 -82.80104431 681.61727112 -82.53756714 682.38601685 C-77.66309031 696.54649669 -72.15215747 710.3421275 -66 724 C-65.48824219 725.14549316 -64.97648437 726.29098633 -64.44921875 727.47119141 C-44.14476577 772.74246415 -17.96863396 817.27404438 18 852 C20.49700942 854.48107954 22.97636611 856.97568217 25.4296875 859.5 C30.02964434 864.20283128 34.4855755 868.4036362 40 872 C13.53894045 886.61081405 -23.60775387 884.26088334 -51.8125 877.1875 C-75.98956511 870.20828186 -104.91740534 857.92273646 -121.9375 838.76953125 C-127.06724544 833.25032749 -131.16013826 829.78313514 -138.93359375 829.34375 C-144.55193114 829.31933892 -150.15285115 829.64634665 -155.76269531 829.92675781 C-199.4619917 830.91542968 -241.12755394 805.1390159 -271.82177734 776.28759766 C-279.46327465 768.96946442 -286.516512 761.37500101 -293 753 C-294.16208984 751.5459375 -294.16208984 751.5459375 -295.34765625 750.0625 C-343.19485251 689.40044452 -366.25036238 612.68386282 -376.25 537.0625 C-376.40106201 535.92965576 -376.55212402 534.79681152 -376.70776367 533.62963867 C-377.19083448 529.7577158 -377.61290166 525.88244305 -378 522 C-378.1308046 520.70455261 -378.1308046 520.70455261 -378.26425171 519.38293457 C-380.03618758 501.19238476 -380.34486275 483.08467154 -380.31567383 464.82714844 C-380.31106729 461.71013866 -380.31789434 458.59352152 -380.33618164 455.4765625 C-380.46947215 432.5013073 -379.34067363 409.85651945 -377 387 C-376.89767059 385.99978821 -376.79534119 384.99957642 -376.68991089 383.96905518 C-376.15367218 378.88240396 -375.52564924 373.81469734 -374.8125 368.75 C-374.71151001 368.01703705 -374.61052002 367.2840741 -374.50646973 366.52890015 C-363.03710408 284.03493318 -335.85681392 199.71747639 -288 131 C-287.62697754 130.46246094 -287.25395508 129.92492187 -286.86962891 129.37109375 C-280.57081602 120.32347377 -273.96613037 111.544487 -267 103 C-266.54383301 102.43796875 -266.08766602 101.8759375 -265.61767578 101.296875 C-258.36034121 92.43667795 -250.44488951 84.2396066 -242.375 76.125 C-241.89389771 75.63863068 -241.41279541 75.15226135 -240.91711426 74.65115356 C-234.29452186 67.97252124 -227.39430633 61.81762155 -220 56 C-219.32646484 55.46181641 -218.65292969 54.92363281 -217.95898438 54.36914062 C-188.36935264 30.9058574 -148.99780235 10.1406982 -110.29296875 9.9296875 C-99.97141755 9.86004958 -91.54892596 8.64751179 -81.97998047 4.73339844 C-76.49263278 2.49418238 -71.10875572 0.86589364 -65.3125 -0.375 C-64.59425049 -0.53009033 -63.87600098 -0.68518066 -63.13598633 -0.8449707 C-42.91257635 -5.0004659 -20.1096386 -4.72147495 0 0 Z " fill="#FBB74F" transform="translate(380,364)"/>
<path d="M0 0 C1.16917969 0.00491455 2.33835937 0.0098291 3.54296875 0.01489258 C61.40536445 0.78475933 108.04780147 34.6124563 147.15234375 74.24609375 C150.96049507 78.1622522 154.511485 82.20614585 157.87109375 86.515625 C159.4711221 88.55772892 161.09021285 90.52494336 162.78515625 92.484375 C178.76875886 111.17592195 192.40788422 132.69176208 204.0625 154.3125 C204.53558594 155.1885791 205.00867188 156.0646582 205.49609375 156.96728516 C209.11077476 163.70256254 212.61707744 170.48923465 216.0625 177.3125 C216.5265625 178.2298291 216.990625 179.1471582 217.46875 180.09228516 C253.00985888 250.90945914 271.00291736 329.82977802 278.30078125 408.3359375 C278.36403091 409.00758438 278.42728058 409.67923126 278.4924469 410.37123108 C279.62488894 422.98707545 280.22162637 435.56345019 280.265625 448.23046875 C280.27265207 449.60903452 280.27973884 450.98759998 280.28688049 452.36616516 C280.30625619 456.74411497 280.31131469 461.12201162 280.3125 465.5 C280.31316278 466.62053268 280.31316278 466.62053268 280.31383896 467.76370239 C280.32106213 491.06744761 279.92179885 514.15762366 277.0625 537.3125 C276.88913941 538.76090246 276.71580002 540.20930747 276.54248047 541.65771484 C266.74705249 622.18817065 241.41710732 703.17670037 168.25 779.9375 C140.0454751 801.72499872 108.96945665 815.55451682 72.87353516 815.44287109 C70.83097789 815.43754815 68.78864402 815.44282194 66.74609375 815.44921875 C60.57794778 815.4481909 54.58393828 815.29175167 48.4609375 814.484375 C44.28144819 814.0994961 43.41066774 814.09941813 39.6796875 816.3828125 C38.73633123 817.37396326 37.82306009 818.39438725 36.9375 819.4375 C35.85626578 820.55914482 34.76593663 821.67207407 33.66796875 822.77734375 C32.80631104 823.65108643 32.80631104 823.65108643 31.92724609 824.54248047 C21.60084427 834.34431514 8.67418272 841.85364333 -3.9375 848.3125 C-4.85861572 848.78743896 -4.85861572 848.78743896 -5.79833984 849.27197266 C-40.42819258 866.8858287 -80.38130689 870.52390963 -117.578125 859.08203125 C-118.35671875 858.82808594 -119.1353125 858.57414062 -119.9375 858.3125 C-116.40922033 854.11102489 -112.78123596 850.04420629 -108.99194336 846.0769043 C-101.78251996 838.51585099 -95.183562 830.68088448 -88.9375 822.3125 C-88.43395996 821.64412109 -87.93041992 820.97574219 -87.41162109 820.28710938 C-58.56452157 781.84797215 -38.04627285 738.30411357 -22.5 693 C-22.12284348 691.90262512 -22.12284348 691.90262512 -21.73806763 690.78308105 C-17.17426479 677.45050517 -13.25040424 664.01587661 -9.9375 650.3125 C-9.6075 650.3125 -9.2775 650.3125 -8.9375 650.3125 C-8.92291748 651.02978271 -8.90833496 651.74706543 -8.89331055 652.48608398 C-8.10672062 687.46571037 -6.05404193 724.88781042 15.0625 754.3125 C15.52011719 754.96605469 15.97773437 755.61960937 16.44921875 756.29296875 C21.78841919 763.22322033 30.39544634 768.96761236 39.0625 770.3125 C55.07532161 771.92723831 68.63656566 765.8671918 81.0625 756.3125 C84.90756401 753.16846326 88.51984499 749.79179045 92.0625 746.3125 C92.85398437 745.63832031 93.64546875 744.96414063 94.4609375 744.26953125 C98.43037423 739.75772404 100.90924493 734.58516657 103.625 729.25 C103.92796997 728.65903534 104.23093994 728.06807068 104.54309082 727.459198 C115.46299226 706.11332274 124.19350295 683.99850753 131.99951172 661.35620117 C133.02224258 658.42777085 134.08695625 655.51817185 135.1640625 652.609375 C136.96885822 647.66760867 138.51542175 642.68893723 139.9375 637.625 C140.18943115 636.73345215 140.4413623 635.8419043 140.70092773 634.92333984 C153.94393236 587.52775554 162.28788168 538.48031598 165.0625 489.3125 C165.12445053 488.26760406 165.12445053 488.26760406 165.18765259 487.20159912 C166.07176153 472.02972551 166.26533198 456.88280629 166.25 441.6875 C166.24906342 440.47951752 166.24812683 439.27153503 166.24716187 438.02694702 C166.11398559 358.40262526 154.1377919 279.01564299 128.4375 203.5625 C128.02078033 202.33589157 128.02078033 202.33589157 127.59564209 201.08450317 C124.39242423 191.68310725 121.03883124 182.4208136 117.0625 173.3125 C116.42393066 171.82508301 116.42393066 171.82508301 115.77246094 170.30761719 C110.54523893 158.16734586 105.22979115 146.09653125 99.12548828 134.36914062 C97.94938137 132.09364118 96.80111633 129.80503885 95.65234375 127.515625 C85.94035734 108.34871809 74.77425019 90.00110179 61.47119141 73.10644531 C60.05189529 71.29899508 58.65502969 69.47597021 57.26171875 67.6484375 C52.03983644 60.84104531 46.56140385 54.38511559 40.69140625 48.12890625 C38.2010021 45.46088041 35.78490656 42.740597 33.375 40 C29.52935787 35.7270643 25.46640635 31.99507686 21.0625 28.3125 C19.66257812 27.08080078 19.66257812 27.08080078 18.234375 25.82421875 C7.9748272 16.84509864 -3.01952998 8.94899235 -14.9375 2.3125 C-10.2758028 -0.79529814 -5.48688685 -0.02682789 0 0 Z " fill="#F8991C" transform="translate(793.9375,369.6875)"/>
<path d="M0 0 C0.9178125 0.00451172 1.835625 0.00902344 2.78125 0.01367188 C5.02090391 0.02533674 7.26041545 0.04170386 9.5 0.0625 C7.34222841 2.22027159 5.18490542 3.236732 2.44799805 4.52319336 C-11.52540613 11.10752855 -23.83574118 19.97053939 -35.5 30.0625 C-36.28117188 30.7328125 -37.06234375 31.403125 -37.8671875 32.09375 C-49.31493232 42.15275201 -60.23767523 52.945238 -69.5 65.0625 C-69.94907715 65.6404834 -70.3981543 66.2184668 -70.86083984 66.81396484 C-86.7941109 87.34061134 -100.27126711 109.59509583 -111.51708984 133.01855469 C-112.5698418 135.20773487 -113.63850357 137.38879305 -114.70703125 139.5703125 C-135.23536643 181.8035427 -148.51312204 227.67675611 -156.89233398 273.78222656 C-157.31297282 276.05289888 -157.75117142 278.32036229 -158.20336914 280.58496094 C-160.53624671 292.42634666 -162.08692747 304.33741434 -163.5625 316.3125 C-163.76001358 317.90354553 -163.76001358 317.90354553 -163.96151733 319.5267334 C-165.99919513 336.01880481 -167.73298256 352.45568044 -168.5 369.0625 C-168.55494629 370.19381348 -168.60989258 371.32512695 -168.66650391 372.49072266 C-169.05061031 380.67932729 -169.31898143 388.86697278 -169.5 397.0625 C-169.53504639 398.61880127 -169.53504639 398.61880127 -169.57080078 400.20654297 C-170.18771049 432.80944366 -168.4131604 465.70037782 -164.5 498.0625 C-164.32923373 499.51607149 -164.15883848 500.9696866 -163.98876953 502.42333984 C-159.32696407 541.98121382 -152.39157214 581.46583683 -140.31542969 619.49267578 C-139.42041768 622.31330344 -138.5424465 625.13899596 -137.6640625 627.96484375 C-133.01717839 642.81018889 -128.05818458 657.53194991 -122.5 672.0625 C-122.11618164 673.06619629 -121.73236328 674.06989258 -121.33691406 675.10400391 C-115.80889511 689.28767619 -109.01902065 701.19495457 -99.5 713.0625 C-98.30890625 714.5784375 -98.30890625 714.5784375 -97.09375 716.125 C-94.93903855 718.81058239 -92.73132236 721.44031675 -90.5 724.0625 C-89.56727388 725.18062731 -88.63500949 726.2991399 -87.703125 727.41796875 C-77.90160646 739.109459 -67.57562474 749.68935218 -55.5 759.0625 C-54.58992187 759.78953125 -53.67984375 760.5165625 -52.7421875 761.265625 C-40.17021491 771.06285704 -26.60048237 778.9041616 -11.5 784.0625 C-10.53191406 784.40152344 -9.56382812 784.74054687 -8.56640625 785.08984375 C3.79907913 788.81149469 18.90225184 789.14552944 30.5 783.0625 C33.77611403 781.35084023 33.77611403 781.35084023 36.5 779.0625 C37.06203125 778.61648438 37.6240625 778.17046875 38.203125 777.7109375 C47.32321327 769.66146829 50.34558373 757.60941528 52.5 746.0625 C55.20906019 747.4170301 55.66027458 748.94439243 57.0625 751.625 C57.60261719 752.63304687 58.14273437 753.64109375 58.69921875 754.6796875 C59.91068114 756.95544983 61.12160931 759.23149661 62.33203125 761.5078125 C72.36646108 780.03196314 84.49314566 797.50787689 97.5 814.0625 C98.27601563 815.05121094 99.05203125 816.03992187 99.8515625 817.05859375 C104.66098963 823.0491346 109.77392583 828.71567168 115 834.33984375 C116.96266511 836.47730872 118.84434926 838.63617288 120.6875 840.875 C123.27661799 843.93486672 126.15809394 846.49890974 129.20703125 849.09375 C131.97562503 851.47087311 134.6779129 853.91759501 137.375 856.375 C138.30054688 857.21675781 139.22609375 858.05851562 140.1796875 858.92578125 C141.64635496 860.27639926 143.09016269 861.65266269 144.5 863.0625 C101.92004376 876.49953718 59.679338 874.66200386 19.5090332 854.3034668 C6.71396381 847.61680898 -7.79951945 839.67792976 -17.4375 828.83203125 C-22.56724544 823.31282749 -26.66013826 819.84563514 -34.43359375 819.40625 C-40.05193114 819.38183892 -45.65285115 819.70884665 -51.26269531 819.98925781 C-94.9619917 820.97792968 -136.62755394 795.2015159 -167.32177734 766.35009766 C-174.96327465 759.03196442 -182.016512 751.43750101 -188.5 743.0625 C-189.66208984 741.6084375 -189.66208984 741.6084375 -190.84765625 740.125 C-238.69485251 679.46294452 -261.75036238 602.74636282 -271.75 527.125 C-271.90106201 525.99215576 -272.05212402 524.85931152 -272.20776367 523.69213867 C-272.69083448 519.8202158 -273.11290166 515.94494305 -273.5 512.0625 C-273.6308046 510.76705261 -273.6308046 510.76705261 -273.76425171 509.44543457 C-275.53618758 491.25488476 -275.84486275 473.14717154 -275.81567383 454.88964844 C-275.81106729 451.77263866 -275.81789434 448.65602152 -275.83618164 445.5390625 C-275.96947215 422.5638073 -274.84067363 399.91901945 -272.5 377.0625 C-272.39767059 376.06228821 -272.29534119 375.06207642 -272.18991089 374.03155518 C-271.65367218 368.94490396 -271.02564924 363.87719734 -270.3125 358.8125 C-270.21151001 358.07953705 -270.11052002 357.3465741 -270.00646973 356.59140015 C-258.53710408 274.09743318 -231.35681392 189.77997639 -183.5 121.0625 C-183.12697754 120.52496094 -182.75395508 119.98742187 -182.36962891 119.43359375 C-176.07081602 110.38597377 -169.46613037 101.606987 -162.5 93.0625 C-162.04383301 92.50046875 -161.58766602 91.9384375 -161.11767578 91.359375 C-153.86034121 82.49917795 -145.94488951 74.3021066 -137.875 66.1875 C-137.39389771 65.70113068 -136.91279541 65.21476135 -136.41711426 64.71365356 C-129.79452186 58.03502124 -122.89430633 51.88012155 -115.5 46.0625 C-114.82646484 45.52431641 -114.15292969 44.98613281 -113.45898438 44.43164062 C-81.68382396 19.23532879 -41.27767472 -0.38997803 0 0 Z " fill="#F8991C" transform="translate(275.5,373.9375)"/>
<path d="M0 0 C10.23499432 1.87756048 20.1640859 13.89506168 26.078125 21.765625 C36.2326271 37.21812819 41.5777273 54.14515963 37.8125 72.5625 C36.33411976 78.50445136 34.02943771 83.69549049 31 89 C44.23294594 80.99058535 52.59877011 69.86441497 59 56 C59.66 56 60.32 56 61 56 C63.99828292 68.09063681 62.75425801 81.62095625 58 93 C57.63777344 93.87914063 57.27554687 94.75828125 56.90234375 95.6640625 C53.9111454 102.21427991 49.66787158 107.5560803 45 113 C48.0007008 111.58481442 51.00042767 110.16757567 54 108.75 C54.83917969 108.35425781 55.67835938 107.95851563 56.54296875 107.55078125 C60.55730888 105.65252739 64.54833379 103.72897919 68.5 101.703125 C72 100 72 100 74 100 C72.03151387 115.19494346 58.46260558 130.42580898 46.7265625 139.58203125 C32.40595947 150.50548687 10.60946275 166 -8 166 C-5.38222171 173.34991597 -2.43586382 180.31805421 1.125 187.25 C5.66571206 196.15520799 8.50824992 203.92657422 9 214 C9.07927734 215.33804688 9.07927734 215.33804688 9.16015625 216.703125 C9.48108644 226.91707698 8.22560672 238.61180419 4 248 C12.62867667 246.29524625 21.24348119 244.52652432 29.84838867 242.70581055 C31.48490917 242.3615786 33.12228269 242.02137624 34.76049805 241.68530273 C58.14389633 237.32332401 58.14389633 237.32332401 76 223 C74.9378125 222.97421875 73.875625 222.9484375 72.78125 222.921875 C56.48641335 222.3477604 56.48641335 222.3477604 50.23046875 216.28515625 C45.44396598 210.9830115 44.63852045 206.81266612 44.72265625 199.7265625 C45.11692977 195.85046511 46.36910623 193.83859591 49 191 C56.0671924 185.6635486 62.31859774 185.01001553 71 186 C79.76927935 188.89551677 86.16246808 193.45391488 90.375 201.6875 C91 204 91 204 91 208 C103.2240548 201.95645227 114.63822274 195.93357167 125 187 C125.86496094 186.26136719 126.72992187 185.52273437 127.62109375 184.76171875 C130.13155404 182.55674349 132.57272312 180.29607273 135 178 C135.88300781 177.18144531 136.76601563 176.36289063 137.67578125 175.51953125 C153.0786522 160.77024747 164.76578779 142.41244166 171 122 C171.23332031 121.2884375 171.46664062 120.576875 171.70703125 119.84375 C173.59728918 113.42503241 173.64549499 106.64230435 174 100 C177.3 99.67 180.6 99.34 184 99 C185.43304001 127.5015735 171.59114185 153.78702894 153.01171875 174.54248047 C150.71140552 177.06391536 148.35957178 179.53414862 146 182 C145.113125 182.93972656 144.22625 183.87945312 143.3125 184.84765625 C128.8566105 199.7868095 110.84643211 212.38452263 91 219 C89.78667776 220.82351461 89.78667776 220.82351461 88.75 223.0625 C81.32761121 236.91908973 69.48455875 243.00294237 55 248 C55.71317383 248.06993164 56.42634766 248.13986328 57.16113281 248.21191406 C82.60629668 250.75234615 110.33395342 253.64357466 133.19921875 266.1640625 C138.75217438 269.36790464 138.75217438 269.36790464 144.97265625 269.63818359 C148.84274865 268.43813422 152.47244579 266.78455125 156.1484375 265.09375 C161.19534108 262.80101972 166.29730266 261.43010461 171.6875 260.1875 C172.49324463 259.99373779 173.29898926 259.79997559 174.12915039 259.6003418 C187.16673537 256.62831918 200.11549055 255.58750309 213.4375 255.625 C214.5407663 255.62581573 214.5407663 255.62581573 215.6663208 255.62664795 C229.07128663 255.6718629 241.92506152 256.89251416 255 260 C255.86189941 260.20367187 256.72379883 260.40734375 257.61181641 260.6171875 C270.87238839 263.89003101 284.29703738 268.87314272 296 276 C296.33 276.66 296.66 277.32 297 278 C291.66996407 278.1105307 286.43561078 277.97849412 281.125 277.5 C269.12040049 276.54874267 257.03257258 276.91868193 245 277 C246.22589844 277.37769531 247.45179688 277.75539063 248.71484375 278.14453125 C277.6883365 287.30036032 304.80157473 300.50105078 329.19921875 318.6796875 C330.4572764 319.60208118 331.73237872 320.50147402 333.01953125 321.3828125 C334.71198474 322.5427706 336.36058679 323.7662148 338 325 C338 325.66 338 326.32 338 327 C323.46145383 326.29213071 309.02266727 324.54624577 294.5625 322.9375 C291.98115222 322.65270075 289.39977224 322.36819311 286.81835938 322.08398438 C280.54519769 321.39268574 274.27244346 320.69778375 268 320 C269.09837725 321.27212531 270.19919887 322.54214033 271.30102539 323.8112793 C271.91377823 324.51874802 272.52653107 325.22621674 273.15785217 325.9551239 C275.73084214 328.81127127 278.50458747 331.33415869 281.4375 333.8125 C282.03385254 334.31821533 282.63020508 334.82393066 283.24462891 335.3449707 C305.73645904 354.07456286 331.98265815 366.91807447 360 375 C360 375.99 360 376.98 360 378 C327.43554959 389.70656338 290.57729394 387.24935918 259.3125 372.8125 C248.07350562 367.42456456 238.23634863 360.35669638 229 352 C232.75793623 360.28454122 237.030497 367.14938954 243 374 C243.67804687 374.82242187 244.35609375 375.64484375 245.0546875 376.4921875 C250.26361107 382.61696576 256.02652763 387.33918121 262.47265625 392.06640625 C263.30667969 392.70449219 264.14070312 393.34257812 265 394 C265 394.33 265 394.66 265 395 C238.80759953 394.06455713 214.17597788 374.2203197 196.5703125 356.703125 C194.59427871 354.55996398 192.81299209 352.28171687 191 350 C191.27263672 350.89307861 191.54527344 351.78615723 191.82617188 352.70629883 C192.83584241 356.02073652 193.84178344 359.33625849 194.84521484 362.65258789 C195.2802473 364.08761105 195.71676096 365.52218604 196.15478516 366.95629883 C196.7841779 369.01788118 197.40822413 371.08101718 198.03125 373.14453125 C198.59682617 375.00621948 198.59682617 375.00621948 199.17382812 376.90551758 C200 380 200 380 200 383 C191.21075875 378.92068848 184.02539798 371.51938104 177 365 C176.40574219 364.47148437 175.81148437 363.94296875 175.19921875 363.3984375 C156.12101745 345.6406845 140.27977006 315.0949812 138.88671875 288.8671875 C138.87253906 288.17882812 138.85835937 287.49046875 138.84375 286.78125 C138.68729254 282.80723048 138.4346949 279.71359934 137 276 C132.51812707 272.26184398 127.46851456 270.73117674 122 269 C120.25939835 268.39484817 118.51985335 267.7866505 116.78125 267.17578125 C108.02173173 264.17754114 99.17937373 261.62705009 90.125 259.6875 C89.43825195 259.54030518 88.75150391 259.39311035 88.04394531 259.24145508 C74.87104838 256.62250663 61.77914383 255.6178438 48.375 255.6875 C47.64009338 255.68932281 46.90518677 255.69114563 46.14801025 255.69302368 C0.70041181 255.88168708 -38.09820638 273.80002329 -71 305 C-71.47147461 305.44424316 -71.94294922 305.88848633 -72.42871094 306.34619141 C-85.35789927 318.18207524 -85.35789927 318.18207524 -94 333 C-93.44721977 335.32029075 -93.44721977 335.32029075 -92.453125 337.82421875 C-92.1025 338.77103516 -91.751875 339.71785156 -91.390625 340.69335938 C-91.01421875 341.68142578 -90.6378125 342.66949219 -90.25 343.6875 C-89.8890625 344.65623047 -89.528125 345.62496094 -89.15625 346.62304688 C-88.11283575 349.41871658 -87.0576394 352.20968641 -86 355 C-85.41075854 356.56874774 -84.82212981 358.13772591 -84.234375 359.70703125 C-83.62335938 361.33705078 -83.62335938 361.33705078 -83 363 C-83.77863403 363.43082886 -83.77863403 363.43082886 -84.57299805 363.87036133 C-86.94500387 365.1834974 -89.31625711 366.49798679 -91.6875 367.8125 C-92.50412109 368.26431641 -93.32074219 368.71613281 -94.16210938 369.18164062 C-94.95810547 369.62314453 -95.75410156 370.06464844 -96.57421875 370.51953125 C-97.73703369 371.15882568 -97.73703369 371.15882568 -98.92333984 371.81103516 C-101.15006208 373.04520251 -101.15006208 373.04520251 -103.70703125 374.88671875 C-106.95795499 376.46510591 -108.54605069 376.01265424 -112 375 C-114.85399862 373.76525438 -117.60589297 372.35039318 -120.375 370.9375 C-144.52834228 359.14267312 -170.25568752 352.54728844 -197.125 352.5625 C-198.14966873 352.56189575 -198.14966873 352.56189575 -199.19503784 352.5612793 C-213.55574448 352.61152715 -227.23013402 354.41703622 -241.0625 358.25 C-242.18140625 358.55357422 -243.3003125 358.85714844 -244.453125 359.16992188 C-251.83454665 361.23174755 -258.76481703 363.68788153 -265.65625 367.03125 C-266.81640625 367.51078125 -266.81640625 367.51078125 -268 368 C-268.66 367.67 -269.32 367.34 -270 367 C-269.63390625 366.51015625 -269.2678125 366.0203125 -268.890625 365.515625 C-247.39127221 335.82604258 -230.44221979 301.37436578 -218 267 C-217.63358398 265.9898584 -217.26716797 264.9797168 -216.88964844 263.93896484 C-206.90486629 236.07679277 -200.97903362 205.9546515 -213.55859375 177.75390625 C-219.03643433 167.28811326 -226.92721799 160.3738941 -238.1484375 156.6953125 C-249.40836073 153.94974218 -259.71994433 157.25281211 -269.5 163 C-286.2115782 174.3417195 -297.2334495 190.72244506 -301.77734375 210.359375 C-306.37021097 236.41564131 -297.89137257 261.62590805 -285 284 C-284.23816406 285.03253906 -283.47632813 286.06507813 -282.69140625 287.12890625 C-281 290 -281 290 -281.09375 292.60546875 C-285.78667604 305.00531213 -296.1364654 311.98036295 -307.5703125 317.5546875 C-318.16392088 322.01896438 -330.53709565 323.19354934 -341.4375 319 C-357.90123727 310.93704796 -367.00062705 296.20042369 -373.1875 279.4375 C-384.18598253 243.81898336 -377.72542795 204.70195614 -361 172 C-356.19308693 162.98624284 -350.70943633 154.72365345 -344 147 C-343.31421875 146.19304687 -342.6284375 145.38609375 -341.921875 144.5546875 C-318.1575401 117.28554061 -285.30599924 100.71768929 -249.08203125 98.16015625 C-216.68715435 96.47677228 -185.53984632 105.4346805 -161 127 C-160.16984375 127.68578125 -159.3396875 128.3715625 -158.484375 129.078125 C-132.0750974 151.50109655 -118.33152178 185.85300763 -115.50238037 219.69865417 C-115.20560919 223.34042782 -114.91503648 226.98268483 -114.625 230.625 C-112.24435391 260.51751264 -107.91025139 290.59541994 -98 319 C-97.49452637 318.34064453 -96.98905273 317.68128906 -96.46826172 317.00195312 C-77.07673883 291.99587805 -51.9868166 273.42158181 -23.6484375 259.75390625 C-23.05732178 259.46700928 -22.46620605 259.1801123 -21.85717773 258.88452148 C-20.53946563 258.25693229 -19.21231098 257.64899917 -17.87915039 257.05493164 C-10.62967186 253.70857169 -7.98863146 248.85505727 -5 241.55859375 C-0.0240363 227.42015844 0.19234493 209.71514063 -6 196 C-7.83457902 192.44367079 -9.75741294 188.93628928 -11.72924805 185.4543457 C-14.39833107 180.60847113 -15.72648901 176.43331898 -16.75 171 C-18.14395023 165.0205212 -19.84376943 162.68233458 -24.9375 159.25 C-26.68413434 158.19506267 -28.44180025 157.16119907 -30.20361328 156.13183594 C-35.57997853 152.74438972 -40.26179312 148.20742414 -45 144 C-45.98226562 143.14535156 -45.98226562 143.14535156 -46.984375 142.2734375 C-61.65492646 128.65078258 -73.99055905 107.18357816 -75.10839844 87.04736328 C-75.16957275 84.88470108 -75.1855871 82.72599142 -75.1875 80.5625 C-75.19974609 79.83740234 -75.21199219 79.11230469 -75.22460938 78.36523438 C-75.23762586 73.53611817 -74.52787035 69.58361106 -73 65 C-69.48470265 69.25827818 -67.22588114 74.19413799 -64.75585938 79.09765625 C-61.33095696 85.7307713 -57.2142795 91.8455248 -53 98 C-53.01571045 97.18023682 -53.0314209 96.36047363 -53.04760742 95.51586914 C-53.44679007 71.50259062 -52.5112139 48.75482388 -41 27 C-40.34 27 -39.68 27 -39 27 C-34.38574219 37.15136719 -34.38574219 37.15136719 -29.77148438 47.30273438 C-29.43929901 48.03338104 -29.10711365 48.76402771 -28.76486206 49.51681519 C-28.10366549 50.971772 -27.44295634 52.42695042 -26.78274536 53.88235474 C-25.33168411 57.07983494 -23.8733685 60.27303833 -22.39599609 63.45849609 C-21.93918457 64.44543457 -21.48237305 65.43237305 -21.01171875 66.44921875 C-20.61815186 67.29186279 -20.22458496 68.13450684 -19.8190918 69.00268555 C-19 71 -19 71 -19 73 C-6.85658348 61.65771166 0.09736727 42.76897378 1.17285156 26.36328125 C1.2307612 23.69747473 1.22452927 21.04110772 1.1875 18.375 C1.18685547 17.48554688 1.18621094 16.59609375 1.18554688 15.6796875 C1.15041111 10.3702836 0.76542082 5.2538485 0 0 Z M56 198 C53.73420616 200.79776555 53.73420616 200.79776555 54 203.875 C55.3925418 208.22669313 57.27732075 209.39412453 61 212 C67.86386596 214.28795532 75.28273733 213.38836006 82 211 C81.68932597 206.65056362 80.67942294 203.67684961 77.73046875 200.390625 C70.65582549 194.70535863 63.95110651 194.09672953 56 198 Z " fill="#8CC640" transform="translate(719,0)"/>
<path d="M0 0 C19.91703534 16.02701058 35.34859656 38.88477534 39.625 64.5 C40.56109398 79.00945664 35.89275098 91.73101939 29.625 104.5 C28.78582031 106.23830078 28.78582031 106.23830078 27.9296875 108.01171875 C14.16109789 135.06859833 -11.14274761 153.15324445 -39.078125 163.47265625 C-68.98295092 172.79134016 -102.55688295 170.59510261 -130.57958984 156.60839844 C-158.49549249 141.83241212 -177.93717283 117.46618857 -187.375 87.5 C-192.22876123 69.26411743 -186.30456105 50.60799649 -177.24072266 34.48193359 C-170.09901342 22.65723242 -161.36119933 10.96385764 -150.375 2.5 C-148.86679687 1.33017578 -148.86679687 1.33017578 -147.328125 0.13671875 C-138.87434852 -6.24180654 -130.02311486 -11.16537608 -120.375 -15.5 C-119.30765625 -15.98339844 -118.2403125 -16.46679688 -117.140625 -16.96484375 C-78.45554414 -33.11635594 -32.70327281 -25.50235188 0 0 Z " fill="#422A24" transform="translate(872.375,599.5)"/>
<path d="M0 0 C1.02552979 0.24943359 1.02552979 0.24943359 2.07177734 0.50390625 C31.00598963 7.6760314 56.27272768 25.72652133 71.86328125 51.29296875 C81.94833565 68.45254577 88.29037932 86.43775491 83.4375 106.4375 C77.65168445 125.81795907 68.08958597 141.59591434 54 156 C53.29875 156.75152344 52.5975 157.50304687 51.875 158.27734375 C34.98787917 176.01562995 7.20819267 189.07662267 -17.33642578 190.14526367 C-20.57036373 190.16560978 -23.80408416 190.18568285 -27.03808594 190.18530273 C-29.098523 190.18747212 -31.15840857 190.20561437 -33.21875 190.22460938 C-64.84975628 190.36150407 -92.27112166 177.54802073 -114.625 155.75 C-130.50331263 139.75106323 -142.43025746 117.40549334 -143.5625 94.5625 C-142.62389568 70.00739993 -127.19253537 45.60559248 -110 29 C-80.18725224 2.39312446 -39.2135294 -9.85304488 0 0 Z " fill="#422A24" transform="translate(298,606)"/>
<path d="M0 0 C0.33 0 0.66 0 1 0 C-0.35141556 12.16274 -4.75755957 23.90098637 -8.5 35.5 C-8.76189117 36.31169647 -9.02378235 37.12339294 -9.29360962 37.95968628 C-14.15754555 52.95898272 -19.71966209 67.52972885 -26 82 C-26.37157227 82.87253418 -26.74314453 83.74506836 -27.12597656 84.64404297 C-43.22344058 122.40325423 -64.39734768 159.15025906 -92.515625 189.3046875 C-94.49427713 191.4513384 -96.41515428 193.6245161 -98.32421875 195.83203125 C-108.44321775 207.42926982 -119.47427812 218.04327772 -132 227 C-132.66692871 227.47888672 -133.33385742 227.95777344 -134.02099609 228.45117188 C-173.32157969 256.3506861 -220.8113867 270.57456786 -268.9855957 262.47827148 C-302.44476021 256.12792289 -338.12074022 240.86255926 -363 217 C-363 216.34 -363 215.68 -363 215 C-363.56203125 214.75636719 -364.1240625 214.51273438 -364.703125 214.26171875 C-367.44019785 212.75819064 -369.45795941 210.93300252 -371.75 208.8125 C-374.85188651 205.96113296 -377.97105114 203.15862827 -381.1875 200.4375 C-384.54550751 197.51778664 -387.42006659 194.34874192 -390.29296875 190.95703125 C-391.91260807 189.10019075 -393.60123291 187.39602508 -395.375 185.6875 C-399.9886318 181.12490395 -403.98401052 176.08592657 -408 171 C-408.46647949 170.41524902 -408.93295898 169.83049805 -409.41357422 169.22802734 C-425.59825871 148.87110212 -443.73054877 125.45817915 -453 101 C-449.52471064 104.41605147 -446.19064077 107.93492619 -442.88891602 111.51855469 C-412.68365324 144.20285867 -376.62306265 166.34092846 -333 176 C-332.17113281 176.20496094 -331.34226562 176.40992188 -330.48828125 176.62109375 C-317.66317127 179.77240649 -304.45978737 180.41142723 -291.3125 180.375 C-290.5622052 180.37445618 -289.8119104 180.37391235 -289.03887939 180.37335205 C-226.40161911 180.16716193 -164.76557948 154.54325232 -114 119 C-113.13205811 118.39792725 -113.13205811 118.39792725 -112.24658203 117.78369141 C-84.99121899 98.84072645 -58.3727233 76.49392106 -37 51 C-36.21882813 50.10796875 -35.43765625 49.2159375 -34.6328125 48.296875 C-23.06631512 35.0219828 -12.8358495 20.79984793 -3.64282227 5.79052734 C-2.94370728 4.65091553 -2.94370728 4.65091553 -2.23046875 3.48828125 C-1.61788208 2.47568237 -1.61788208 2.47568237 -0.99291992 1.44262695 C-0.66525635 0.96656006 -0.33759277 0.49049316 0 0 Z " fill="#EEB467" transform="translate(783,1021)"/>
<path d="M0 0 C-7.26154489 44.02311589 -30.02536662 82.89401563 -53.81982422 119.88476562 C-60.408502 130.13677101 -66.70575946 140.5654965 -73 151 C-87.23671593 148.43709329 -100.16984865 135.72865798 -110.55859375 126.20703125 C-118.97465611 118.59891088 -128.0496058 111.7815074 -137.29541016 105.22021484 C-138.93177323 104.0488395 -140.53520398 102.83186845 -142.13671875 101.61328125 C-144.80248106 99.81607058 -144.80248106 99.81607058 -147.41015625 99.94140625 C-151.09749478 101.44859892 -154.20162749 103.65431714 -157.4375 105.9375 C-165.00902077 111.14082177 -172.78655496 115.92929735 -180.6895752 120.60482788 C-198.69934923 131.26103682 -216.13438699 142.59110338 -233 155 C-248.83108474 139.99047173 -256.25609339 110.96004587 -263 91 C-263.45971191 89.65107666 -263.45971191 89.65107666 -263.92871094 88.27490234 C-282.11349556 34.15641566 -282.11349556 34.15641566 -281 13 C-276.79862626 15.94990071 -272.92113878 18.96482184 -269.375 22.6875 C-258.50343883 33.76934282 -245.29573444 42.1399497 -232 50 C-230.906875 50.6496875 -229.81375 51.299375 -228.6875 51.96875 C-226.11780413 53.30197856 -226.11780413 53.30197856 -224.03564453 52.22583008 C-222.11376036 51.06850453 -220.4545936 49.86337571 -218.7421875 48.41796875 C-218.12609619 47.90476074 -217.51000488 47.39155273 -216.87524414 46.86279297 C-216.21516357 46.30994629 -215.55508301 45.75709961 -214.875 45.1875 C-197.89330162 31.2007308 -179.70305774 19.01572199 -160.75 7.875 C-159.95150635 7.4011084 -159.1530127 6.9272168 -158.33032227 6.43896484 C-150.50277055 1.90797319 -150.50277055 1.90797319 -147 2 C-144.50685985 3.26934541 -142.44539834 4.51829263 -140.1875 6.125 C-139.21224365 6.79801147 -139.21224365 6.79801147 -138.21728516 7.48461914 C-128.73844274 14.13975952 -119.91135907 21.64412483 -111.11938477 29.16845703 C-105.51291437 33.96345304 -99.78868482 38.56799457 -93.9375 43.0625 C-93.21054932 43.62324219 -92.48359863 44.18398438 -91.73461914 44.76171875 C-91.04746826 45.28507813 -90.36031738 45.8084375 -89.65234375 46.34765625 C-88.73956665 47.04387085 -88.73956665 47.04387085 -87.80834961 47.75415039 C-87.21159424 48.16528076 -86.61483887 48.57641113 -86 49 C-85.36868164 49.44037598 -84.73736328 49.88075195 -84.08691406 50.33447266 C-81.92845014 51.26866317 -81.92845014 51.26866317 -79.61254883 50.0246582 C-78.73622803 49.45577881 -77.85990723 48.88689941 -76.95703125 48.30078125 C-75.97420166 47.67397461 -74.99137207 47.04716797 -73.97875977 46.40136719 C-72.93389404 45.71204102 -71.88902832 45.02271484 -70.8125 44.3125 C-69.73476318 43.61930664 -68.65702637 42.92611328 -67.54663086 42.21191406 C-64.35506979 40.15529386 -61.17709471 38.07887144 -58 36 C-56.41266011 34.97599927 -54.82425766 33.95364206 -53.234375 32.93359375 C-49.81562101 30.73725105 -46.40721778 28.52558662 -43.00341797 26.30615234 C-39.54739051 24.05295384 -36.08705815 21.80641917 -32.625 19.5625 C-31.93849365 19.11753174 -31.2519873 18.67256348 -30.54467773 18.21411133 C-24.11228789 14.05478243 -17.63791893 9.9627278 -11.15478516 5.88305664 C-10.39472168 5.40473389 -9.6346582 4.92641113 -8.8515625 4.43359375 C-8.17947754 4.01134521 -7.50739258 3.58909668 -6.81494141 3.15405273 C-1.85466469 0 -1.85466469 0 0 0 Z " fill="#422A24" transform="translate(670,812)"/>
<path d="M0 0 C0.33 0 0.66 0 1 0 C1.01458252 0.71728271 1.02916504 1.43456543 1.04418945 2.17358398 C1.83077938 37.15321037 3.88345807 74.57531042 25 104 C25.68642578 104.98033203 25.68642578 104.98033203 26.38671875 105.98046875 C31.72591919 112.91072033 40.33294634 118.65511236 49 120 C64.95335557 121.60874174 78.63958035 115.59327107 91 106 C94.07947979 103.40511768 97.0030703 100.67748936 99.890625 97.87109375 C102 96 102 96 104 96 C102.2671271 101.11610093 99.3776159 105.46976297 96.5 110 C95.96463623 110.84433594 95.42927246 111.68867187 94.87768555 112.55859375 C90.28962467 119.70691091 85.35053488 126.40453869 80 133 C79.23945312 133.95261719 78.47890625 134.90523437 77.6953125 135.88671875 C70.85344227 144.37395223 63.66711957 152.4573205 55.875 160.08203125 C54.08220763 161.91590845 52.48981443 163.82224122 50.875 165.8125 C46.20809177 171.22018731 40.50695066 175.3707978 34.81445312 179.6328125 C33.14623039 180.88981564 31.50154164 182.17789264 29.859375 183.46875 C-2.69102383 208.16215601 -43.65463878 219.45286636 -84.18530273 214.12719727 C-93.0128339 212.7964786 -101.512135 210.76839305 -110 208 C-106.47172033 203.79852489 -102.84373596 199.73170629 -99.05444336 195.7644043 C-91.84501996 188.20335099 -85.246062 180.36838448 -79 172 C-78.49645996 171.33162109 -77.99291992 170.66324219 -77.47412109 169.97460938 C-48.62702157 131.53547215 -28.10877285 87.99161357 -12.5625 42.6875 C-12.31106232 41.95591675 -12.05962463 41.2243335 -11.80056763 40.47058105 C-7.23676479 27.13800517 -3.31290424 13.70337661 0 0 Z " fill="#ECA441" transform="translate(784,1020)"/>
<path d="M0 0 C3.71487587 3.51832159 6.68321364 7.20420312 9.5625 11.4375 C17.97446244 23.48745646 27.9567429 34.30000679 38 45 C38.61230469 45.65484375 39.22460938 46.3096875 39.85546875 46.984375 C44.83071449 52.13688602 50.38573863 56.56690148 56 61 C56.91652344 61.73347656 57.83304688 62.46695312 58.77734375 63.22265625 C71.35314595 73.00383574 84.90490237 80.84350103 100 86 C101.45212891 86.50853516 101.45212891 86.50853516 102.93359375 87.02734375 C115.29907913 90.74899469 130.40225184 91.08302944 142 85 C145.27611403 83.28834023 145.27611403 83.28834023 148 81 C148.56203125 80.55398438 149.1240625 80.10796875 149.703125 79.6484375 C158.82321327 71.59896829 161.84558373 59.54691528 164 48 C166.70906019 49.3545301 167.16027458 50.88189243 168.5625 53.5625 C169.10261719 54.57054687 169.64273438 55.57859375 170.19921875 56.6171875 C171.41068114 58.89294983 172.62160931 61.16899661 173.83203125 63.4453125 C183.86646108 81.96946314 195.99314566 99.44537689 209 116 C209.77601563 116.98871094 210.55203125 117.97742187 211.3515625 118.99609375 C216.16098963 124.9866346 221.27392583 130.65317168 226.5 136.27734375 C228.46266511 138.41480872 230.34434926 140.57367288 232.1875 142.8125 C234.77661799 145.87236672 237.65809394 148.43640974 240.70703125 151.03125 C243.47562503 153.40837311 246.1779129 155.85509501 248.875 158.3125 C249.80054688 159.15425781 250.72609375 159.99601562 251.6796875 160.86328125 C253.14635496 162.21389926 254.59016269 163.59016269 256 165 C213.42004376 178.43703718 171.179338 176.59950386 131.0090332 156.2409668 C72.25684139 125.53728003 33.35003112 68.46279128 4.25 10.75 C3.81929199 9.89801025 3.38858398 9.04602051 2.94482422 8.16821289 C2.36112061 6.99440063 2.36112061 6.99440063 1.765625 5.796875 C1.42305664 5.10948242 1.08048828 4.42208984 0.72753906 3.71386719 C0 2 0 2 0 0 Z " fill="#ECA441" transform="translate(164,1072)"/>
<path d="M0 0 C4.25202164 2.6397401 7.98957495 5.67220544 11.67919922 9.04248047 C12.18692871 9.50251465 12.6946582 9.96254883 13.21777344 10.43652344 C21.57466973 18.0988721 28.22006648 26.0973176 33.67919922 36.04248047 C34.00114258 36.62723145 34.32308594 37.21198242 34.65478516 37.81445312 C52.90585229 71.8413915 49.62302263 111.59899349 39.11669922 147.47998047 C25.13408405 193.58759564 25.13408405 193.58759564 18.67919922 200.04248047 C16.71073912 200.17713268 14.73774207 200.24621241 12.76513672 200.28857422 C11.53706299 200.31967285 10.30898926 200.35077148 9.04370117 200.3828125 C7.72716553 200.41487793 6.41062988 200.44694336 5.05419922 200.47998047 C-18.47173058 201.19367133 -41.55486492 204.68078881 -62.97705078 215.07373047 C-63.75048828 215.39341797 -64.52392578 215.71310547 -65.32080078 216.04248047 C-65.98080078 215.71248047 -66.64080078 215.38248047 -67.32080078 215.04248047 C-66.77166016 214.30771484 -66.77166016 214.30771484 -66.21142578 213.55810547 C-44.71207299 183.86852305 -27.76302057 149.41684625 -15.32080078 115.04248047 C-14.95438477 114.03233887 -14.58796875 113.02219727 -14.21044922 111.98144531 C-4.22566707 84.11927324 1.7001656 53.99713197 -10.87939453 25.79638672 C-16.35723512 15.33059373 -24.24801877 8.41637457 -35.46923828 4.73779297 C-46.72916151 1.99222265 -57.04074511 5.29529258 -66.82080078 11.04248047 C-76.5258488 17.60601005 -84.23902818 25.93811307 -90.11376953 36.05810547 C-90.51208984 36.71294922 -90.91041016 37.36779297 -91.32080078 38.04248047 C-91.65080078 38.04248047 -91.98080078 38.04248047 -92.32080078 38.04248047 C-91.50028413 24.09369738 -84.77205507 11.74149354 -74.45751953 2.46826172 C-51.19331123 -15.78705089 -24.65506789 -14.6366689 0 0 Z " fill="#7EB340" transform="translate(516.32080078125,151.95751953125)"/>
<path d="M0 0 C4.77313266 3.86416838 9.21342716 8.06417362 13.63330078 12.32226562 C14.33841797 12.96421875 15.04353516 13.60617187 15.77001953 14.26757812 C34.59580876 31.90959561 48.21052002 59.6407896 50.63330078 85.32226562 C50.70109503 88.32458228 50.69457257 91.31994774 50.63330078 94.32226562 C47.74686737 91.76143598 46.06548663 88.82968665 44.13330078 85.50976562 C22.80454196 50.04042093 -14.08854368 25.4166404 -53.92919922 15.38476562 C-57.0617322 14.61200995 -60.19893756 13.93464841 -63.36669922 13.32226562 C-64.76625854 13.04624512 -64.76625854 13.04624512 -66.1940918 12.76464844 C-75.77062156 11.07347564 -85.23538381 10.92581729 -94.92919922 10.94726562 C-95.76919464 10.94714478 -96.60919006 10.94702393 -97.47463989 10.94689941 C-109.42944178 10.97139025 -120.80254017 11.52536245 -132.38037109 14.77099609 C-134.34035856 15.31495525 -136.30512604 15.78240838 -138.28857422 16.23242188 C-179.22046753 26.0407905 -215.05205373 53.33462232 -237.35888672 88.63037109 C-238.84365463 91.12296838 -240.11973121 93.70443214 -241.36669922 96.32226562 C-242.88749599 92.38608574 -241.83923477 88.99112109 -240.80419922 85.07226562 C-240.62074951 84.3684375 -240.4372998 83.66460937 -240.24829102 82.93945312 C-233.48705452 57.88916941 -220.28505755 36.90050684 -202.36669922 18.32226562 C-201.53912109 17.41992188 -200.71154297 16.51757812 -199.85888672 15.58789062 C-148.15581864 -39.11933126 -59.17150358 -46.1058479 0 0 Z " fill="#FEE9C7" transform="translate(618.36669921875,392.677734375)"/>
<path d="M0 0 C1.72815218 3.44214778 3.42596491 6.89887076 5.125 10.35546875 C18.43652468 37.35515285 33.19026702 63.35033573 52 87 C52.73347656 87.92425781 53.46695313 88.84851562 54.22265625 89.80078125 C59.27275432 96.06359584 64.57228936 102.06400876 70 108 C70.87398437 108.96679688 71.74796875 109.93359375 72.6484375 110.9296875 C78.20754946 117.07570135 78.20754946 117.07570135 84 123 C68.33727222 130.83136389 36.63948851 121.89469107 20.58837891 116.87207031 C-17.60123493 104.0053187 -51.36774132 78.85050299 -76 47 C-77.17949219 45.51113281 -77.17949219 45.51113281 -78.3828125 43.9921875 C-84.98749843 35.60041247 -91.02572319 26.84783581 -97 18 C-96.67 17.34 -96.34 16.68 -96 16 C-95.16082031 16.4846875 -94.32164063 16.969375 -93.45703125 17.46875 C-72.15580354 29.46484762 -44.32308348 41.21987396 -19.4375 34.875 C-12.79089369 32.42208577 -7.72982557 28.86720098 -4.125 22.6875 C-0.88781604 15.59185435 -0.5970184 7.68104271 0 0 Z " fill="#E98F21" transform="translate(163,1070)"/>
<path d="M0 0 C5.43853456 0.43646838 9.93870063 1.94818937 14.9375 4.0625 C15.62134766 4.34416016 16.30519531 4.62582031 17.00976562 4.91601562 C18.67613946 5.6035405 20.33850727 6.30076175 22 7 C22.02578125 8.1859375 22.0515625 9.371875 22.078125 10.59375 C22.38959886 20.43019668 23.45833459 29.4062305 26.16015625 38.875 C27 42 27 42 27 45 C28.65 45 30.3 45 32 45 C31.60167969 43.98292969 31.60167969 43.98292969 31.1953125 42.9453125 C26.80090753 31.36589502 25.70410178 21.32909244 26 9 C31.94683889 10.69340471 37.23466224 13.52096728 42.6875 16.375 C43.70191162 16.90593262 44.71632324 17.43686523 45.76147461 17.98388672 C60.57887153 25.84863881 74.55682821 34.98034517 88 45 C88.53786133 45.39896484 89.07572266 45.79792969 89.62988281 46.20898438 C96.00032291 50.95528708 102.12687764 55.91644806 108.125 61.125 C138.53575074 87.42428362 175.30953784 99.64234727 215 103 C211.54318813 105.30454125 208.94355406 105.77755674 204.875 106.5625 C203.61429688 106.81128906 202.35359375 107.06007813 201.0546875 107.31640625 C168.50374536 113.08391787 132.48822338 107.04096078 105.04614258 88.10375977 C99.80840009 84.33830917 94.78406413 80.32843897 90 76 C93.75793623 84.28454122 98.030497 91.14938954 104 98 C104.67804688 98.82242188 105.35609375 99.64484375 106.0546875 100.4921875 C111.26361107 106.61696576 117.02652763 111.33918121 123.47265625 116.06640625 C124.30667969 116.70449219 125.14070312 117.34257812 126 118 C126 118.33 126 118.66 126 119 C99.80759953 118.06455713 75.17597788 98.2203197 57.5703125 80.703125 C55.59427871 78.55996398 53.81299209 76.28171687 52 74 C52.27263672 74.89307861 52.54527344 75.78615723 52.82617188 76.70629883 C53.83584241 80.02073652 54.84178344 83.33625849 55.84521484 86.65258789 C56.2802473 88.08761105 56.71676096 89.52218604 57.15478516 90.95629883 C57.7841779 93.01788118 58.40822413 95.08101718 59.03125 97.14453125 C59.40830078 98.38565674 59.78535156 99.62678223 60.17382812 100.90551758 C61 104 61 104 61 107 C52.21075875 102.92068848 45.02539798 95.51938104 38 89 C37.10861328 88.20722656 37.10861328 88.20722656 36.19921875 87.3984375 C13.61600345 66.37826097 0.8196992 33.82259243 -1.01953125 3.52734375 C-1 1 -1 1 0 0 Z " fill="#7EB341" transform="translate(858,276)"/>
<path d="M0 0 C0.77134277 0.12858398 1.54268555 0.25716797 2.33740234 0.38964844 C46.89511564 8.03478327 89.53969031 35.78271933 116.01000977 72.17773438 C126.83404333 87.54112437 135.54291546 104.13463706 141.625 121.9375 C141.88498779 122.68878174 142.14497559 123.44006348 142.4128418 124.21411133 C143.61205557 127.91547763 144.16426865 130.29202411 143 134 C142.69408936 133.52280518 142.38817871 133.04561035 142.07299805 132.55395508 C114.83458953 90.29410436 76.80587669 60.35878655 27.49902344 48.39306641 C16.73493159 46.08950829 5.97461499 45.81842582 -5 45.8125 C-6.79050781 45.79413086 -6.79050781 45.79413086 -8.6171875 45.77539062 C-15.14159226 45.76468318 -21.21832117 46.16654731 -27.59765625 47.5690918 C-30.11330681 48.02032383 -32.44972787 48.07188267 -35 48 C-35.43699219 46.83984375 -35.43699219 46.83984375 -35.8828125 45.65625 C-41.57227198 31.20001334 -50.25404497 22.21331593 -64 15 C-68.2515937 13.22833542 -72.57494496 11.72387086 -76.9375 10.25 C-79.15617181 9.48792893 -81.37368022 8.72245985 -83.58984375 7.953125 C-85.04185181 7.46054199 -85.04185181 7.46054199 -86.52319336 6.95800781 C-89 6 -89 6 -92 4 C-90.42865347 3.53573852 -88.85548043 3.07734701 -87.27734375 2.63671875 C-85.70262766 2.1964465 -84.1324842 1.73960601 -82.56640625 1.26953125 C-56.34493405 -6.05760353 -26.53265792 -4.67649016 0 0 Z " fill="#FEDEB1" transform="translate(730,370)"/>
<path d="M0 0 C-7.26154489 44.02311589 -30.02536662 82.89401563 -53.81982422 119.88476562 C-60.408502 130.13677101 -66.70575946 140.5654965 -73 151 C-87.23671593 148.43709329 -100.16984865 135.72865798 -110.55859375 126.20703125 C-118.97465611 118.59891088 -128.0496058 111.7815074 -137.29541016 105.22021484 C-138.93177323 104.0488395 -140.53520398 102.83186845 -142.13671875 101.61328125 C-144.80248106 99.81607058 -144.80248106 99.81607058 -147.41015625 99.94140625 C-151.09749478 101.44859892 -154.20162749 103.65431714 -157.4375 105.9375 C-165.00902077 111.14082177 -172.78655496 115.92929735 -180.6895752 120.60482788 C-198.69934923 131.26103682 -216.13438699 142.59110338 -233 155 C-248.83108474 139.99047173 -256.25609339 110.96004587 -263 91 C-263.45971191 89.65107666 -263.45971191 89.65107666 -263.92871094 88.27490234 C-282.11349556 34.15641566 -282.11349556 34.15641566 -281 13 C-279.81524878 13.65584442 -278.65242286 14.35138193 -277.5 15.0625 C-276.8503125 15.44535156 -276.200625 15.82820312 -275.53125 16.22265625 C-273.18013022 18.95163456 -273.91794709 21.46102227 -274 25 C-273.49571495 28.0267894 -272.71943759 30.9717352 -271.9375 33.9375 C-271.71562012 34.79794922 -271.49374023 35.65839844 -271.26513672 36.54492188 C-265.42555384 58.88142617 -259.13170068 81.19028144 -249 102 C-248.36150175 103.38139232 -247.72628129 104.76430278 -247.09375 106.1484375 C-243.15533915 114.73110178 -238.96219116 122.95194621 -234 131 C-229.57506186 128.68696415 -225.70031658 126.05705679 -221.75 123 C-208.74499628 113.12970052 -194.46697969 105.05987407 -180.44775391 96.73925781 C-172.29247812 91.86342528 -164.36752752 86.69938185 -156.54736328 81.30322266 C-155.74153809 80.7519873 -154.93571289 80.20075195 -154.10546875 79.6328125 C-153.40574951 79.14699707 -152.70603027 78.66118164 -151.98510742 78.16064453 C-149.94243894 76.96634543 -148.33940065 76.33156622 -146 76 C-131.40170796 82.75079615 -118.47040463 95.85521226 -106.44189453 106.36083984 C-96.43260074 115.08029298 -85.94284663 122.18503319 -74 128 C-73.7097998 127.50935059 -73.41959961 127.01870117 -73.12060547 126.51318359 C-67.29282792 116.68065357 -61.36376779 106.93043133 -55.1875 97.3125 C-29.25487883 57.40967985 -29.25487883 57.40967985 -10.65234375 13.80859375 C-10.43521729 13.11797852 -10.21809082 12.42736328 -9.99438477 11.71582031 C-9.41608668 9.82204795 -8.8745623 7.9171546 -8.3359375 6.01171875 C-6.64191769 2.19274426 -4.34498273 0 0 0 Z " fill="#C3762A" transform="translate(670,812)"/>
<path d="M0 0 C0.33 0 0.66 0 1 0 C3.86281802 32.11185032 -3.28117323 61.51668593 -24.1171875 86.54296875 C-43.8806711 109.22525865 -71.63130988 125.42966128 -102 128 C-116.8091085 128.77247391 -131.62013412 128.94804353 -146 125 C-147.19625 124.68289063 -148.3925 124.36578125 -149.625 124.0390625 C-176.98049556 115.86718777 -202.24579664 97.11903927 -216.14160156 71.93066406 C-220.79606315 63.00045036 -224.60005042 53.80177425 -227 44 C-227.17805176 43.32259766 -227.35610352 42.64519531 -227.53955078 41.94726562 C-229.38232928 34.13453421 -229.22548026 26.3470661 -229.125 18.375 C-229.11494398 16.97526686 -229.10582279 15.57552669 -229.09765625 14.17578125 C-229.07426238 10.78367075 -229.04148173 7.3919294 -229 4 C-228.67 4 -228.34 4 -228 4 C-227.85304687 5.12535156 -227.70609375 6.25070312 -227.5546875 7.41015625 C-226.05197852 18.02922214 -223.64380279 27.26656875 -219 37 C-218.69932617 37.63566895 -218.39865234 38.27133789 -218.08886719 38.92626953 C-213.76862399 47.89649411 -208.77553618 55.63482064 -202 63 C-201.55140625 63.49097168 -201.1028125 63.98194336 -200.640625 64.48779297 C-185.91408835 80.43311236 -167.73698186 90.9772166 -147 97 C-146.20722656 97.23460937 -145.41445312 97.46921875 -144.59765625 97.7109375 C-135.53469468 100.18754878 -126.22713129 100.21320034 -116.90039062 100.24023438 C-114.89961783 100.2498813 -112.89898647 100.28105719 -110.8984375 100.3125 C-80.88815067 100.43065074 -53.45413698 87.52938969 -32 67 C-31.31421875 66.37738281 -30.6284375 65.75476563 -29.921875 65.11328125 C-12.53644159 48.78876995 -1.53982899 23.52221529 0 0 Z " fill="#C37529" transform="translate(383,695)"/>
<path d="M0 0 C0.33 0 0.66 0 1 0 C1.93108728 34.22103867 -6.82863312 62.69359731 -30.52124023 87.97314453 C-45.70713504 103.61445436 -65.81471773 114.87202214 -87 120 C-88.15757812 120.29648437 -89.31515625 120.59296875 -90.5078125 120.8984375 C-121.09648256 127.74477228 -153.53236031 121.41689122 -180 105 C-205.71442474 88.26936686 -221.8468043 63.43004784 -228.75390625 33.76171875 C-230.48370148 24.24179677 -230.183147 14.63556716 -230 5 C-229.34 5 -228.68 5 -228 5 C-227.85304688 5.680625 -227.70609375 6.36125 -227.5546875 7.0625 C-223.35185501 25.2264657 -216.13187345 41.70654554 -204 56 C-203.43152344 56.71285156 -202.86304688 57.42570313 -202.27734375 58.16015625 C-185.61669799 78.21660242 -158.05940582 92.08062637 -132.26806641 94.82275391 C-98.70362331 97.44576636 -65.99472916 90.07037271 -39.66796875 68.34765625 C-26.73361219 56.96617998 -17.16245795 44.92486772 -9.625 29.375 C-9.20774658 28.51648438 -8.79049316 27.65796875 -8.3605957 26.7734375 C-4.47928068 18.46119868 -2.18361248 10.07436232 -1 1 C-0.67 0.67 -0.34 0.34 0 0 Z " fill="#C37629" transform="translate(912,672)"/>
<path d="M0 0 C4.81289727 1.39824233 8.88496638 3.50907929 13.125 6.125 C13.78097168 6.52533447 14.43694336 6.92566895 15.11279297 7.33813477 C25.88321637 13.95432667 36.13277102 21.10621682 46 29 C47.02738281 29.81984375 48.05476562 30.6396875 49.11328125 31.484375 C63.35045586 43.07893409 76.16196943 56.18268454 87 71 C87.81088531 72.08096374 88.6220823 73.16169375 89.43359375 74.2421875 C128.07582835 126.34137682 152.25816517 188.88701827 166.95068359 251.5534668 C167.63459682 254.46818308 168.33576461 257.37778932 169.05322266 260.28442383 C171.55078246 270.47761506 173.43368229 280.68726434 175 291.0625 C175.18843475 292.29368561 175.18843475 292.29368561 175.38067627 293.54974365 C177.40650131 306.87129078 179.02458034 320.21890409 180.375 333.625 C180.46040039 334.45863068 180.54580078 335.29226135 180.63378906 336.15115356 C181.61002714 345.80430579 182.25244694 355.28834456 182 365 C181.67 365 181.34 365 181 365 C180.75878418 363.82308594 180.51756836 362.64617187 180.26904297 361.43359375 C174.00078598 330.88314845 174.00078598 330.88314845 166.65869141 300.578125 C165.51708094 296.10984979 164.48536865 291.61598222 163.4375 287.125 C161.20366367 277.67321133 158.74533233 268.31609987 156 259 C155.69610352 257.96407715 155.39220703 256.9281543 155.07910156 255.86083984 C132.28718094 178.78090306 93.44798658 114.41952043 41.19433594 53.89550781 C38.17475089 50.3926267 35.22272756 46.84498699 32.3125 43.25 C29.46541499 39.7411601 26.54187448 36.34133363 23.5 33 C18.79630778 27.82349296 14.36337532 22.46509134 10 17 C9.54850586 16.44280273 9.09701172 15.88560547 8.63183594 15.31152344 C7.22326981 13.5699355 5.82898342 11.81775376 4.4375 10.0625 C3.99543213 9.51875732 3.55336426 8.97501465 3.09790039 8.41479492 C0.60287714 5.22761994 0 4.21079306 0 0 Z " fill="#FDD19C" transform="translate(866,398)"/>
<path d="M0 0 C-0.54188965 0.24008789 -1.0837793 0.48017578 -1.64208984 0.72753906 C-33.83967952 15.14153688 -60.45631788 37.45174234 -85.3125 62.1875 C-85.97032471 62.84065186 -86.62814941 63.49380371 -87.3059082 64.16674805 C-91.73895516 68.61435713 -95.91669735 73.23070743 -100 78 C-100.46784912 78.54084229 -100.93569824 79.08168457 -101.41772461 79.63891602 C-129.12661633 111.72262628 -152.28023108 147.53854424 -172 185 C-172.53850586 186.01964844 -173.07701172 187.03929687 -173.63183594 188.08984375 C-192.30330826 223.71060939 -208.50345776 261.88004554 -218.44921875 300.92285156 C-219.04752549 303.17923178 -219.70448568 305.41247375 -220.375 307.6484375 C-227.86540404 332.69131389 -232.86690977 358.21821818 -237 384 C-237.33 384 -237.66 384 -238 384 C-237.46954657 373.19852958 -236.44749024 362.57648246 -234.875 351.875 C-234.76873291 351.14020416 -234.66246582 350.40540833 -234.55297852 349.64834595 C-230.93732952 324.75423071 -226.50792481 299.89390474 -220.58398438 275.44042969 C-219.97724133 272.90489313 -219.40012316 270.36389898 -218.828125 267.8203125 C-215.84376959 254.67447154 -212.15518049 241.82191643 -208 229 C-207.61070312 227.79408203 -207.22140625 226.58816406 -206.8203125 225.34570312 C-198.73681514 200.44927901 -189.22275676 176.09198246 -176.99658203 152.90332031 C-175.88275493 150.77607973 -174.7987655 148.63481304 -173.71484375 146.4921875 C-162.53508829 124.57950755 -148.95952546 103.7409656 -133 85 C-132.13571486 83.95134742 -131.27248595 82.90182367 -130.41015625 81.8515625 C-118.94608735 68.02565059 -106.29586341 54.909437 -92 44 C-91.04738281 43.23042969 -90.09476563 42.46085937 -89.11328125 41.66796875 C-66.15747606 23.37821179 -40.31322947 10.50376494 -12.5 1.4375 C-11.70480957 1.17364502 -10.90961914 0.90979004 -10.09033203 0.63793945 C-6.30044592 -0.55026109 -3.79378795 -1.20371713 0 0 Z " fill="#FDD19C" transform="translate(263,382)"/>
<path d="M0 0 C16.33371088 11.09194693 28.27240761 26.63597803 32.8125 46 C35.62275129 60.7578339 33.48130073 73.90033114 26 87 C39.23294594 78.99058535 47.59877011 67.86441497 54 54 C54.66 54 55.32 54 56 54 C58.99828292 66.09063681 57.75425801 79.62095625 53 91 C52.63777344 91.87914063 52.27554688 92.75828125 51.90234375 93.6640625 C48.9111454 100.21427991 44.66787158 105.5560803 40 111 C43.0007008 109.58481442 46.00042767 108.16757567 49 106.75 C49.83917969 106.35425781 50.67835938 105.95851563 51.54296875 105.55078125 C55.55730888 103.65252739 59.54833379 101.72897919 63.5 99.703125 C67 98 67 98 69 98 C67.03151387 113.19494346 53.46260558 128.42580898 41.7265625 137.58203125 C29.60008209 146.83185616 17.11438609 153.75025763 3 159.5 C1.91283691 159.94609619 0.82567383 160.39219238 -0.29443359 160.85180664 C-1.33164551 161.26164795 -2.36885742 161.67148926 -3.4375 162.09375 C-4.36433594 162.46177734 -5.29117188 162.82980469 -6.24609375 163.20898438 C-9.2798824 164.08039175 -11.85938699 164.14107319 -15 164 C-16.44207941 161.11584117 -16.09394887 158.58278472 -16.0625 155.375 C-16.05347656 154.18648437 -16.04445313 152.99796875 -16.03515625 151.7734375 C-16.02355469 150.85820312 -16.01195312 149.94296875 -16 149 C-15.32533691 148.78384033 -14.65067383 148.56768066 -13.95556641 148.3449707 C-10.8426532 147.34239429 -7.73387343 146.32753078 -4.625 145.3125 C-3.56410156 144.97283203 -2.50320313 144.63316406 -1.41015625 144.28320312 C4.70519584 142.27601701 10.3879425 139.99132485 16.06103516 136.94213867 C18 136 18 136 20 136 C19.67 134.68 19.34 133.36 19 132 C18.01902344 132.44730469 17.03804687 132.89460937 16.02734375 133.35546875 C-7.61667742 144 -7.61667742 144 -16 144 C-15.9209516 118.98118086 -5.84058125 96.21106159 5.38647461 74.34228516 C13.77613387 57.78640442 14.31727314 37.68498123 9 20 C6.49929838 13.11694138 3.31167471 6.52449345 0 0 Z " fill="#7EB341" transform="translate(724,2)"/>
<path d="M0 0 C1.0158165 0.00273422 1.0158165 0.00273422 2.05215454 0.00552368 C17.1245954 0.07373684 29.85950727 1.71653473 43.625 8.3125 C40.02365913 12.02763789 36.24665197 15.34539613 32.25 18.625 C27.19350791 22.85716351 22.74852253 27.14943397 18.625 32.3125 C17.7146113 33.4019364 16.80304145 34.4903863 15.890625 35.578125 C9.93361963 42.76337889 4.6183401 50.10051078 -0.1652832 58.12109375 C-2.00928712 61.20603604 -3.76512772 63.8462009 -6.375 66.3125 C-6.50455078 65.18714844 -6.50455078 65.18714844 -6.63671875 64.0390625 C-8.03906269 53.82382315 -10.7754422 45.36818905 -19.0859375 38.78515625 C-27.64731805 33.27723736 -37.01082145 31.72326998 -46.9453125 33.8671875 C-71.34776359 41.70283693 -94.23439223 60.46951235 -112.65625 77.8046875 C-114.57820503 79.57752533 -116.49177239 81.25193409 -118.51171875 82.90234375 C-120.82697173 84.85119926 -122.75301185 86.69560972 -124.6875 89 C-127.24457821 92.00931256 -129.87156708 94.92241862 -132.5625 97.8125 C-143.7125156 110.22870381 -152.69172389 124.11027133 -161.375 138.3125 C-161.705 137.6525 -162.035 136.9925 -162.375 136.3125 C-161.66918945 134.32324219 -161.66918945 134.32324219 -160.48828125 131.859375 C-160.0507251 130.94124023 -159.61316895 130.02310547 -159.16235352 129.07714844 C-158.67565186 128.08231445 -158.1889502 127.08748047 -157.6875 126.0625 C-157.18855225 125.03415039 -156.68960449 124.00580078 -156.17553711 122.94628906 C-142.39204137 94.81635512 -126.70773729 67.43132853 -104.79492188 44.78808594 C-103.28758089 43.22165387 -101.8087307 41.63076031 -100.328125 40.0390625 C-92.79994772 32.08080303 -84.79854935 25.88151056 -75.375 20.3125 C-74.75866699 19.94785645 -74.14233398 19.58321289 -73.50732422 19.20751953 C-50.89057655 6.05658623 -26.13227383 -0.11193289 0 0 Z " fill="#FEDEB1" transform="translate(342.375,380.6875)"/>
<path d="M0 0 C2.07558169 2.49069803 3.4440543 4.93662218 4.75 7.875 C7.99322902 14.47202267 13.07100608 18.07128119 19.91015625 20.45703125 C45.6928776 27.1557196 74.22269192 15.11030494 97.06933594 4.11279297 C97.94750977 3.69400879 98.82568359 3.27522461 99.73046875 2.84375 C100.50801514 2.46412109 101.28556152 2.08449219 102.08666992 1.69335938 C102.71806885 1.46455078 103.34946777 1.23574219 104 1 C104.99 1.495 104.99 1.495 106 2 C105.43152344 2.6290625 104.86304688 3.258125 104.27734375 3.90625 C100.66826974 7.90695975 97.06770697 11.90779665 93.5625 16 C68.003592 45.11848194 30.29028373 68.12251249 -9 71 C-13.39685088 71.14267352 -17.78989685 71.18582606 -22.18896484 71.18530273 C-24.23166027 71.18748045 -26.2738065 71.20566452 -28.31640625 71.22460938 C-36.39807977 71.25800775 -44.07882895 70.64790982 -52 69 C-48.7630549 65.09906616 -45.46877937 61.44910645 -41.8125 57.9375 C-36.44009496 52.62819367 -31.92627719 46.75481506 -27.35546875 40.76123047 C-26.09072108 39.11787858 -24.79641204 37.49739565 -23.5 35.87890625 C-14.58123773 24.65898897 -7.02333267 12.4822263 0 0 Z " fill="#E98F21" transform="translate(889,1114)"/>
<path d="M0 0 C2.46199431 2.17126554 4.79694545 4.41733576 7.11328125 6.7421875 C7.71140625 7.28101563 8.30953125 7.81984375 8.92578125 8.375 C28.63229435 26.53053753 39.19067601 55.05735547 44.11328125 80.7421875 C44.33886719 81.87914062 44.56445312 83.01609375 44.796875 84.1875 C47.34399677 99.61076145 47.1663317 116.27039929 45.11328125 131.7421875 C44.78328125 131.7421875 44.45328125 131.7421875 44.11328125 131.7421875 C44.11070312 130.91203125 44.108125 130.081875 44.10546875 129.2265625 C42.9336174 91.88356621 27.86081185 53.75657115 3.11328125 25.7421875 C2.51386719 25.05898437 1.91445313 24.37578125 1.296875 23.671875 C-17.81794209 3.27723214 -49.44443781 -12.09101766 -77.51123047 -13.37817383 C-90.68245327 -13.74578823 -103.06471683 -13.38699154 -115.88671875 -10.2578125 C-117.7195986 -9.85988464 -119.55285632 -9.46368731 -121.38671875 -9.0703125 C-123.11921875 -8.668125 -123.11921875 -8.668125 -124.88671875 -8.2578125 C-94.2895562 -35.7952588 -29.54781417 -23.110469 0 0 Z " fill="#BFDC8C" transform="translate(546.88671875,125.2578125)"/>
<path d="M0 0 C15.271606 5.72052423 30.80792168 12.33648363 44.41015625 21.38671875 C48.45525959 23.84714243 50.78630174 24.32574627 55.47265625 23.57421875 C57.51971542 23.07500045 59.56145051 22.55350868 61.59765625 22.01171875 C86.43642733 17.20521498 111.25975253 20.35607196 134.59765625 30.01171875 C134.59765625 31.33171875 134.59765625 32.65171875 134.59765625 34.01171875 C128.16364526 33.36976025 122.44045744 31.89283634 116.3046875 29.91601562 C105.82499704 26.66672613 95.53548275 25.68377699 84.59765625 25.76171875 C83.51226563 25.75398438 82.426875 25.74625 81.30859375 25.73828125 C69.1247354 25.64761858 69.1247354 25.64761858 57.59765625 29.01171875 C58.10514404 29.35315918 58.61263184 29.69459961 59.13549805 30.04638672 C75.24878655 40.91234542 90.36902053 52.51372977 105.109375 65.16796875 C122.19854666 79.40423737 143.14632721 88.64016644 164.59765625 94.01171875 C165.30035645 94.19573242 166.00305664 94.37974609 166.72705078 94.56933594 C176.84937747 97.19678472 186.81395935 98.62290638 197.25073242 99.32885742 C201.72453255 99.64727881 205.52348771 99.94474016 209.59765625 102.01171875 C209.26765625 102.67171875 208.93765625 103.33171875 208.59765625 104.01171875 C185.93794836 111.56495471 151.08769329 97.55903154 130.76171875 87.6953125 C117.66326531 81.14153906 106.14878414 73.47231133 95.40625 63.48828125 C89.1191619 57.94445113 82.31689562 53.01483659 75.59765625 48.01171875 C75.0046875 47.56683105 74.41171875 47.12194336 73.80078125 46.66357422 C54.97568112 32.59423099 34.53648019 21.54189549 13.59765625 11.01171875 C14.00024882 19.08873219 14.43092716 26.81418946 16.59765625 34.63671875 C16.95271248 35.94116445 17.30690122 37.24584662 17.66015625 38.55078125 C17.96953125 39.69289063 18.27890625 40.835 18.59765625 42.01171875 C18.94869126 43.67474711 19.29022839 45.34007973 19.59765625 47.01171875 C17.94765625 47.01171875 16.29765625 47.01171875 14.59765625 47.01171875 C10.53445775 34.05301783 8.91384238 22.58162504 9.59765625 9.01171875 C8.75473022 8.7336438 8.75473022 8.7336438 7.89477539 8.44995117 C2.91847105 6.80093949 -2.03113079 5.09652341 -6.96484375 3.32421875 C-8.18300781 2.88722656 -9.40117188 2.45023437 -10.65625 2 C-11.56246094 1.67386719 -12.46867188 1.34773438 -13.40234375 1.01171875 C-13.40234375 0.35171875 -13.40234375 -0.30828125 -13.40234375 -0.98828125 C-9.36809315 -3.00540655 -4.15574449 -1.20712211 0 0 Z " fill="#BDDB8A" transform="translate(870.40234375,273.98828125)"/>
<path d="M0 0 C2.55848839 0.36864241 3.74326591 0.72356764 5.52734375 2.64453125 C17.11731238 20.46290407 20.36214564 40.69399481 17 61.5 C15.25288749 69.33329785 11.8280015 75.86303914 8.09375 82.88476562 C-2.25618424 102.90079916 -8.37243126 123.65020943 -11 146 C-7.16329336 144.76019875 -3.33132671 143.50631876 0.5 142.25 C2.11648438 141.72792969 2.11648438 141.72792969 3.765625 141.1953125 C8.53430601 139.62513704 13.13162434 138.05124794 17.59375 135.734375 C21 134 21 134 24 134 C24.33 135.32 24.66 136.64 25 138 C16.91866968 142.02874579 8.82649551 145.58563667 0.25 148.4375 C-0.5239209 148.69611816 -1.2978418 148.95473633 -2.09521484 149.22119141 C-5.1657085 150.21472661 -7.75264096 151 -11 151 C-10.505 158.92 -10.505 158.92 -10 167 C-14 166 -14 166 -16 163 C-16.2314567 160.22552558 -16.32783236 157.5876576 -16.3125 154.8125 C-16.32144287 153.57717529 -16.32144287 153.57717529 -16.33056641 152.31689453 C-16.28906689 147.34340812 -15.83997407 142.62191122 -14.97265625 137.72265625 C-12.48983905 127.02449886 -12.48983905 127.02449886 -14.74609375 116.828125 C-17.36746047 114.57781932 -20.07495453 112.83066807 -23 111 C-31.35408805 102.41345037 -36.41127715 92.25385371 -39.375 80.75 C-39.62685059 79.77619385 -39.62685059 79.77619385 -39.88378906 78.78271484 C-40.99094606 74.07311289 -41.13863587 69.79893389 -41 65 C-39.68 65 -38.36 65 -37 65 C-36.75765625 66.18335937 -36.5153125 67.36671875 -36.265625 68.5859375 C-32.22018629 87.87784034 -25.48863436 101.45456788 -11 115 C-10.59910156 113.84886719 -10.19820312 112.69773437 -9.78515625 111.51171875 C-5.33428074 98.96495734 -0.21677294 86.78296085 6.05322266 75.02490234 C10.9674596 65.70721056 12.51583127 57.19143259 12.375 46.6875 C12.36339844 45.58027588 12.35179687 44.47305176 12.33984375 43.33227539 C12.07251826 29.98074317 8.99453483 20.16478819 2.7421875 8.53125 C1.26818088 5.54357738 0.41503971 3.27000981 0 0 Z " fill="#BDDB8A" transform="translate(719,0)"/>
<path d="M0 0 C0.12375 0.639375 0.2475 1.27875 0.375 1.9375 C0.684375 2.9584375 0.684375 2.9584375 1 4 C1.66 4.33 2.32 4.66 3 5 C1.02 16.22 -0.96 27.44 -3 39 C-3.33 39 -3.66 39 -4 39 C-3.44812014 25.88809586 -1.81501964 12.99028168 0 0 Z " fill="#FCBF74" transform="translate(29,727)"/>
<path d="M0 0 C0.66 0.33 1.32 0.66 2 1 C-0.64 5.29 -3.28 9.58 -6 14 C-6.33 13.34 -6.66 12.68 -7 12 C-6.07421875 9.43359375 -6.07421875 9.43359375 -4.6875 6.4375 C-4.23761719 5.44621094 -3.78773438 4.45492188 -3.32421875 3.43359375 C-2 1 -2 1 0 0 Z " fill="#FED9A4" transform="translate(187,505)"/>
</svg>
