<?xml version="1.0" encoding="utf-8"?>
<!-- Generator: Adobe Illustrator 17.0.0, SVG Export Plug-In . SVG Version: 6.00 Build 0)  -->
<!DOCTYPE svg PUBLIC "-//W3C//DTD SVG 1.1//EN" "http://www.w3.org/Graphics/SVG/1.1/DTD/svg11.dtd">
<svg version="1.1" id="Layer_1" xmlns="http://www.w3.org/2000/svg" xmlns:xlink="http://www.w3.org/1999/xlink" x="0px" y="0px"
	 width="1000px" height="1000px" viewBox="0 0 1000 1000" enable-background="new 0 0 1000 1000" xml:space="preserve">
<g>
	<circle fill="#F8EEEA" cx="544.559" cy="731.158" r="256.26"/>
	<path fill="#CAB29D" d="M566.175,970.507c-136.347,0-246.878-110.531-246.878-246.879S429.828,476.75,566.175,476.75
		c3.661,0,7.292,0.118,10.914,0.276c-10.661-1.352-21.502-2.127-32.53-2.127c-141.528,0-256.26,114.731-256.26,256.26
		c0,141.528,114.732,256.26,256.26,256.26c72.012,0,137.045-29.745,183.598-77.569C684.797,947.598,628.178,970.507,566.175,970.507
		z"/>
	<circle fill="#491014" cx="610.744" cy="890.913" r="28.261"/>
	<path fill="#B01119" d="M648.406,711.004l7.457-2.011l-13.758-52.804h-59.621L424.57,698.952c0,0,5.95,45.366,5.95,45.49
		c0,0.041,4.717,1.628,10.981,3.715l38.793,114.495l35.009,17.391l162.5-63.215L648.406,711.004z"/>
	<g>
		<polygon fill="#700000" points="424.57,698.952 458.78,707.877 473.655,756.218 480.294,756.218 515.302,880.044 480.294,862.653 
			441.501,748.158 430.52,744.442 		"/>
		<polygon fill="#700000" points="648.406,711.004 480.294,756.218 481.604,760.851 649.79,715.988 		"/>
		<polygon fill="#700000" points="642.104,656.189 458.78,707.877 452.06,706.124 629.461,656.189 		"/>
	</g>
	<path fill="#FEB453" d="M651.304,623.962c0,0-49.413,23.869-86.262,50.359l47.36,167.949l-29.919,11.638l-49.467-166.963
		c0,0-62.089-18.857-94.812-12.66c0,0,12.147-11.651,33.467-9.172c0,0-14.626-16.362-33.467-14.626c0,0,25.038-13.884,60.24,5.701
		c0,0-16.216-17.099-16.609-20.688c-0.394-3.589,29.996-25.174,33.467-23.686c3.471,1.488,18.345,40.656,18.345,40.656
		s11.651-47.349,15.618-48.589c3.966-1.239,32.723-0.496,33.962,4.71c1.24,5.206-10.164,39.169-10.164,39.169
		s30.492-40.707,62.967-44.4c0,0-19.089,12.421-25.038,27.295C610.992,630.656,632.121,622.227,651.304,623.962z"/>
	<polygon fill="#491014" points="695.279,571.035 703.831,649.124 660.325,717.917 612.356,735.927 607.15,760.851 639.129,746.922 
		619.049,785.594 623.883,808.277 677.802,718.289 677.802,768.117 690.073,785.222 700.856,689.656 725.027,646.521 
		716.102,565.457 	"/>
	<path fill="#491014" d="M351.315,679.616c0.372,1.116,26.773,72.14,26.773,72.14l71.767,37.743h65.446l17.105,14.316l-52.114,4.462
		l44.677,21.94l4.09,23.693l-90.856-48.235l28.757,43.878l-4.09,21.939c0,0-55.778-82.18-56.893-81.993
		c-1.116,0.186-47.226-28.648-47.226-28.648l-29.004-78.818L351.315,679.616z"/>
	<circle fill="#F8EEEA" cx="440.578" cy="367.471" r="188.13"/>
	<g>
		<path fill="#DE841E" d="M596.067,348.051l-128.579-3.625c-2.649-0.488-5.345-0.569-8.008-0.226l-0.101-0.003l0.006,0.016
			c-3.079,0.409-6.109,1.36-8.941,2.966c-12.712,7.206-16.702,24.188-8.913,37.929c7.79,13.741,24.41,19.039,37.122,11.832
			l118.338-43.2C600.029,352.631,599.3,348.142,596.067,348.051z"/>
		<g>
			<path fill="#FEB453" d="M464.478,352.111c-2.45,7.95-2.441,16.639,0.026,24.584c2.467,7.945,7.381,15.111,13.903,20.275
				c-9.1-2.457-17.097-9.536-19.737-18.584C456.03,369.338,458.127,359.077,464.478,352.111z"/>
			<g>
				<path fill="#FEB453" d="M495.243,361.317c-0.704-5.499,0.485-11.166,3.159-16.02l-4.296-0.121
					c-0.024,0.032-0.061,0.048-0.083,0.08c-3.711,5.324-4.853,12.357-3.016,18.581c1.837,6.224,6.615,11.51,12.622,13.964
					C499.125,373.652,496.021,367.391,495.243,361.317z"/>
				<path fill="#FEB453" d="M526.287,366.34c-2.146-5.241-2.461-11.212-0.878-16.649c-2.883,4.962-4.36,10.568-3.349,16.216
					c0.859,4.803,3.274,9.257,6.678,12.749l5.432-1.983C530.719,373.972,527.949,370.398,526.287,366.34z"/>
				<path fill="#FEB453" d="M551.93,346.807l-3.542-0.1c-0.849,4.17-0.54,8.575,1.049,12.525c1.473,3.663,3.986,6.883,7.133,9.264
					l0.856-0.313C552.441,362.442,550.4,354.283,551.93,346.807z"/>
			</g>
		</g>
	</g>
	<path fill="#D2C3BE" d="M470.055,546.169c-103.902,0-188.13-84.229-188.13-188.131c0-78.349,47.906-145.489,116.013-173.785
		c-83.351,19.324-145.491,93.99-145.491,183.218c0,103.902,84.228,188.131,188.13,188.131c25.552,0,49.903-5.118,72.115-14.346
		C498.987,544.434,484.727,546.169,470.055,546.169z"/>
	<path fill="#EBDED0" d="M212.614,316.383c0,0,29.749,58.723,44.622,59.82c14.874,1.097,153.947-69.555,200.8-107.484
		s73.627-76.124,67.677-89.378c-5.949-13.253-42.391-51.182-55.778-45.232c-13.387,5.949-230.548,149.158-244.679,159.361
		C211.127,303.673,209.241,309.97,212.614,316.383z"/>
	<path fill="#B01119" d="M231.951,305.171c0,0,192.619-96.692,224.599-145.033c0,0-73.627-109.324-139.817-118.249
		c-66.189-8.924-118.993-20.824-125.686-14.874c-6.693,5.95-54.29,42.391-55.778,53.547
		c-1.487,11.156,16.362,112.074-33.467,174.286c0,0-0.744,19.077,22.311,24.283c0,0,67.677-45.47,79.576-113.839
		c0,0,10.412,27.569,12.643,61.779C216.333,227.072,199.971,269.484,231.951,305.171z"/>
	<circle fill="#F8EEEA" cx="104.457" cy="290.813" r="38.249"/>
	<circle fill="#E51937" cx="358.566" cy="425.455" r="32.165"/>
	<circle fill="#E51937" cx="553.975" cy="305.171" r="27.517"/>
	<g>
		
			<ellipse transform="matrix(0.9782 -0.2076 0.2076 0.9782 -51.9863 106.2131)" fill="#491014" cx="480.011" cy="300.772" rx="12.024" ry="17.706"/>
		
			<ellipse transform="matrix(0.9782 -0.2076 0.2076 0.9782 -65.8071 87.5728)" fill="#491014" cx="384.291" cy="357.29" rx="12.024" ry="17.706"/>
		<path fill="#491014" d="M335.362,357.741c0.576,1.173,1.22,2.361,1.316,3.664c0.096,1.303-0.539,2.769-1.784,3.162
			c-1.571,0.496-3.081-0.86-4.106-2.15c-8.928-11.231-11.372-27.276-6.194-40.656c0.833-2.153,1.888-4.292,3.599-5.843
			c2.423-2.196,6.886-2.992,8.808,0.3c1.581,2.707-1.496,4.534-2.571,6.855c-3.141,6.78-3.86,15.001-2.828,22.329
			C332.203,349.678,333.457,353.865,335.362,357.741z"/>
		<path fill="#491014" d="M493.526,254.341c0.955,1.07,1.88,2.238,3.173,2.856c1.294,0.617,3.098,0.463,3.851-0.757
			c0.672-1.089,0.263-2.501-0.232-3.681c-4.547-10.827-15.479-18.679-27.191-19.532c-2.528-0.184-5.162-0.045-7.437,1.072
			c-5.149,2.531-5.371,11.922,1.467,10.208c5.996-1.504,12.401,0.234,17.794,3.123C488.167,249.352,491.095,251.618,493.526,254.341
			z"/>
		<path fill="#491014" d="M431.015,470.89c0.227,2.132,0.501,4.736-1.243,5.984c-1.476,1.057-3.688,0.355-4.813-1.069
			c-1.125-1.424-1.406-3.33-1.491-5.143c-0.402-8.524,2.792-17.161,8.644-23.372c0.997-1.059,2.157-2.095,3.592-2.333
			c1.069-0.177,2.718,0.356,3.123,1.481c0.467,1.3-0.704,2.131-1.453,3.071c-1.6,2.008-2.943,4.201-3.98,6.55
			C431.351,460.69,430.48,465.849,431.015,470.89z"/>
		<path fill="#491014" d="M472.539,431.777c0,0-13.731,34.582-41.355,21.009c0,0,11.979,54.477,33.732,52.803
			C486.67,503.916,472.539,431.777,472.539,431.777z"/>
	</g>
	<g>
		<g>
			<g>
				<path fill="#700000" d="M840.24,736.96c10.673,1.322,18.863,11.245,17.803,21.963c-0.221,8.124-2.281,19.051,6.552,22.702
					c1.614,0.505,0.835,3.061-0.792,2.571c-5.266-1.461-8.353-6.457-9.375-11.235c-1.992-8.469,1.415-18.473-4.713-24.985
					c-2.612-2.778-6.459-4.482-10.284-4.834C835.213,742.673,836.021,736.333,840.24,736.96L840.24,736.96z"/>
				<path fill="#700000" d="M853.781,727.376c9.597,1.736,12.155,11.428,16.372,17.974c3.921,5.82,10.828,9.805,18.091,10.21
					c1.62,0.047,1.579,2.601-0.053,2.589c-8.116,0.086-16.231-3.75-21.396-10.341c-2.558-3.295-4.214-6.863-6.325-9.671
					c-2.026-2.759-4.794-4.908-7.421-5.072C849.05,732.716,849.805,726.703,853.781,727.376L853.781,727.376z"/>
				<path fill="#700000" d="M858.815,721.731c8.956-0.694,10.866,9.192,16.553,13.127c1.635,1.02,3.708,1.673,5.883,2.423
					c9.104,2.867,16.607,10.487,19.278,19.64c0.421,1.387-1.727,2.091-2.194,0.699c-2.868-8.163-9.834-14.648-18.2-16.828
					c-4.473-0.906-9.893-3.579-12.36-7.62c-2.213-2.92-4.788-6.792-8.344-6.413C855.942,727.4,855.257,721.965,858.815,721.731
					L858.815,721.731z"/>
				<path fill="#700000" d="M867.872,715.466c16.198,0.542,29.514,13.596,34.019,28.328c0.194,0.807-0.303,1.618-1.11,1.813
					c-0.676,0.162-1.355-0.16-1.672-0.743c-1.676-3.091-3.217-6.168-5.396-8.849c-5.753-7.09-15.857-13.958-24.992-13.258
					C863.634,723.574,862.714,715.847,867.872,715.466L867.872,715.466z"/>
				<path fill="#700000" d="M881.417,704.681c15.294,7.143,25.963,22.813,26.845,39.528c0.032,0.519-0.364,0.965-0.883,0.996
					c-0.494,0.03-0.923-0.332-0.989-0.814c-1.977-15.433-12.742-29.21-27.161-34.667
					C875.763,708.353,878.025,703.081,881.417,704.681L881.417,704.681z"/>
				<path fill="#700000" d="M893.748,699.851c4.882,10.822,15.091,19.502,27.067,22.537c1.581,0.361,1.062,2.85-0.536,2.546
					c-12.986-2.228-24.946-10.593-31.565-22.542C886.869,699.021,892.124,696.351,893.748,699.851L893.748,699.851z"/>
				<path fill="#700000" d="M894.186,692.387c9.035,7.994,21.859,10.001,33.639,11.704c1.445,0.184,1.219,2.455-0.242,2.339
					c-12.685-0.718-26.131-1.728-36.911-9.693c-1.248-0.912-1.52-2.664-0.608-3.911
					C891.026,691.495,892.965,691.291,894.186,692.387L894.186,692.387z"/>
			</g>
			<path fill="#377C2B" d="M611.736,431.777c0.496,1.301,20.328-25.472,26.277-24.976c5.95,0.496,132.743,28.384,162.805,54.352
				c30.062,25.968,37.995,74.061,42.953,131.574c4.958,57.513,25.782,85.774,59.496,101.639l-64.95,50.076
				c0,0-65.977-13.896-84.057-98.665c-18.079-84.768-23.273-117.01-23.273-117.01s-19.783-39.374-82.904-32.082l-53.076-21.787
				L611.736,431.777z"/>
			<g>
				<path fill="#700000" d="M855.919,646.047c-23.539,21.646-49.645,40.161-77.865,55.279c4.492,6.216,9.234,11.574,14.009,16.181
					c26.768-14.742,51.645-32.469,74.36-52.86C862.443,659.141,858.93,652.984,855.919,646.047z"/>
				<path fill="#700000" d="M763.76,675.922c2.924,6.797,6.185,12.935,9.666,18.486c28.616-15.882,55.1-35.133,79.023-57.46
					c-2.412-7.052-4.409-14.778-5.942-23.31C821.816,638.115,794.075,659.042,763.76,675.922z"/>
				<path fill="#700000" d="M885.857,684.142c-5.638-4.116-10.752-8.84-15.34-14.269c-22.269,20.301-46.788,37.855-73.233,52.361
					c6.617,5.657,13.133,9.974,18.96,13.201C841.241,720.882,864.55,703.733,885.857,684.142z"/>
			</g>
		</g>
		<path fill="#5BA238" d="M334.642,522.953c0.932,0.857,52.991,33.084,113.975,16.722c60.984-16.362,111.06-33.715,114.035-37.185
			c2.975-3.471,43.085-44.87,43.085-44.87s24.84-2.867,26.823,19.762c0,0,24.79,9.042,17.353,23.52
			c-7.437,14.479-88.253,106.698-154.691,127.522s-177.993-8.924-184.934-29.748C303.346,577.853,334.642,522.953,334.642,522.953z"
			/>
		<path fill="#185F1D" d="M632.56,477.382c0,0-9.433,52.005-119.867,93.653c0,0,34.837-14.928,77.352-54.29
			c42.515-39.362,33.099-55.592,33.099-55.592S630.016,463.407,632.56,477.382z"/>
		<path fill="#185F1D" d="M346.109,555.602c0,0,66.933,34.026,137.214,25.473c0,0-28.697,13.994-79.576,5.206
			C362.843,579.216,346.109,555.602,346.109,555.602z"/>
	</g>
	<path fill="#700000" d="M203.69,165.293c0,0-14.378-51.759-43.135-80.268c0,0,29.485,42.575,38.289,99.276
		C198.845,184.3,202.787,171.936,203.69,165.293z"/>
</g>
</svg>
