<svg id="Layer_1" data-name="Layer 1" xmlns="http://www.w3.org/2000/svg" viewBox="0 0 500 500"><title>Halloween Illustration_24</title><path d="M456.84,382.65c-8.46-11.77-26-20.72-22.76-34.86l3.51-7.4c6.63-10.85-4.52-23.33-10.17-34.72-3.72-7.52-5-16-6.3-24.25-9.43-61.9-18.69-125.49-49.15-180.2S281.07-3.13,218.55.15l-6.46.2c-39.56,5-74.16,32-95,66S87.93,140.74,86,180.57c-.36,7.3-.57,14.76-.91,22.21-3.39-.76-6.78-2-10.05-3.07-6.74-2.23-15.19-3.42-20.26,1.28-2.92,2.71-3.89,6.73-4.18,10.55-1.36,17.73,9.35,34.72,23.78,46.39a70.86,70.86,0,0,1-6.78,11.46c-6.75,9.21-15.8,16.55-22.42,25.85s-10.57,21.9-5.48,32.12c2.38,4.76,6.46,8.49,8.85,13.24,5.43,10.73,1.13,23.52.17,35.51-2.45,30.35,20.78,60.63,50.73,66.12,20.72,3.81,43.06-2.92,62.68,4.78,25.77,10.12,38.49,41.93,64.76,50.68,22.33,7.45,46.27-4.4,65.78-17.57s39.57-28.67,63.1-29.35c13.09-.38,25.87,4,38.95,4.73A71.68,71.68,0,0,0,441.88,441C459.51,427.46,469.81,400.7,456.84,382.65ZM115,237.08a128.63,128.63,0,0,1-8.87,19c-3.91,6.85-8.58,14.12-13.67,21.57C82.17,292.51,73,305.81,67.12,315.91s-8.88,16.64-10.05,16.19c-1-.35,1-7.56,6.55-18.14s14.84-24.12,25-38.86c5.06-7.4,9.65-14.56,13.53-21.21a164.68,164.68,0,0,0,9.06-18.26c4.44-10.7,5.92-17.79,7.21-17.56C119.43,218.2,119.05,225.76,115,237.08ZM162.45,254c-.35,18.29-5.45,43-10.89,69.82a325.3,325.3,0,0,0-5.38,38.1,163.35,163.35,0,0,0,.52,31.18c2.09,17.67,6.9,27.82,5.62,28.34-.78.46-6.83-9.57-9.59-27.8a149.49,149.49,0,0,1-1-32A313.52,313.52,0,0,1,147.07,323c5.47-27,10.48-51.3,11.37-69.15,1.21-17.82-.5-28.82.79-29C160.19,224.59,163.09,235.73,162.45,254ZM176.58,33.15c-22.61,14-34.21,32.65-37.14,30.51-1.35-.91,1-6.12,6.7-13.21s15-15.72,26.79-23.12,23.65-12,32.5-14S220,11.41,220.23,13C220.88,16.6,199,18.9,176.58,33.15ZM347,128.88c1.51-1.63,8.63,5.09,13.47,15.79s5.4,20.43,3.19,20.51-2.76-8.71-7.35-18.6S345.35,130.53,347,128.88Zm-6.78,105.66c.86-.79,4.74,2.71,10.64,8.6s13.88,14.16,23.87,21.77c20.14,15.36,40.55,20,39.8,22.35-.36,2.13-21.67-2.76-42.56-18.7a168.92,168.92,0,0,1-24-22.68C342.44,239.54,339.43,235.3,340.26,234.54ZM297.92,407.75c-5.3-8.72-10.07-20-13.76-32.86a239.61,239.61,0,0,1-7.52-42.78c-1.36-15.3-1.91-29.88-2.66-43.07q-.69-12.63-1.69-23.37,2.28,2.35,4.77,4.5c.56,5.83,1,12.06,1.42,18.61.82,13.24,1.38,27.78,2.72,42.92a241.34,241.34,0,0,0,7.31,42,143.57,143.57,0,0,0,12.88,32.06c9.67,17.25,19.59,25,18.58,26.08C319.56,432.53,308.49,425.38,297.92,407.75Zm101-65.55c-13.81-10.62-29-29.41-42.8-51.56s-26-42.15-36.83-55.14c-10.58-13.16-18.71-19.83-17.89-20.83.58-.81,9.68,5.15,21,18.26,11.5,12.93,23.93,33.25,37.61,55.26s28.51,40.23,41.49,50.92c12.81,10.89,22.6,14.94,22,16.18C423.18,356.17,412.55,353,398.88,342.2Z" fill="#c8dddc"/><path d="M205.43,13.29c-8.85,2-20.71,6.67-32.5,14s-21.1,16-26.79,23.12-8,12.3-6.7,13.21c2.93,2.14,14.53-16.51,37.14-30.51C199,18.9,220.88,16.6,220.23,13,220,11.41,214.3,11.23,205.43,13.29Z" fill="#fff"/><path d="M111.25,235.63a164.68,164.68,0,0,1-9.06,18.26c-3.88,6.65-8.47,13.81-13.53,21.21-10.2,14.74-19.58,28.24-25,38.86s-7.52,17.79-6.55,18.14c1.17.45,4.14-6.14,10.05-16.19s15-23.4,25.32-38.23c5.09-7.45,9.76-14.72,13.67-21.57a128.63,128.63,0,0,0,8.87-19c4.07-11.32,4.45-18.88,3.48-19C117.17,217.84,115.69,224.93,111.25,235.63Z" fill="#89afac"/><path d="M158.44,253.81c-.89,17.85-5.9,42.13-11.37,69.15a313.52,313.52,0,0,0-5.39,38.66,149.49,149.49,0,0,0,1,32c2.76,18.23,8.81,28.26,9.59,27.8,1.28-.52-3.53-10.67-5.62-28.34a163.35,163.35,0,0,1-.52-31.18,325.3,325.3,0,0,1,5.38-38.1C157,297,162.1,272.3,162.45,254c.64-18.28-2.26-29.42-3.22-29.21C157.94,225,159.65,236,158.44,253.81Z" fill="#89afac"/><path d="M401.43,339.11c-13-10.69-27.78-28.93-41.49-50.92s-26.11-42.33-37.61-55.26c-11.29-13.11-20.39-19.07-21-18.26-.82,1,7.31,7.67,17.89,20.83,10.81,13,23.05,33,36.83,55.14s29,40.94,42.8,51.56c13.67,10.84,24.3,14,24.57,13.09C424,354.05,414.24,350,401.43,339.11Z" fill="#89afac"/><path d="M372,268.56c20.89,15.94,42.2,20.83,42.56,18.7.75-2.31-19.66-7-39.8-22.35-10-7.61-17.95-15.91-23.87-21.77s-9.78-9.39-10.64-8.6,2.18,5,7.71,11.34A168.92,168.92,0,0,0,372,268.56Z" fill="#89afac"/><path d="M363.7,165.18c2.21-.08,1.76-9.86-3.19-20.51s-12-17.42-13.47-15.79c-1.69,1.65,4.8,7.77,9.31,17.7S361.34,165.39,363.7,165.18Z" fill="#89afac"/><path d="M288.51,373.68a241.34,241.34,0,0,1-7.31-42c-1.34-15.14-1.9-29.68-2.72-42.92-.39-6.55-.86-12.78-1.42-18.61q-2.49-2.15-4.77-4.5,1,10.74,1.69,23.37c.75,13.19,1.3,27.77,2.66,43.07a239.61,239.61,0,0,0,7.52,42.78c3.69,12.9,8.46,24.14,13.76,32.86,10.57,17.63,21.64,24.78,22.05,24.07,1-1.07-8.91-8.83-18.58-26.08A143.57,143.57,0,0,1,288.51,373.68Z" fill="#89afac"/><path d="M137.35,120.93c-7.24,5.51-10.5,20.52-9.4,29.65.78,9.56,3.6,17.42,8.56,22.75a11.2,11.2,0,0,0,9.05,3.84,8.92,8.92,0,0,0,2.44.47c17.11-.85,22.69-39.47,8.56-54.49C150.8,117.15,144.28,115.57,137.35,120.93Z" fill="#2f2734"/><path d="M234.79,170.49a12.09,12.09,0,0,0,9.78,4.15,9.56,9.56,0,0,0,2.63.51c18.49-.92,24.51-42.64,9.25-58.87-6.22-6.48-13.27-8.19-20.76-2.4-7.81,6-11.33,22.16-10.15,32C226.39,156.24,229.43,164.73,234.79,170.49Z" fill="#2f2734"/><path d="M205.1,195.47c-3.95-3.47-7.19-5.16-12.25-5.52a17.42,17.42,0,0,0-18.42,22.78c.95,2.89,2.65,5.5,3.48,8.43,1.24,4.38.44,9.06.77,13.6.38,5.12,2.41,10.32,6.42,13.51s10.23,3.83,14.26.66,4.84-8.55,4.82-13.5-.7-10.07,1-14.72c1.31-3.6,4-6.63,5-10.33C211.66,205,209.27,199.12,205.1,195.47Z" fill="#2f2734"/><path d="M192.11,189.86c.27,0,.48.07.74.09s.45,0,.67.05Z" fill="#2f2734"/><path d="M152.33,91.46c1.18-3.19-6.92-5.88-16.2-3-9.32,2.67-14.65,9.34-11.93,11.37,2.66,2.27,6.5-2.63,13.89-4.78S151.34,94.82,152.33,91.46Z" fill="#2f2734"/><path d="M237.52,87.85a31.15,31.15,0,0,1,10.72-.26,27.72,27.72,0,0,1,9.85,3.89c2.29,1.36,3.83,2.41,5.35,1.49s1.08-3.35-1.49-6.1-7.18-5.14-12.54-6.05-10.48-.25-13.78,1.32-4.64,3.68-3.69,5S234.82,88.29,237.52,87.85Z" fill="#2f2734"/><path d="M285.81,459.92c-2.27.42-4.76,2.2-7.44,4.16-5.54,3.92-12.56,10.24-21.68,14a31.89,31.89,0,0,1-13.28,2.54,23.38,23.38,0,0,1-10.36-2.9c-5.45-3.06-7.24-6.84-8.37-6.3-1,.24,0,5.4,6.27,9.71a24.46,24.46,0,0,0,12.23,4,35.13,35.13,0,0,0,15.23-2.8c10.14-4.25,17.3-10.83,22.46-15.14a48.2,48.2,0,0,1,5.83-4.8c1.36-.83,2.35-1,2.46-1.58S288.09,459.48,285.81,459.92Z" fill="#2f2734"/><path d="M439.44,401.25c-.85-2.16-1.85-3.06-2.32-2.84-1.19.49.83,4.81-1,11.6a24.89,24.89,0,0,1-6,10.51,31.6,31.6,0,0,1-12.91,7.77c-10.54,3.44-21.08,2.78-28.64,3.09-7.62.15-12.4,1-12.31,2.15s4.7,1.43,12.27,1.85c7.49.23,18.44,1,30.13-2.75a35.2,35.2,0,0,0,14.74-9,26.36,26.36,0,0,0,6.58-12.7A18,18,0,0,0,439.44,401.25Z" fill="#2f2734"/><path d="M103.76,423.91c-6.77-2-16.27-5.29-22.73-13.78-6.6-8.29-8.91-18.15-10.19-25s-1.47-11.48-2.69-11.5-2,4.56-1.28,12,3.19,18,10.58,27.33a37.76,37.76,0,0,0,12.76,10.49,51.8,51.8,0,0,0,12.55,4.32c7.31,1.49,11.85,1.55,12.06.47S110.62,425.89,103.76,423.91Z" fill="#2f2734"/><path d="M290.06,223.56c-5.3-1.63-11.61-4.1-19.3-5.8a26,26,0,0,0-6.59-.8A10.16,10.16,0,0,0,256.5,221c-3.38,4.79-3.14,10-2.83,14.55a50.61,50.61,0,0,0,9.21,24.18,65,65,0,0,0,14.62,14.8c9.54,6.89,16.41,9.18,17.18,7.78.9-1.59-5.05-5.39-13.43-12.48a71.92,71.92,0,0,1-12.8-13.94,45,45,0,0,1-7.94-21c-.39-4-.06-7.82,1.47-9.81a3.14,3.14,0,0,1,2.59-1.37,20.47,20.47,0,0,1,4.81.6c7,1.43,13.42,3.67,19.08,5a45.63,45.63,0,0,0,13.88,1.53c3.36-.32,5.11-1.19,5-2C307.17,227.11,300.56,227.13,290.06,223.56Z" fill="#2f2734"/></svg>