<svg id="Layer_1" data-name="Layer 1" xmlns="http://www.w3.org/2000/svg" viewBox="0 0 500 500"><title>Halloween Illustration_22</title><path d="M214.81,350.61c-12.46,0-22.55,10.58-22.55,23.63s10.09,23.64,22.55,23.64,22.54-10.58,22.54-23.64S227.26,350.61,214.81,350.61Zm-2.82,20a4.64,4.64,0,1,1,4.42-4.64A4.54,4.54,0,0,1,212,370.6Z" fill="#9ed222"/><path d="M286.44,350.61c-12.45,0-22.54,10.58-22.54,23.63s10.09,23.64,22.54,23.64S309,387.3,309,374.24,298.9,350.61,286.44,350.61Zm2.82,20a4.64,4.64,0,1,1,4.42-4.64A4.54,4.54,0,0,1,289.26,370.6Z" fill="#9ed222"/><path d="M381.25,327.26a318.28,318.28,0,0,1-47.49,69.91l-15.31,6.48A94.24,94.24,0,0,0,348,349.57a141.39,141.39,0,0,0,35.28-48.37c28.29,34.72,72,56.37,116.77,57.83a189.67,189.67,0,0,1-119.46-86,131.83,131.83,0,0,1-32.42,47.85q-.5-3.3-1.23-6.54c11.53-17.37,19.39-38.1,26.43-57.89,13.81,14.63,28.59,28.68,46.1,38.59s38.1,15.45,57.92,12C453.05,305,430.11,293.41,412.06,277s-31.48-37.41-41.31-59.73A150.11,150.11,0,0,1,339.24,293c-16.13-32-50.26-54-89.77-54-39.17,0-73,21.68-89.34,53.19a150,150,0,0,1-30.88-74.93C119.42,239.61,106,260.63,87.94,277S47,305,22.66,307.1c19.82,3.42,40.42-2.12,57.92-12s32.29-24,46.1-38.59c6.88,19.35,14.54,39.61,25.65,56.74-.54,2.23-1,4.49-1.38,6.78a131.88,131.88,0,0,1-31.49-46.94A189.67,189.67,0,0,1,0,359c44.76-1.46,88.48-23.11,116.77-57.83a141.43,141.43,0,0,0,34.06,47.28,94.09,94.09,0,0,0,28.75,54.34l-13.34-5.65a318.28,318.28,0,0,1-47.49-69.91C105.1,374,63,406.52,20.53,430.27c39.7-5.55,70.78-35.77,98.83-64.4,8.24,12.6,16.93,25.35,29.09,34.23,11,8,25.44,12.36,38.39,8.93a103,103,0,0,0,125.54-.21c13.14,3.82,28-.55,39.17-8.72,12.16-8.88,20.85-21.63,29.09-34.23,28.05,28.63,59.13,58.85,98.83,64.4C437,406.52,394.9,374,381.25,327.26Zm4.2-39.48c.66,1,1.69,2.47,3,4.2a125.92,125.92,0,0,0,11.18,12.64c4.65,4.67,9,8.81,12.16,11.87s5,5,5,5-2.32-1.43-5.91-4a99.3,99.3,0,0,1-13.24-11,60.28,60.28,0,0,1-10.38-13.83,39.59,39.59,0,0,1-2.22-4.74l-.68-1.79Zm-7.3-48.93c2.61,4.36,6.42,10.2,11,16.36s9.13,11.45,12.57,15.19,5.68,6,5.68,6a74.47,74.47,0,0,1-6.62-5,85,85,0,0,1-23.86-31.91,73.83,73.83,0,0,1-2.91-7.76S375.54,234.5,378.15,238.85Zm-254.31.63a87.28,87.28,0,0,1-10,17.37A87.09,87.09,0,0,1,100,271.39a74.47,74.47,0,0,1-6.62,5s2.24-2.25,5.68-6,8-9,12.57-15.19,8.4-12,11-16.36,4.13-7.13,4.13-7.13A73.83,73.83,0,0,1,123.84,239.48ZM115.7,288a39.59,39.59,0,0,1-2.22,4.74,60.28,60.28,0,0,1-10.38,13.83,99.94,99.94,0,0,1-13.23,11c-3.6,2.53-5.92,4-5.92,4s1.89-2,5-5,7.51-7.2,12.16-11.87A125.92,125.92,0,0,0,112.33,292c1.3-1.73,2.33-3.17,3-4.2l1.06-1.59Zm.21,60.93a52.29,52.29,0,0,1-15.34,24.52,44.43,44.43,0,0,1-4.71,3.77l3.7-4.7c2.24-2.92,5.14-7,8.08-11.71s5.35-9.09,7-12.38l2.6-5.39A45.08,45.08,0,0,1,115.91,348.91Zm66.61-73.32c-2.83,2.71-5.32,5.28-7.08,7.23L172.57,286a27.43,27.43,0,0,1,1.74-4,32.05,32.05,0,0,1,15-14.37,26.55,26.55,0,0,1,4.07-1.56s-1.3,1.05-3.33,2.72S185.35,272.88,182.52,275.59Zm32.29,122.29c-12.46,0-22.55-10.58-22.55-23.64s10.09-23.63,22.55-23.63,22.54,10.58,22.54,23.63S227.26,397.88,214.81,397.88ZM258.32,410A12.18,12.18,0,0,1,249,414.7a14,14,0,0,1-9.61-4.52c-.34-.35-.64-.69-.91-1a30.8,30.8,0,0,0,20.42,0C258.74,409.46,258.55,409.73,258.32,410Zm28.12-12.13c-12.45,0-22.54-10.58-22.54-23.64s10.09-23.63,22.54-23.63S309,361.19,309,374.24,298.9,397.88,286.44,397.88Zm24.28-129c-2-1.67-3.33-2.72-3.33-2.72a26.55,26.55,0,0,1,4.07,1.56,32.05,32.05,0,0,1,15,14.37,27.43,27.43,0,0,1,1.74,4l-2.87-3.21c-1.76-1.95-4.25-4.52-7.08-7.23S312.75,270.51,310.72,268.83Zm89.48,104.6a52.29,52.29,0,0,1-15.34-24.52,45.08,45.08,0,0,1-1.33-5.89s1,2.08,2.61,5.39,4.06,7.69,7,12.38,5.84,8.79,8.08,11.71l3.7,4.7A44.43,44.43,0,0,1,400.2,373.43Z" fill="#517079"/><ellipse cx="289.26" cy="365.96" rx="4.42" ry="4.64" fill="#f9e9ea"/><ellipse cx="211.99" cy="365.96" rx="4.42" ry="4.64" fill="#f9e9ea"/><path d="M238.51,409.17c.27.32.57.66.91,1A14,14,0,0,0,249,414.7a12.18,12.18,0,0,0,9.29-4.69c.23-.28.42-.55.61-.82a30.8,30.8,0,0,1-20.42,0Z" fill="#f9e9ea"/><path d="M111.61,255.21C107,261.35,102.48,266.66,99,270.4s-5.68,6-5.68,6a74.47,74.47,0,0,0,6.62-5,87.09,87.09,0,0,0,13.83-14.54,87.28,87.28,0,0,0,10-17.37,73.83,73.83,0,0,0,2.91-7.76s-1.52,2.78-4.13,7.13S116.2,249.05,111.61,255.21Z" fill="#f9e9ea"/><path d="M113.48,292.72A39.59,39.59,0,0,0,115.7,288l.68-1.79-1.06,1.59c-.66,1-1.69,2.47-3,4.2a125.92,125.92,0,0,1-11.18,12.64c-4.65,4.67-9,8.81-12.16,11.87s-5,5-5,5,2.32-1.43,5.92-4a99.94,99.94,0,0,0,13.23-11A60.28,60.28,0,0,0,113.48,292.72Z" fill="#f9e9ea"/><path d="M107.64,360.79c-2.94,4.69-5.84,8.79-8.08,11.71l-3.7,4.7a44.43,44.43,0,0,0,4.71-3.77,52.29,52.29,0,0,0,15.34-24.52,45.08,45.08,0,0,0,1.33-5.89l-2.6,5.39C113,351.7,110.57,356.1,107.64,360.79Z" fill="#f9e9ea"/><path d="M180.62,273.6a32.62,32.62,0,0,0-6.31,8.44,27.43,27.43,0,0,0-1.74,4l2.87-3.21c1.76-1.95,4.25-4.52,7.08-7.23s5.5-5.08,7.53-6.76,3.33-2.72,3.33-2.72a26.55,26.55,0,0,0-4.07,1.56A32.84,32.84,0,0,0,180.62,273.6Z" fill="#f9e9ea"/><path d="M400.79,271.39a74.47,74.47,0,0,0,6.62,5s-2.24-2.25-5.68-6-8-9-12.57-15.19-8.4-12-11-16.36-4.13-7.13-4.13-7.13a73.83,73.83,0,0,0,2.91,7.76,85,85,0,0,0,23.86,31.91Z" fill="#f9e9ea"/><path d="M411.78,316.49c-3.14-3.06-7.51-7.2-12.16-11.87A125.92,125.92,0,0,1,388.44,292c-1.3-1.73-2.33-3.17-3-4.2l-1.06-1.59.68,1.79a39.59,39.59,0,0,0,2.22,4.74,60.28,60.28,0,0,0,10.38,13.83,99.3,99.3,0,0,0,13.24,11c3.59,2.53,5.91,4,5.91,4S414.93,319.54,411.78,316.49Z" fill="#f9e9ea"/><path d="M393.13,360.79c-2.93-4.69-5.35-9.09-7-12.38s-2.61-5.39-2.61-5.39a45.08,45.08,0,0,0,1.33,5.89,52.29,52.29,0,0,0,15.34,24.52,44.43,44.43,0,0,0,4.71,3.77l-3.7-4.7C399,369.58,396.07,365.48,393.13,360.79Z" fill="#f9e9ea"/><path d="M320.15,273.6a32.84,32.84,0,0,0-8.69-5.93,26.55,26.55,0,0,0-4.07-1.56s1.3,1.05,3.33,2.72,4.7,4.05,7.53,6.76,5.32,5.28,7.08,7.23L328.2,286a27.43,27.43,0,0,0-1.74-4A32.62,32.62,0,0,0,320.15,273.6Z" fill="#f9e9ea"/><path d="M264.38,404a30.37,30.37,0,0,1-29.93.81c-3.6-1.81-5.6-3.4-6.06-2.89s1.26,2.6,5,4.84a25.88,25.88,0,0,0,2.48,1.31,10.16,10.16,0,0,0,1.89,3.56,14.86,14.86,0,0,0,11.27,5.6,13.43,13.43,0,0,0,11.13-5.95,9.16,9.16,0,0,0,1.3-3.11,27,27,0,0,0,4.12-2.27c3.59-2.44,5.14-4.71,4.71-5.1S267.88,402,264.38,404Zm-6.06,6A12.18,12.18,0,0,1,249,414.7a14,14,0,0,1-9.61-4.52c-.34-.35-.64-.69-.91-1a30.8,30.8,0,0,0,20.42,0C258.74,409.46,258.55,409.73,258.32,410Z" fill="#2f2734"/><path d="M289.26,370.6a4.54,4.54,0,0,1-4.42-4.64,4.76,4.76,0,0,1,1.27-3.25,11.12,11.12,0,0,0-1.64-.18c-6.51,0-11.79,5.54-11.79,12.36s5.28,12.37,11.79,12.37,11.79-5.54,11.79-12.37a12.64,12.64,0,0,0-2.72-7.81A4.46,4.46,0,0,1,289.26,370.6Z" fill="#2f2734"/><path d="M216.78,362.53a11.12,11.12,0,0,0-1.64.18,4.71,4.71,0,0,1,1.27,3.25A4.54,4.54,0,0,1,212,370.6a4.46,4.46,0,0,1-4.28-3.52,12.64,12.64,0,0,0-2.72,7.81c0,6.83,5.28,12.37,11.79,12.37s11.79-5.54,11.79-12.37S223.29,362.53,216.78,362.53Z" fill="#2f2734"/><path d="M297.71,330.93a99.92,99.92,0,0,0-101.53,2.26c-11.58,7.25-17.08,13.83-16.72,14.14.54.59,6.39-5.43,17.87-12.24a99.76,99.76,0,0,1,99.31-2.2c11.77,6.29,17.89,12,18.4,11.43C315.39,344,309.6,337.66,297.71,330.93Z" fill="#2f2734"/><path d="M317.8,303.51a95.91,95.91,0,0,0-14.65-10,114.47,114.47,0,0,0-112.4.15,95.78,95.78,0,0,0-14.62,10.05c-3.19,2.72-4.75,4.44-4.56,4.66.52.63,7.29-5.71,20.26-12.75a114.4,114.4,0,0,1,110.24-.15c13,7,19.78,13.32,20.29,12.7C322.56,307.94,321,306.22,317.8,303.51Z" fill="#2f2734"/><path d="M247.43,250.57a66.5,66.5,0,0,0-22.58,3.36c-5.55,1.93-8.62,3.93-8.36,4.44s3.57-.75,9-2.31a71.54,71.54,0,0,1,43.58.9c5.38,1.79,8.59,3.31,8.92,2.69s-2.7-2.63-8.17-4.79A66.59,66.59,0,0,0,247.43,250.57Z" fill="#2f2734"/><path d="M150,319.42c-1.19-.43-2.3,2.64-2.73,6.59s0,7.17,1.23,7,.89-3.09,1.31-6.75S151.26,319.83,150,319.42Z" fill="#2f2734"/><path d="M155.72,296.23c-1.36,2.95-1.63,5.65-.38,5.78s1.51-2.14,2.7-4.73,2.76-4.27,1.79-5.14S157.05,293.26,155.72,296.23Z" fill="#2f2734"/><path d="M182.21,403.26c-1.46-1.26-2.64-2.28-3.47-1.32s.34,2,1.8,3.25,2.63,2.28,3.46,1.32S183.66,404.53,182.21,403.26Z" fill="#2f2734"/><path d="M339.21,292.16c-.91.93,1.35,2.95,2.74,6.4s1.25,6.45,2.56,6.48,1.45-3.52-.2-7.45S340,291.22,339.21,292.16Z" fill="#2f2734"/><path d="M349.66,330.15c-.61-4.54-1.84-8.08-3-7.67s-.07,3.72.5,8,.36,7.79,1.65,7.86S350.28,334.68,349.66,330.15Z" fill="#2f2734"/><path d="M318.77,403.41c-1.1-.66-1.66.34-2.78,1.27s-2.21,1.29-1.77,2.5,1.94.67,3.39-.54S319.87,404,318.77,403.41Z" fill="#2f2734"/><path d="M222.08,188.58c1.43-1,3-2.2,4.62-3.56,0,.39,0,.79,0,1.22,0,2.09,0,3.78,1.27,3.78s1.28-1.69,1.28-3.78a8.62,8.62,0,0,0-.32-3.15,66.87,66.87,0,0,0,9.73-10.93A53.71,53.71,0,0,0,244.24,162c-.61,35.25-1.1,65-.48,77.23.7,0,1.4,0,2.1-.07,1.08-12.82,1.63-44.53,2.28-81.64.36-21,.7-40.2.81-55.29.19.34.38.67.61,1,2.78,4.22,6.64,6.17,7.17,5,0,0,0,0,0-.07A36.42,36.42,0,0,0,261,111.5a36,36,0,0,0,10.81,4.78c-.45.63-.46,1.89-.46,3.37,0,2.09,0,3.79,1.28,3.79s1.27-1.7,1.27-3.79a10.56,10.56,0,0,0-.24-2.93,30.88,30.88,0,0,0,5.46.65c4.95.14,7.89-.88,7.77-1.45s-3-.33-7.62-.77a35.43,35.43,0,0,1-28.79-19c-.58-1.08-1.06-2-1.48-2.92,0-14.55-.32-23.47-1.22-23.48-1.78,0-2.49,33.73-3.26,77.25a26.38,26.38,0,0,1-1.76,4.4,28.64,28.64,0,0,1-6.42,8.05c-2,1.76-3.37,2.74-3.06,3.34s2.05.09,4.45-1.59a24.35,24.35,0,0,0,6.67-7.6V154a53.51,53.51,0,0,1-7.82,16.73,77.29,77.29,0,0,1-15.81,16.1c-4.59,3.59-7.6,5.64-7.25,6.21S217.18,192,222.08,188.58Z" fill="#2f2734"/></svg>