<svg id="Layer_1" data-name="Layer 1" xmlns="http://www.w3.org/2000/svg" viewBox="0 0 500 500"><title>Halloween Illustration_6</title><path d="M346.85,418.17a90.54,90.54,0,0,1-8.14-22.85c-7.64,4.58-16.8,7.28-25.61,9-25.31,5-35.74,5.79-63.15,1.89h.31c-4.3-.47-8.54-1.07-12.64-1.9-8-1.63-16.29-4-23.48-7.85A131.64,131.64,0,0,1,220,448.15a4.39,4.39,0,0,0,.56,3.26,4.2,4.2,0,0,0,2.52,1.11,175.56,175.56,0,0,0,60.4,1.11c-.68-4.67-1.21-9.36-1.63-14.06a160.52,160.52,0,0,0,23.44,21.07,133.31,133.31,0,0,0,40.58-34.15c1.1-1.39,2.23-2.95,2.2-4.73A8.59,8.59,0,0,0,346.85,418.17Z" fill="#a26d42"/><path d="M280.44,176.63l-.22.07c-2.72,1-5.83,2.38-9.3,4,.35.58.71,1.29,1.16,2.07a4.65,4.65,0,0,0,2.26,2.06c.82.33,2,0,3.64-1a8,8,0,0,0,3.33-2.68,3.06,3.06,0,0,0,0-2.72C281,177.74,280.69,177.16,280.44,176.63Z" fill="#f9e9ea"/><path d="M268.37,181.84A55.43,55.43,0,0,1,257,185.73c.35.65.73,1.44,1.21,2.33a5.41,5.41,0,0,0,2.58,2.46c1,.45,2.31,0,4.38-1,1.09-.48,2.14-.77,2.72-1.1A2.35,2.35,0,0,0,269,187.2a5.28,5.28,0,0,0,0-3.55C268.79,183,268.57,182.39,268.37,181.84Z" fill="#f9e9ea"/><path d="M256.14,277.36a2.93,2.93,0,0,1-.43,1.09s0-.05,0-.06,0,0,0,.05a3,3,0,0,1,.19-1.15c.32-.8-.81-1.63-2.16-.76a2.77,2.77,0,0,0-1.2,2.47,3.14,3.14,0,0,0,5.62,1.55,2.79,2.79,0,0,0,.24-2.74C257.67,276.37,256.28,276.51,256.14,277.36Z" fill="#f9e9ea"/><path d="M254.82,288.81a3.16,3.16,0,0,1-.42,1.09s0,0,0,0,0,0,0,0a3.2,3.2,0,0,1,.19-1.16c.32-.8-.81-1.62-2.16-.75a2.8,2.8,0,0,0-1.2,2.47,3.14,3.14,0,0,0,5.63,1.54,2.79,2.79,0,0,0,.23-2.73C256.35,287.83,255,288,254.82,288.81Z" fill="#f9e9ea"/><path d="M194.3,112.41a25.27,25.27,0,1,0,25.27,25.27A25.27,25.27,0,0,0,194.3,112.41Z" fill="#f9e9ea"/><path d="M292.27,108.22a29,29,0,1,0,29,29A29,29,0,0,0,292.27,108.22Z" fill="#f9e9ea"/><path d="M204.94,315.74c2.12-.11,4.25-.16,6.37-.19a20.67,20.67,0,0,0-5.84-1.45Z" fill="#f3601d"/><path d="M201.65,326.44a45,45,0,0,1,10.87-2.27,37.68,37.68,0,0,0-10.57,1.2C201.85,325.73,201.76,326.08,201.65,326.44Z" fill="#f3601d"/><path d="M208.26,305.55l-.4,1.11c1.43.15,2.86.23,4.28.43A38.18,38.18,0,0,0,208.26,305.55Z" fill="#f3601d"/><path d="M352.68,339.42c-7.68-29.75-17.45-61-30.85-88.67A121.42,121.42,0,0,1,291.72,260q-2.93.48-5.85.81a34.27,34.27,0,0,1-30.46,8.84c-7.28-1.58-14.42-6.38-16.37-13.5-.36-.11-.71-.26-1.06-.38-2.45-.79-4.89-1.64-7.3-2.59-.91-.36-1.79-.77-2.69-1.15-1.88-.8-3.76-1.6-5.61-2.49-1.16-.55-2.3-1.17-3.45-1.77-1.54-.8-3.09-1.6-4.6-2.47-1.29-.74-2.55-1.53-3.81-2.32-.92-.57-1.86-1.08-2.75-1.67-26.92-9.17-57.16-9.53-85.69-5.63l1.13,5.69q1.29,28.52,1.27,57.07c9-9.52,22.76-12.53,35.62-15.09,19.66-3.9,39.51-7.78,59.52-7.85-3.15,7.57-6.07,15.3-8.86,23.07a38.51,38.51,0,0,1,14.15,10.63l3.53,6.82-.21,10.33c0,2.22-.43,4.94-2.5,5.72a6.13,6.13,0,0,1-2.7.12A40,40,0,0,0,198.42,338c-.12.46-.27.93-.39,1.4-3.7,14.35-6.49,30.46,1,43.27,7.66,13.16,23.71,18.61,38.63,21.65,4.1.83,8.34,1.43,12.64,1.9H250c27.41,3.9,37.84,3.1,63.15-1.89,14.93-2.95,31-8.49,38.62-21.65C359.18,369.88,356.38,353.77,352.68,339.42ZM256.84,292a3.14,3.14,0,0,1-5.63-1.54,2.8,2.8,0,0,1,1.2-2.47c1.35-.87,2.48-.05,2.16.75a3.2,3.2,0,0,0-.19,1.16s0,0,0,0,0,0,0,0a3.16,3.16,0,0,0,.42-1.09c.14-.85,1.53-1,2.25.46A2.79,2.79,0,0,1,256.84,292Zm1.31-11.45a3.14,3.14,0,0,1-5.62-1.55,2.77,2.77,0,0,1,1.2-2.47c1.35-.87,2.48,0,2.16.76a3,3,0,0,0-.19,1.15s0,0,0-.05,0,0,0,.06a2.93,2.93,0,0,0,.43-1.09c.14-.85,1.53-1,2.25.45A2.79,2.79,0,0,1,258.15,280.55Z" fill="#f3601d"/><path d="M414.29,119.35c-4.43-4.79-11.93-5.95-18.1-3.85a23.29,23.29,0,0,0-6.29,3.33c-3.13-27-13.88-65.94-48.3-90.42,0,0-24.37-16.62-68.2-14.28-43.84-2.34-68.21,14.28-68.21,14.28-57,40.55-49.12,120.78-49.12,120.78h.19c1.2,22.75,8.38,45.13,21.4,63.4,15,21.09,37.63,36.1,61.38,43.54,2,7.12,9.09,11.92,16.37,13.5a34.29,34.29,0,0,0,30.47-8.84c31.13-3.47,63.64-20.67,83.25-48.2a114,114,0,0,0,15.71-32,28.43,28.43,0,0,0,11.69-5.82,60.12,60.12,0,0,0,21.41-34.95C419.35,132.77,419.19,124.64,414.29,119.35ZM194.3,163a25.27,25.27,0,1,1,25.27-25.27A25.27,25.27,0,0,1,194.3,163ZM269,187.2a2.35,2.35,0,0,1-1.14,1.23c-.58.33-1.63.62-2.72,1.1-2.07,1-3.37,1.44-4.38,1a5.41,5.41,0,0,1-2.58-2.46c-.48-.89-.86-1.68-1.21-2.33a55.43,55.43,0,0,0,11.42-3.89c.2.55.42,1.15.64,1.81A5.28,5.28,0,0,1,269,187.2Zm12.33-6.07a8,8,0,0,1-3.33,2.68c-1.67,1-2.82,1.33-3.64,1a4.65,4.65,0,0,1-2.26-2.06c-.45-.78-.81-1.49-1.16-2.07,3.47-1.6,6.58-3,9.3-4l.22-.07c.25.53.54,1.11.83,1.78A3.06,3.06,0,0,1,281.31,181.13Zm11-14.83a29,29,0,1,1,29-29A29,29,0,0,1,292.27,166.3Z" fill="#9ed222"/><path d="M105.88,242.21c-7.7.09-15.44,4.3-18.92,11.17a5.53,5.53,0,0,0-.76,3.39,2.34,2.34,0,0,0,2.45,2,4,4,0,0,0,2.08-1.59,16.39,16.39,0,0,1,17.67-4.36A44.81,44.81,0,0,0,84.66,266c-1.76,1.87-3.44,4.13-3.37,6.7s2.86,5.05,5.16,3.9a6.46,6.46,0,0,0,2.08-2.08A31.63,31.63,0,0,1,111,262.24a47.08,47.08,0,0,0-21.37,17.23,9.15,9.15,0,0,0-1.9,4.56c-.08,1.66.92,3.49,2.55,3.8,2,.39,3.64-1.46,4.91-3a56.92,56.92,0,0,1,18.85-15.26,41.81,41.81,0,0,0-16.32,23.81c-.46,1.83-.54,4.24,1.14,5.1s3.55-.59,4.7-2.05c3-3.77,4.77-8.34,7.37-12.39s6.44-7.78,11.22-8.24a17.66,17.66,0,0,1,2.06-.05q-.24-13.5-.78-27A27.86,27.86,0,0,0,105.88,242.21Z" fill="#9ed222"/><path d="M366.62,443.08a81.7,81.7,0,0,1-19.13-19,13.55,13.55,0,0,1-1.61,2.44,133.36,133.36,0,0,1-32.23,29.14,116.19,116.19,0,0,0,13.11,3.52c-4.14,17.8,3.66,36.58,17.08,40.85l1.5-3.26c6.78-15,16.25-31.59,23-46.57.65-1.44,1.31-3.07.74-4.54A6.21,6.21,0,0,0,366.62,443.08Z" fill="#9ed222"/><path d="M223,332.17a6.13,6.13,0,0,0,2.7-.12c2.07-.78,2.45-3.5,2.5-5.72l.21-10.33-3.53-6.82a38.74,38.74,0,0,0-26.1-13.79,9.74,9.74,0,0,0-4.8.47,4,4,0,0,0-2.54,3.79c.31,3,4.25,3.65,7.23,3.89a38.8,38.8,0,0,1,13.44,3.55,96.88,96.88,0,0,0-17.1-.95c-5.4.18-11.88,1.64-13.57,6.77a4,4,0,0,0,.19,3.33c1.31,2,4.4,1.42,6.69.62,7.41-2.58,15.73-4.35,23-1.31-5.19.06-10.44.16-15.46,1.45s-9.89,3.91-12.91,8.13a5,5,0,0,0-1,2.19c-.33,2.36,2.33,4.22,4.71,4.12s4.48-1.5,6.57-2.64a37.64,37.64,0,0,1,19.32-4.63,45.35,45.35,0,0,0-17.77,5.17c-3.69,2-7.47,5.1-7.46,9.28,0,1.66.85,3.48,2.45,3.94,1.8.53,3.54-.83,5-2A40,40,0,0,1,223,332.17Z" fill="#9ed222"/><path d="M231.86,454c.91,3.68,1.87,7.35,2.76,11a27.51,27.51,0,0,0-22.42,35h65.16V454.45A175.9,175.9,0,0,1,231.86,454Z" fill="#9ed222"/><path d="M238.2,185.42a42.72,42.72,0,0,0,15.78.85c.28,0,.55-.11.83-.16a9.77,9.77,0,0,0,.6,3.23,7.55,7.55,0,0,0,4.08,4.35,6.22,6.22,0,0,0,3.86.23,19.42,19.42,0,0,0,3.15-1.21c.85-.4,1.83-.62,3-1.25a5.72,5.72,0,0,0,2.63-3,6.7,6.7,0,0,0,.24-.93,6.11,6.11,0,0,0,.8.44,5.73,5.73,0,0,0,3.59.12,12.85,12.85,0,0,0,2.89-1.29c1.69-1,3.63-2.05,4.7-4.17A5.79,5.79,0,0,0,284,177a10.39,10.39,0,0,0-1-1.17c4.86-1.32,7.95-1,8.08-1.82s-4.57-2.34-11.77-.2a96.32,96.32,0,0,0-11.73,4.66,49.57,49.57,0,0,1-14,4.36,40.44,40.44,0,0,1-14.53-.72c-4.37-1.05-8.26-2.66-11.66-3.77-6.81-2.41-11.56-2.39-11.59-1.53s4.08,1.64,10.54,4.37A91.72,91.72,0,0,0,238.2,185.42Zm42-8.72.22-.07c.25.53.54,1.11.83,1.78a3.06,3.06,0,0,1,0,2.72,8,8,0,0,1-3.33,2.68c-1.67,1-2.82,1.33-3.64,1a4.65,4.65,0,0,1-2.26-2.06c-.45-.78-.81-1.49-1.16-2.07C274.39,179.08,277.5,177.65,280.22,176.7Zm-11.85,5.14c.2.55.42,1.15.64,1.81a5.28,5.28,0,0,1,0,3.55,2.35,2.35,0,0,1-1.14,1.23c-.58.33-1.63.62-2.72,1.1-2.07,1-3.37,1.44-4.38,1a5.41,5.41,0,0,1-2.58-2.46c-.48-.89-.86-1.68-1.21-2.33A55.43,55.43,0,0,0,268.37,181.84Z" fill="#2f2734"/><path d="M259.07,407.65l-.25-.26S269.6,438,282.66,447.34v0q-.46-3.87-.81-7.74A162.82,162.82,0,0,1,259.07,407.65Z" fill="#2f2734"/><path d="M348.8,31.34a48.31,48.31,0,0,0-6.39-3.91c-.13-.08-.25-.16-.39-.23s0,0,0,0c-.74-.37-1.47-.76-2.21-1.12a150,150,0,0,0-38.27-12.4c-11.13-2-24.18-3.85-29.7-13.71A19,19,0,0,0,275,10.16c-8.12-.47-16.25.57-24.31,1.7C235.78,14,220.73,16.42,207,22.55S180.8,39,175,52.85c1.68,9.06,6,15.33,16,23.81s22.91,13.17,36,14.63a31.31,31.31,0,0,1-15.17-21.41c17.7,19.76,45.82,26.16,72.25,28.44a138.38,138.38,0,0,1-18.68-25A65,65,0,0,0,318,86.63a31.19,31.19,0,0,1-12.46-14,59,59,0,0,0,25.7-2.07l0,0a38.73,38.73,0,0,0,8.18-3.15c.58-.28,1.14-.57,1.71-.86,1.3-.68,2.58-1.37,3.87-2.06,4.43-2.37,9-4.66,14-5.27s10.49.71,13.74,4.56C367.83,49.72,361.8,40.08,348.8,31.34Z" fill="#2f2734"/><circle cx="187.91" cy="137.68" r="3.19" fill="#2f2734"/><circle cx="283.75" cy="136.78" r="3.68" fill="#2f2734"/><path d="M407.71,130.06a7.39,7.39,0,0,0-5.88-2.86,11.14,11.14,0,0,0-7.78,3.45c-1.35,1.36-1.86,2.29-1.58,2.61s1.25-.13,2.8-1a24,24,0,0,1,2.69-1.35c-.42,2.47-.32,7.4-2.44,12.89-2.18,5.86-5.84,9.6-7,11.66a10.44,10.44,0,0,0-6.24,1.19,8,8,0,0,0-3.51,3.73c-.45,1.12-.35,1.8-.06,1.89.67.27,1.52-1.93,4.72-3.26a8.42,8.42,0,0,1,5.83-.23,11.6,11.6,0,0,1,6,4.77l1.44,2.24,1.43-2.26a97.64,97.64,0,0,0,6.71-12.57c1-2.33,2-4.64,2.77-6.9a29.07,29.07,0,0,0,1.85-7A10,10,0,0,0,407.71,130.06Zm-1.61,6.68a27.29,27.29,0,0,1-1.7,6.13c-.79,2.18-1.68,4.41-2.68,6.66a101.28,101.28,0,0,1-5.22,10.05,14,14,0,0,0-5.35-3.51A25.26,25.26,0,0,0,398.76,145c2.47-6.37,2.22-12.27,1.25-14.67a7.9,7.9,0,0,1,1.7-.1,4.36,4.36,0,0,1,3.37,1.79A6.83,6.83,0,0,1,406.1,136.74Z" fill="#2f2734"/><path d="M382.93,154.55a8,8,0,0,0,2.3-6,12.45,12.45,0,0,0-1.45-5.72c-.71-1.26-1.44-1.85-2.24-1.53-1.72.67.09,3.82.23,7.28a8,8,0,0,1-1.12,3.94c-.48.89-.95,1.5-.62,2.32S381.58,155.74,382.93,154.55Z" fill="#2f2734"/><path d="M230.68,154.13c-.05-.32-.79-.51-1.94,0a8.47,8.47,0,0,0-3.46,3.67,9.51,9.51,0,0,0-.61,7.88,7.94,7.94,0,0,0,3.42,3.89,7.24,7.24,0,0,0,4.21,1,9,9,0,0,0,9.39,4.59h.81a9,9,0,0,0,9.39-4.59,7.26,7.26,0,0,0,4.21-1,8,8,0,0,0,3.41-3.89,9.47,9.47,0,0,0-.61-7.88,8.47,8.47,0,0,0-3.46-3.67c-1.14-.53-1.88-.34-1.94,0-.12.63,1.7,1.47,3,4.81a7.37,7.37,0,0,1,.08,5.51c-.7,1.74-3.21,3.31-5.1,2.56l-1.74-.68-.49,1.8a5.62,5.62,0,0,1-6.29,3.62l-.19,0h-1.28l-.19,0a5.6,5.6,0,0,1-6.28-3.62l-.49-1.8-1.75.68c-1.88.75-4.4-.82-5.1-2.56a7.41,7.41,0,0,1,.09-5.51C229,155.6,230.81,154.76,230.68,154.13Z" fill="#2f2734"/><path d="M335.14,304.6c-1.57,3.07-3.92,6.63-6.43,11s-4.83,9.58-8.56,14.51A33.48,33.48,0,0,1,304.5,342c-6.77,2.51-14.71,3.23-23.06,3.07s-17.27-1.33-26.74-1.3c-8.41,0-17.67,1-25.95,5.38q.24-9.19.49-18.67.27-10,.52-19.61c.16-5.74.31-11.37.15-16.95a423.31,423.31,0,0,1,46.65,8.21,94.83,94.83,0,0,0,10.9,2.22c3.64.41,7.53.25,10.9-1.45s5.58-4.79,7-7.57,2.45-5.52,3.54-8.1a259.48,259.48,0,0,0,8.78-24.6c1.72-5.86,2.37-9.13,2-9.23-.8-.25-4.63,12.46-13.4,32.74-1.12,2.5-2.26,5.24-3.59,7.82s-3.1,4.93-5.71,6.15-5.83,1.45-9.16,1a91.75,91.75,0,0,1-10.49-2.24,408.14,408.14,0,0,0-49-8.67l-2-.23.09,2c.27,6.12,0,12.43-.14,18.85s-.34,12.95-.52,19.58c-.19,7.35-.38,14.59-.57,21.68l-.09,3.26,2.76-1.76c8.05-5.13,17.74-6.39,26.83-6.4s18,1.12,26.67,1.22,16.93-.65,24.25-3.44a36.14,36.14,0,0,0,16.86-13.08c3.85-5.28,6.12-10.72,8.4-15s4.53-8.12,5.94-11.41c2.8-6.6,3-10.57,2.74-10.62C339.09,294.65,338.25,298.46,335.14,304.6Z" fill="#2f2734"/><path d="M240.57,255.86c-8.37-2.25-13.18-4.78-13.66-3.92-.4.63,4.19,4.05,12.8,6.83s21,4.53,34.68,3.89c27.47-1.18,48.22-10.49,47.47-11.88-.61-1.8-20.8,7.26-47.62,8.42C260.93,259.83,248.89,258.21,240.57,255.86Z" fill="#2f2734"/><path d="M325.29,139.12c.23,2.9.23,4.78.23,4.78a21.46,21.46,0,0,0,1.48-4.66,26.15,26.15,0,0,0-5.74-22.44,21.26,21.26,0,0,0-3.54-3.37s.91,1.65,2.1,4.29a66.43,66.43,0,0,1,3.62,10.48A65.56,65.56,0,0,1,325.29,139.12Z" fill="#2f2734"/><path d="M223.37,133.76c.8,2.32,1.24,3.86,1.24,3.86a17.37,17.37,0,0,0,.45-4.13,21.45,21.45,0,0,0-8.83-17.5,17.29,17.29,0,0,0-3.59-2.09s1,1.26,2.37,3.28a71.53,71.53,0,0,1,4.69,8A70.49,70.49,0,0,1,223.37,133.76Z" fill="#2f2734"/></svg>